<ttFont>
<head>
        <!-- Most of this table will be recalculated by the compiler -->
        <tableVersion value="1.0"/>
        <fontRevision value="1.002"/>
        <checkSumAdjustment value="0x31dbeeeb"/>
        <magicNumber value="0x5f0f3cf5"/>
        <flags value="00000000 00000011"/>
        <unitsPerEm value="1000"/>
        <created value="Fri Jan 15 17:09:51 2016"/>
        <modified value="Fri Jan 15 22:09:51 2016"/>
        <xMin value="-1778"/>
        <yMin value="-403"/>
        <xMax value="834"/>
        <yMax value="1262"/>
        <macStyle value="00000000 00000010"/>
        <lowestRecPPEM value="3"/>
        <fontDirectionHint value="2"/>
        <indexToLocFormat value="0"/>
        <glyphDataFormat value="0"/>
    </head>
                    <CharString index="0">
                        rmoveto
-185 -143 -175 -198 -154 94 -88 129 185 143 174 199 153 -93 89 -130 hvcurveto
-78 -510 rmoveto
-65 -59 48 105 127 59 124 115 67 58 -48 -105 -127 -58 -124 -117 hvcurveto
endchar
                    </CharString>
                    <CharString index="1">
                        rmoveto
hintmask 00111110
128 8 -21 197 -25 193 -28 194 rlinecurve
-174 hlineto
hintmask 01011110
-105 -195 -100 -198 -95 -195 rrcurveto
129 hlineto
24 52 25 53 26 52 rrcurveto
202 hlineto
hintmask 10011110
5 -54 5 -54 4 -53 rrcurveto
hintmask 00111110
-55 486 rmoveto
6 hlineto
9 -78 9 -79 8 -79 rrcurveto
-150 hlineto
39 79 40 79 39 78 rrcurveto
endchar
                    </CharString>
                    <CharString index="2">
                        rmoveto
44 -34 38 -38 33 vhcurveto
34 17 41 19 49 22 -33 60 rcurveline
-58 -26 -48 -24 -41 -21 rrcurveto
-25 21 -18 19 17 vvcurveto
25 29 14 116 -26 vhcurveto
32 101 rlineto
-175 18 -99 -66 -77 vvcurveto
return
                    </CharString>
                    <CharString index="3">
                        -24 callsubr
136 -19 50 -24 -30 vvcurveto
-31 -48 -28 -176 15 vhcurveto
-12 -96 rlineto
-52 callgsubr
return
                    </CharString>
                    <CharString index="4">
                        24 88 rlineto
-109 hlineto
73 367 -102 -8 -13 -68 -114 -13 -10 -72 rlineto
107 hlineto
-41 -206 rlineto
-117 hlineto
-17 -88 rlineto
return
                    </CharString>
                    <CharString index="5">
                        rmoveto
51 -24 65 48 60 93 16 92 rlinecurve
-160 -3 5 -60 -11 -85 -26 -61 rlinecurve
endchar
                    </CharString>
                    <CharString index="6">
                        rmoveto
-13 59 -248 22 callsubr
rlinecurve
219 15 135 77 137 vvcurveto
85 -54 55 -93 -177 -150 -197 -186 -170 138 -120 312 170 vhcurveto
-164 393 rmoveto
44 24 -27 -39 -72 -90 -34 -137 -8 hvcurveto
95 20 59 85 80 hhcurveto
endchar
                    </CharString>
                    <CharString index="7">
                        rmoveto
-58 42 -101 88 -64 63 -77 -107 rcurveline
71 -45 132 -71 68 -26 rrcurveto
return
                    </CharString>
                    <CharString index="8">
                        161 105 11 89 rlineto
-286 hlineto
-19 -91 rlineto
175 hlineto
-167 -105 -5 -44 rlineto
111 -23 49 -26 -26 vvcurveto
-25 -44 -24 -171 20 vhcurveto
return
                    </CharString>
                    <CharString index="9">
                        rmoveto
77 393 rlineto
-128 hlineto
-73 -376 rlineto
-234 -46 103 -92 148 hhcurveto
142 121 88 187 37 hvcurveto
83 427 rlineto
-127 hlineto
-85 -435 rlineto
-106 -20 -53 -48 -81 hhcurveto
-73 -54 46 150 29 hvcurveto
endchar
                    </CharString>
                    <CharString index="10">
                        rmoveto
107 -20 -47 60 -108 hhcurveto
-130 -99 -91 -95 hvcurveto
-138 228 -62 -76 vvcurveto
-43 -63 -27 -206 54 vhcurveto
hintmask 01111000
-26 -117 rlineto
hintmask 10111000
299 -56 126 101 100 129 -230 65 90 vvcurveto
34 28 31 44 47 29 -27 -63 17 vhcurveto
return
                    </CharString>
                    <CharString index="11">
                        -109 -429 rlineto
-6 hlineto
-44 272 rlineto
-79 hlineto
-145 -273 rlineto
-7 hlineto
58 430 rlineto
-123 hlineto
-33 -252 -19 -224 -112 vvcurveto
128 hlineto
143 256 rlineto
endchar
                    </CharString>
                    <CharString index="12">
                        rmoveto
-181 -153 -182 -200 -201 166 -82 269 84 hvcurveto
11 106 rlineto
-225 -67 -95 45 140 vvcurveto
114 60 135 116 59 14 -37 -92 3 vhcurveto
120 2 rlineto
158 1 -41 77 -124 hhcurveto
endchar
                    </CharString>
                    <CharString index="13">
                        rmoveto
127 59 124 115 27 25 -8 -15 21 vhcurveto
-244 -267 rlineto
-2 12 -1 13 14 vvcurveto
124 -153 rmoveto
-29 -27 9 20 -22 hvcurveto
248 271 rlineto
3 -14 2 -17 -18 vvcurveto
-127 -58 -124 -117 vhcurveto
-27 -105 rmoveto
185 143 174 199 hvcurveto
hintmask 10111000
55 -12 47 -21 37 vhcurveto
72 77 -69 59 -64 -70 rlineto
hintmask 11011000
24 -36 -44 13 -49 hhcurveto
-185 -143 -175 -198 -51 11 -45 18 -35 hvcurveto
-77 -84 69 -57 66 72 rlineto
-28 37 47 -14 52 hhcurveto
endchar
                    </CharString>
                    <CharString index="14">
                        -84 callsubr
hintmask 01001111
-70 callgsubr
hintmask 00110111
-78 callgsubr
hintmask 01001111
-8 -109 62 -35 191 109 rrcurveto
endchar
                    </CharString>
                    <CharString index="15">
                        rmoveto
25 88 rlineto
-52 hlineto
26 134 -97 -8 -49 callgsubr
-109 6 -38 -125 -34 -78 -49 -92 rlinecurve
-7 -72 rlineto
-37 callgsubr
return
                    </CharString>
                    <CharString index="16">
                        rmoveto
-41 -30 25 65 96 56 128 78 20 37 -9 -26 47 hvcurveto
-27 -65 -22 -80 -4 -76 rrcurveto
-37 -41 -37 -21 -36 hhcurveto
226 -212 rmoveto
37 73 -40 90 1 123 rrcurveto
74 112 57 130 58 vvcurveto
25 -43 25 -36 -12 -15 -11 -18 -16 vhcurveto
16 -31 -29 8 -34 hhcurveto
-203 -130 -187 -184 -115 59 -55 74 62 62 41 51 54 hvcurveto
7 -72 14 -72 -15 -15 -23 -23 -116 -8 -176 11 -16 -130 rcurveline
255 -10 137 52 42 85 rrcurveto
endchar
                    </CharString>
                    <CharString index="17">
                        rmoveto
-16 61 -110 -22 -2 1 10 49 rlinecurve
hintmask 10101110
81 412 rlineto
-120 hlineto
-69 -348 rlineto
-70 -57 -47 -34 -55 hhcurveto
-39 -22 31 69 14 hvcurveto
hintmask 10011110
78 359 -120 -9 -122 -135 79 -52 -36 -171 rlineto
-149 -31 56 -62 76 hhcurveto
70 66 39 77 71 hvcurveto
hintmask 01011110
-11 -118 59 -40 197 112 rrcurveto
endchar
                    </CharString>
                    <CharString index="18">
                        rmoveto
-24 60 -153 -73 -62 19 -5 139 rlinecurve
187 146 121 144 149 vvcurveto
85 -43 41 -62 -148 -171 -235 -320 -9 vhcurveto
-83 -56 33 -56 53 34 21 -182 133 -34 212 139 rlinecurve
-99 578 rmoveto
19 18 -15 -38 -79 -60 -99 -120 -108 hvcurveto
218 14 72 121 57 hhcurveto
return
                    </CharString>
                    <CharString index="19">
                        rmoveto
-14 61 -177 -39 -13 4 28 117 rlinecurve
82 355 -120 -9 -119 -135 77 -51 -46 -184 -46 -183 98 -82 250 146 rlinecurve
endchar
                    </CharString>
                    <CharString index="20">
                        118 hlineto
121 268 51 129 44 158 rrcurveto
-137 hlineto
-28 -141 -23 -93 -52 -173 rrcurveto
-9 hlineto
-32 253 rlineto
-83 hlineto
-139 -253 rlineto
-5 hlineto
21 165 13 97 19 145 rrcurveto
-129 hlineto
-25 -212 -15 -239 9 -104 rrcurveto
117 hlineto
127 234 rlineto
endchar
                    </CharString>
                    <CharString index="21">
                        rmoveto
-23 60 -138 -65 -64 8 -15 103 rlinecurve
185 159 119 156 163 vvcurveto
85 -43 41 -62 -152 -176 -247 -332 -228 137 -55 232 152 vhcurveto
-99 578 rmoveto
19 18 -15 -38 -90 -61 -113 -121 -123 hvcurveto
244 7 78 135 60 hhcurveto
return
                    </CharString>
                    <CharString index="22">
                        rmoveto
hintmask 00111000
136 20 -135 238 rlineto
88 48 70 66 83 vvcurveto
101 -99 77 -298 -38 vhcurveto
hintmask 01011000
-114 -585 73 callgsubr
95 493 rlineto
106 10 54 -28 -54 vvcurveto
-51 -39 -48 -132 -56 vhcurveto
-1 vlineto
return
                    </CharString>
                    <CharString index="23">
                        rmoveto
-32 -21 26 60 121 65 147 80 23 41 -7 -13 43 hvcurveto
-49 -253 rlineto
-47 -54 -60 -34 -36 hhcurveto
return
                    </CharString>
                    <CharString index="24">
                        -92 callsubr
endchar
                    </CharString>
                    <CharString index="25">
                        rmoveto
hintmask 00111110
128 12 -23 228 -25 226 -31 228 rlinecurve
-174 hlineto
hintmask 01011110
-120 -228 -115 -231 -108 -229 rrcurveto
128 hlineto
30 64 31 65 31 65 rrcurveto
231 hlineto
hintmask 10011110
7 -67 5 -67 5 -66 rrcurveto
hintmask 00111110
-62 578 rmoveto
6 hlineto
11 -93 10 -94 9 -94 rrcurveto
-175 hlineto
46 94 46 94 47 93 rrcurveto
endchar
                    </CharString>
                    <CharString index="26">
                        30 41 -94 64 hhcurveto
53 66 65 82 47 hvcurveto
-58 38 rlineto
-56 -36 -25 -27 -17 hhcurveto
return
                    </CharString>
                    <CharString index="27">
                        131 hlineto
hintmask 10010100
115 588 rlineto
-116 hlineto
-74 -393 rlineto
-7 hlineto
hintmask 01001100
-140 396 -148 -6 -114 -585 rlineto
117 hlineto
hintmask 01100100
79 423 rlineto
8 hlineto
return
                    </CharString>
                    <CharString index="28">
                        rmoveto
-85 -59 -57 -67 -59 44 -45 72 86 60 59 66 58 -46 45 -72 hvcurveto
return
                    </CharString>
                    <CharString index="29">
                        -30 -39 94 -64 hhcurveto
-54 -66 -65 -83 -48 hvcurveto
60 -37 rlineto
54 35 25 29 16 hhcurveto
return
                    </CharString>
                    <CharString index="30">
                        23 108 -281 -3 347 380 17 103 rlineto
-413 hlineto
-22 -107 276 2 -351 -380 -19 -103 rlineto
endchar
                    </CharString>
                    <CharString index="31">
                        rmoveto
48 145 -151 -1 -37 -145 rlineto
return
                    </CharString>
                    <CharString index="32">
                        rmoveto
-83 callgsubr
endchar
                    </CharString>
                    <CharString index="33">
                        rmoveto
hintmask 00111000
138 22 -150 280 rlineto
98 56 81 78 99 vvcurveto
116 -107 87 -317 -42 vhcurveto
hintmask 01011000
82 callsubr
127 hlineto
113 583 rlineto
123 14 63 -31 -69 vvcurveto
-62 -47 -58 -149 -68 vhcurveto
-2 vlineto
return
                    </CharString>
                    <CharString index="34">
                        rmoveto
-16 61 -110 -22 -2 1 10 49 rlinecurve
hintmask 10101100
81 412 rlineto
-120 hlineto
-69 -348 rlineto
-70 -57 -47 -34 -55 hhcurveto
-39 -22 31 69 14 hvcurveto
hintmask 10011100
78 359 -120 -9 -122 -135 79 -52 -36 -171 rlineto
-149 -31 56 -62 76 hhcurveto
70 66 39 77 71 hvcurveto
hintmask 01011100
-11 -118 59 -40 197 112 rrcurveto
endchar
                    </CharString>
                    <CharString index="35">
                        -53 -28 47 357 127 hvcurveto
-122 -5 rlineto
-427 -163 73 -91 103 hhcurveto
75 77 41 54 62 hvcurveto
5 -78 8 -70 -17 -18 -25 -24 -112 -9 -175 11 rrcurveto
return
                    </CharString>
                    <CharString index="36">
                        rmoveto
147 11 -42 55 -104 hhcurveto
-172 -155 -176 -196 -172 126 -124 300 151 hvcurveto
-14 60 rlineto
-236 -41 -53 35 118 vvcurveto
123 73 112 89 48 15 -30 -65 -1 vhcurveto
endchar
                    </CharString>
                    <CharString index="37">
                        20 104 rlineto
-243 hlineto
94 484 rlineto
-126 hlineto
-115 -588 rlineto
return
                    </CharString>
                    <CharString index="38">
                        544 675 -67 52 -545 -674 rlineto
return
                    </CharString>
                    <CharString index="39">
                        rmoveto
100 80 64 101 hvcurveto
hintmask 11011000
109 -111 43 -109 -71 vhcurveto
26 52 59 52 130 27 -22 89 rcurveline
-221 -57 -87 -128 -128 vvcurveto
hintmask 10111000
-17 callsubr
                    </CharString>
                    <CharString index="40">
                        17 -227 89 159 87 callgsubr
240 115 hintmask 10111100
505 -175 rmoveto
-39 callsubr
1 hlineto
-21 197 -25 193 -28 194 rrcurveto
-174 hlineto
hintmask 11011100
-105 -195 -100 -198 -95 -195 rrcurveto
129 hlineto
24 52 25 53 26 52 rrcurveto
202 hlineto
hintmask 10111100
4 -44 4 -45 4 -43 rrcurveto
-120 -53 -48 -61 -54 1 callgsubr
-150 657 rmoveto
6 hlineto
9 -78 9 -79 8 -79 rrcurveto
-150 hlineto
39 79 40 79 39 78 rrcurveto
endchar
                    </CharString>
                    <CharString index="41">
                        127 hlineto
42 111 69 224 65 253 rrcurveto
-118 hlineto
return
                    </CharString>
                    <CharString index="42">
                        -62 callgsubr
97 83 callsubr
40 609 hintmask 01001101
513 770 rmoveto
hintmask 01001011
-78 callsubr
hintmask 01001101
-81 callsubr
-120 -770 rmoveto
131 hlineto
hintmask 10010101
115 588 rlineto
-116 hlineto
-74 -393 rlineto
-7 hlineto
hintmask 01001101
-140 396 -148 -6 -114 -585 rlineto
117 hlineto
hintmask 01100101
58 callgsubr
                    </CharString>
                    <CharString index="43">
                        rmoveto
440 hlineto
17 87 rlineto
-441 hlineto
return
                    </CharString>
                    <CharString index="44">
                        rmoveto
155 75 151 135 33 31 -11 -22 25 vhcurveto
-293 -334 rlineto
-4 18 -2 21 22 vvcurveto
144 -187 rmoveto
-35 -33 12 25 -26 hvcurveto
297 339 rlineto
5 -21 3 -24 -26 vvcurveto
-154 -76 -151 -135 vhcurveto
-32 -114 rmoveto
205 164 202 240 hvcurveto
hintmask 10101100
63 -12 53 -23 43 vhcurveto
hintmask 11011100
75 85 -72 58 -61 -71 rlineto
31 -39 -50 16 -56 hhcurveto
-206 -164 -202 -240 -61 12 -51 20 -42 hvcurveto
-77 -88 71 -58 63 73 rlineto
-33 40 52 -18 58 hhcurveto
endchar
                    </CharString>
                    <CharString index="45">
                        13 -16 123 -119 113 -96 -21 477 105 0 -20 return
                    </CharString>
                    <CharString index="46">
                        -112 1 50 73 36 75 42 123 rlinecurve
return
                    </CharString>
                    <CharString index="47">
                        605 -55 callsubr
return
                    </CharString>
                    <CharString index="48">
                        -20 -8 98 -69 -21 494 102 hstemhm
392 125 -98 122 hintmask 10110000
517 184 rmoveto
57 -38 45 -64 20 vhcurveto
hintmask 01101000
80 34 46 54 62 vvcurveto
99 -111 69 -276 -40 vhcurveto
-114 -584 rlineto
hintmask 10110000
342 -40 135 110 114 vvcurveto
hintmask 10101000
-98 243 rmoveto
-48 -59 -45 -130 -11 vhcurveto
33 171 rlineto
100 9 56 -28 -48 vvcurveto
hintmask 10110000
-27 -249 rmoveto
-58 -70 -43 -137 16 vhcurveto
31 162 rlineto
120 11 56 -35 -53 vvcurveto
endchar
                    </CharString>
                    <CharString index="49">
                        43 -231 89 131 103 -82 -21 599 -20 hstemhm
78 127 -62 115 hintmask 10110100
408 -179 rmoveto
-15 56 rlineto
-98 -34 -37 16 32 vvcurveto
52 73 24 71 42 vhcurveto
77 45 53 59 22 110 71 365 rcurveline
-126 hlineto
-72 -372 rlineto
hintmask 11011000
-85 -17 -44 -39 -70 hhcurveto
-62 -47 38 120 23 hvcurveto
67 338 rlineto
-128 hlineto
-62 -322 -36 -184 77 -82 123 -11 rlinecurve
hintmask 10110100
-80 -50 -28 -43 -44 vvcurveto
-76 93 -50 172 95 vhcurveto
endchar
                    </CharString>
                    <CharString index="50">
                        66 15 -21 27 -21 27 -21 188 97 281 116 return
                    </CharString>
                    <CharString index="51">
                        -37 callsubr
-330 -707 -102 callsubr
                    </CharString>
                    <CharString index="52">
                        -43 callsubr
161 105 11 89 rlineto
-286 hlineto
-19 -91 rlineto
175 hlineto
-167 -105 -5 -44 rlineto
return
                    </CharString>
                    <CharString index="53">
                        -7 11 -21 31 -21 31 -21 483 102 hstemhm
422 129 hintmask 00111000
261 722 -107 callgsubr
hintmask 10011000
131 -732 -14 callsubr
                    </CharString>
                    <CharString index="54">
                        -10 callgsubr
-126 -13 rmoveto
-136 -83 -117 -187 6 vhcurveto
76 397 rlineto
135 7 59 -57 -100 vvcurveto
endchar
                    </CharString>
                    <CharString index="55">
                        rmoveto
61 98 rlineto
-128 61 -66 45 48 vvcurveto
hintmask 10010000
62 121 34 86 vvcurveto
37 -20 37 -66 26 vhcurveto
hintmask 11001000
92 29 37 57 44 vvcurveto
hintmask 10100000
56 -61 62 40 vvcurveto
46 80 30 176 37 vhcurveto
-19 111 rlineto
-270 -70 -84 -92 -85 vvcurveto
hintmask 11001000
-73 63 -53 -39 vvcurveto
-27 -29 -20 -113 -5 vhcurveto
-22 -91 rlineto
hintmask 10010000
76 -17 40 -26 -33 vvcurveto
hintmask 11001000
-52 -125 -28 -109 vvcurveto
-77 68 -54 189 -95 vhcurveto
endchar
                    </CharString>
                    <CharString index="56">
                        65 -21 rcurveline
58 29 27 37 26 hhcurveto
23 10 -32 -89 -5 hvcurveto
endchar
                    </CharString>
                    <CharString index="57">
                        rmoveto
hintmask 10010000
270 70 85 92 85 vvcurveto
hintmask 11001000
73 -64 53 39 vvcurveto
27 29 20 113 5 vhcurveto
23 91 rlineto
hintmask 10100000
-77 17 -40 27 32 vvcurveto
hintmask 11001000
52 125 28 110 vvcurveto
76 -67 55 -190 94 vhcurveto
-61 -98 rlineto
129 -61 65 -45 -48 vvcurveto
hintmask 10100000
-62 -121 -33 -87 vvcurveto
-37 20 -36 66 -27 vhcurveto
hintmask 11001000
-92 -29 -37 -57 -44 vvcurveto
hintmask 10010000
-55 61 -62 -40 vvcurveto
-47 -80 -30 -175 -37 vhcurveto
endchar
                    </CharString>
                    <CharString index="58">
                        88 206 78.5 return
                    </CharString>
                    <CharString index="59">
                        -62 callgsubr
hstemhm
40 599 hintmask 01001100
293 718 -107 callgsubr
100 -718 rmoveto
-6 callsubr
                    </CharString>
                    <CharString index="60">
                        rmoveto
-103 callsubr
endchar
                    </CharString>
                    <CharString index="61">
                        88.5 return
                    </CharString>
                    <CharString index="62">
                        250 0 103 148 88 146 103 hstem
55 126 vstem
754 103 rmoveto
-253 hlineto
29 148 rlineto
210 hlineto
17 88 rlineto
-210 hlineto
27 146 rlineto
248 hlineto
20 103 rlineto
-332 hlineto
-315 -140 -150 -190 -184 144 -64 186 hvcurveto
338 hlineto
-542 261 rmoveto
121 70 102 199 2 vhcurveto
-73 -382 rlineto
-120 -76 43 114 hvcurveto
endchar
                    </CharString>
                    <CharString index="63">
                        rmoveto
8 hlineto
hintmask 11011000
-55 -284 rlineto
-164 hlineto
hintmask 10111000
70 95 71 94 70 95 rrcurveto
-104 -575 rmoveto
393 hlineto
33 113 rlineto
-277 hlineto
36 183 rlineto
231 hlineto
20 98 rlineto
-232 hlineto
35 181 rlineto
270 hlineto
36 callgsubr
-476 hlineto
-178 -228 -173 -231 -167 -229 rrcurveto
143 hlineto
hintmask 11011000
46 64 47 65 48 65 rrcurveto
217 hlineto
endchar
                    </CharString>
                    <CharString index="64">
                        rmoveto
46 -38 40 -95 25 vhcurveto
return
                    </CharString>
                    <CharString index="65">
                        144.5 return
                    </CharString>
                    <CharString index="66">
                        65 -16 119 -115 113 454 -20 27 -20 return
                    </CharString>
                    <CharString index="67">
                        35 113 -295 -5 349 340 21 107 rlineto
-412 hlineto
-34 -113 287 5 -349 -340 -23 -107 rlineto
endchar
                    </CharString>
                    <CharString index="68">
                        21 callsubr
52 42 130 30 vhcurveto
return
                    </CharString>
                    <CharString index="69">
                        16 7 -21 510 106 hstem
60 125 276 131 vstem
466 -150 rmoveto
46 106 -205 79 rlineto
169 78 116 130 141 vvcurveto
120 -75 98 -148 -229 -155 -246 -236 112 vhcurveto
107 41 rlineto
229 -55 72 106 117 hhcurveto
75 48 -44 -79 -129 -122 -117 -172 -54 hvcurveto
-32 -87 rlineto
endchar
                    </CharString>
                    <CharString index="70">
                        -55 callgsubr
503 432 -97 callsubr
return
                    </CharString>
                    <CharString index="71">
                        -18 -12 108 398 108 17 callsubr
return
                    </CharString>
                    <CharString index="72">
                        167 21 -21 433 155 4 -20 hstemhm
40 704 hintmask 10110000
325 592 rmoveto
-171 -7 -114 -585 rlineto
117 hlineto
hintmask 11010000
74 433 rlineto
8 hlineto
57 -390 87 1 208 389 rlineto
8 hlineto
-92 -433 rlineto
124 hlineto
113 588 rlineto
-173 hlineto
-193 -363 rlineto
-3 hlineto
endchar
                    </CharString>
                    <CharString index="73">
                        16 -6 103 -76 -21 494 101 hstemhm
456 126 hintmask 10110000
582 357 rmoveto
188 -161 80 -267 -40 vhcurveto
hintmask 01110000
-114 -585 rlineto
hintmask 10110000
-53 callsubr
                    </CharString>
                    <CharString index="74">
                        -17 0 113 183 98 181 113 return
                    </CharString>
                    <CharString index="75">
                        105 0 158 -137 -21 588 -20 return
                    </CharString>
                    <CharString index="76">
                        -20 0 115 473 -20 25 -20 hstemhm
88 128 hintmask 10110000
328 hmoveto
hintmask 11010000
103 195 97 198 87 195 rrcurveto
-126 hlineto
-69 -158 -73 -157 -79 -158 rrcurveto
-14 hlineto
hintmask 10110000
-17 159 -13 161 -8 158 -128 -9 rcurveline
12 -195 20 -194 28 -195 rrcurveto
endchar
                    </CharString>
                    <CharString index="77">
                        -171 121 -87 192 37 vhcurveto
-25 -104 rlineto
return
                    </CharString>
                    <CharString index="78">
                        -15 18 -21 24 -21 24 -21 585 77 callgsubr
-18 647 hintmask 10001100
378 -3 rmoveto
hintmask 00110100
136 6 -138 287 253 298 rlineto
-141 hlineto
-162 -209 rlineto
hintmask 01001100
-98 213 -135 -7 140 -289 -251 -296 rlineto
139 hlineto
161 207 rlineto
endchar
                    </CharString>
                    <CharString index="79">
                        rmoveto
112 58 113 95 27 22 -9 -16 18 vhcurveto
-218 -239 rlineto
-1 12 -1 13 14 vvcurveto
108 -153 rmoveto
-26 -23 8 17 -17 hvcurveto
217 238 rlineto
1 -12 1 -13 -13 vvcurveto
-112 -58 -113 -95 vhcurveto
-33 -105 rmoveto
159 152 169 192 46 -8 40 -16 34 hvcurveto
return
                    </CharString>
                    <CharString index="80">
                        -109 -11 114 388 97 hstem
9 464 vstem
333 48 rmoveto
29 29 14 15 38 198 59 298 rcurveline
-296 hlineto
-20 -97 rlineto
171 hlineto
-43 -217 -26 -127 -5 -15 -15 -14 rlinecurve
-15 -16 -39 -2 -158 3 -18 -114 rcurveline
193 -1 93 21 38 39 rrcurveto
endchar
                    </CharString>
                    <CharString index="81">
                        -30 21 -21 494 101 hstem
431 124 vstem
167 hmoveto
32 166 rlineto
224 29 132 95 132 vvcurveto
121 -117 81 -284 -38 vhcurveto
-114 -586 rlineto
391 401 rmoveto
-75 -71 -62 -140 13 vhcurveto
42 217 rlineto
107 12 62 -40 -65 vvcurveto
endchar
                    </CharString>
                    <CharString index="82">
                        -90 0 98 393 97 return
                    </CharString>
                    <CharString index="83">
                        rmoveto
53 -43 49 -135 26 vhcurveto
17 71 175 -1 26 91 rlineto
-277 hlineto
-50 -227 rlineto
return
                    </CharString>
                    <CharString index="84">
                        77 -65 callgsubr
rlineto
hintmask 10100000
-24 -125 -10 callsubr
hintmask 01100000
-1 callgsubr
hintmask 10100000
-15 -77 rlineto
95 hlineto
hintmask 01100000
15 77 rlineto
endchar
                    </CharString>
                    <CharString index="85">
                        106 -16 114 493 113 hstem
69 127 355 127 vstem
return
                    </CharString>
                    <CharString index="86">
                        111 -23 49 -26 -26 vvcurveto
-25 -44 -24 -171 20 vhcurveto
-13 -96 rlineto
return
                    </CharString>
                    <CharString index="87">
                        41 10 -21 32 -21 32 -21 677 -20 hstemhm
52 644 hintmask 10011000
448 -11 rmoveto
hintmask 00111000
136 22 -187 331 299 346 rlineto
-141 hlineto
-299 -346 rlineto
-71 346 rmoveto
hintmask 01011000
-16 callsubr
127 hlineto
133 688 rlineto
return
                    </CharString>
                    <CharString index="88">
                        rmoveto
107 -20 -47 60 -108 hhcurveto
-130 -99 -91 -95 hvcurveto
-138 228 -62 -76 vvcurveto
-43 -63 -27 -206 54 vhcurveto
hintmask 01111110
-26 -117 rlineto
hintmask 10111110
299 -56 126 101 100 129 -230 65 90 vvcurveto
34 28 31 44 47 29 -27 -63 17 vhcurveto
return
                    </CharString>
                    <CharString index="89">
                        -105 0 104 484 -20 hstem
16.5 67.5 85 callgsubr
36 187 147 70 -3 101 -122 -58 36 184 rlineto
-126 hlineto
-49 -251 -91 -44 3 -101 66 32 -44 -224 rlineto
endchar
                    </CharString>
                    <CharString index="90">
                        -7 callsubr
7 callsubr
4 callsubr
                    </CharString>
                    <CharString index="91">
                        -133 -688 rlineto
return
                    </CharString>
                    <CharString index="92">
                        -46 -189 217 -195 -21 120 96 hstemhm
295 111 hintmask 01110000
185 -163 rmoveto
58 29 27 37 26 hhcurveto
23 10 -32 -89 -5 hvcurveto
111 1 rlineto
hintmask 10010000
148 10 -60 68 -75 hhcurveto
-62 -52 -52 -118 -47 hvcurveto
endchar
                    </CharString>
                    <CharString index="93">
                        -85 callsubr
endchar
                    </CharString>
                    <CharString index="94">
                        -105 0 104 162 150 172 -20 hstem
40 452 vstem
410 hmoveto
-70 callsubr
422 266 rmoveto
30 150 rlineto
-132 hlineto
-30 -150 rlineto
endchar
                    </CharString>
                    <CharString index="95">
                        -84 21 -21 239 91 154 104 hstem
40 488 vstem
424 239 rmoveto
18 91 rlineto
-211 hlineto
30 154 rlineto
248 hlineto
19 104 rlineto
-373 hlineto
-115 -588 73 callgsubr
46 239 rlineto
endchar
                    </CharString>
                    <CharString index="96">
                        rmoveto
-15 61 rlineto
-96 -22 -10 1 20 vvcurveto
return
                    </CharString>
                    <CharString index="97">
                        -61 callsubr
-109 6 rlineto
return
                    </CharString>
                    <CharString index="98">
                        -46 -231 89 163 -21 hstem
115 115 vstem
381 57 rmoveto
-192 -60 -74 -77 -67 1 callgsubr
-39 callsubr
endchar
                    </CharString>
                    <CharString index="99">
                        rmoveto
99 86 -175 204 262 209 -83 100 -250 -224 -32 -154 rlineto
502 -221 25 callsubr
-79 103 -257 -214 -38 -153 rlineto
endchar
                    </CharString>
                    <CharString index="100">
                        -101 63 -52 92 vhcurveto
17 81 28 callgsubr
27 callsubr
hvcurveto
return
                    </CharString>
                    <CharString index="101">
                        -80 callsubr
endchar
                    </CharString>
                    <CharString index="102">
                        rmoveto
274 211 102 164 192 vvcurveto
132 -56 141 -136 179 vhcurveto
-98 -70 rlineto
124 -152 48 -122 -110 vvcurveto
-154 -71 -138 -255 -183 vhcurveto
endchar
                    </CharString>
                    <CharString index="103">
                        rmoveto
-66 callsubr
return
                    </CharString>
                    <CharString index="104">
                        10 -8 100 -71 -21 494 108 return
                    </CharString>
                    <CharString index="105">
                        -20 -130 261 -10 125 55 43 86 rlinecurve
endchar
                    </CharString>
                    <CharString index="106">
                        -244 82 181 -21 22 -21 131 90 return
                    </CharString>
                    <CharString index="107">
                        hstemhm
89 126 191 123 return
                    </CharString>
                    <CharString index="108">
                        -190 -12 114 459 -20 return
                    </CharString>
                    <CharString index="109">
                        0 166.5 -89.5 22 callgsubr
return
                    </CharString>
                    <CharString index="110">
                        -46 690 76 callsubr
103 386 hintmask 01100000
399 87 callsubr
hintmask 10100000
-228 -165 rlineto
hintmask 01100000
56 -66 146 103 rlineto
endchar
                    </CharString>
                    <CharString index="111">
                        -37 -20 -34 -47 vhcurveto
endchar
                    </CharString>
                    <CharString index="112">
                        33 21 -21 688 77 callgsubr
109 589 hintmask 10110000
return
                    </CharString>
                    <CharString index="113">
                        hstem
49 120 234 120 vstem
return
                    </CharString>
                    <CharString index="114">
                        81 45 58 -24 -55 vvcurveto
return
                    </CharString>
                    <CharString index="115">
                        -99 callsubr
-13 -96 rlineto
return
                    </CharString>
                    <CharString index="116">
                        76 callgsubr
260 120 return
                    </CharString>
                    <CharString index="117">
                        78.5 81.5 -20 21 -20 hstemhm
return
                    </CharString>
                    <CharString index="118">
                        -58 0 110.5 334 110.5 return
                    </CharString>
                    <CharString index="119">
                        132 hstem
60 125 182 126 vstem
return
                    </CharString>
                    <CharString index="120">
                        106 76 57 71 hvcurveto
return
                    </CharString>
                    <CharString index="121">
                        hmoveto
-103 callsubr
endchar
                    </CharString>
                    <CharString index="122">
                        594 -38 rmoveto
-13 59 -272 -51 -41 23 -4 102 rlinecurve
223 12 131 77 141 vvcurveto
85 -54 55 -93 -56 -51 -13 -24 -44 vhcurveto
return
                    </CharString>
                    <CharString index="123">
                        -201 137 -100 210 48 vhcurveto
-30 -126 rlineto
return
                    </CharString>
                    <CharString index="124">
                        hstem
53 126 252 120 vstem
return
                    </CharString>
                    <CharString index="125">
                        hstemhm
390 133 -62 136 return
                    </CharString>
                    <CharString index="126">
                        hstem
78 127 vstem
return
                    </CharString>
                    <CharString index="127">
                        -46 643.5 145 hstem
201 188 vstem
341 644 -76 callsubr
endchar
                    </CharString>
                    <CharString index="128">
                        40 callsubr
-37 16 34 vvcurveto
35 return
                    </CharString>
                    <CharString index="129">
                        -52 -65 18 -4 109 return
                    </CharString>
                    <CharString index="130">
                        rmoveto
44 24 -27 -39 -74 -84 -34 -144 -7 hvcurveto
96 18 60 85 82 hhcurveto
-430 -355 rmoveto
-30 -21 26 60 hvcurveto
return
                    </CharString>
                    <CharString index="131">
                        493 -28 callgsubr
return
                    </CharString>
                    <CharString index="132">
                        rmoveto
101 82 -168 211 269 199 return
                    </CharString>
                    <CharString index="133">
                        2 -189 125 92 122 314 105 return
                    </CharString>
                    <CharString index="134">
                        5 0 4 1 5 return
                    </CharString>
                    <CharString index="135">
                        95 -101 45 -183 -29 vhcurveto
-14 -93 rlineto
144 19 43 -23 -41 vvcurveto
-29 callgsubr
-82 vlineto
return
                    </CharString>
                    <CharString index="136">
                        rmoveto
-324 hlineto
-21 -105 rlineto
203 hlineto
-146 -753 rlineto
-203 hlineto
-21 -105 rlineto
324 hlineto
endchar
                    </CharString>
                    <CharString index="137">
                        21 -51 -49 10 -45 hhcurveto
-211 -139 -209 -204 -114 52 -55 65 65 77 56 73 66 hvcurveto
return
                    </CharString>
                    <CharString index="138">
                        rmoveto
170 hlineto
20 104 rlineto
-465 hlineto
-20 -104 rlineto
168 hlineto
-93 -484 73 callgsubr
endchar
                    </CharString>
                    <CharString index="139">
                        vstem
451 hmoveto
-33 callgsubr
return
                    </CharString>
                    <CharString index="140">
                        19 -16 120 -116 114 365 104 0 -20 232 -20 hstemhm
46 121 194 124 return
                    </CharString>
                    <CharString index="141">
                        61 -11 112 -79 -21 587 115 return
                    </CharString>
                    <CharString index="142">
                        -42 0 107 475 106 return
                    </CharString>
                    <CharString index="143">
                        rmoveto
90 73 -158 163 rlineto
hintmask 11101000
-228 -165 rlineto
hintmask 11011000
56 -66 146 103 rlineto
return
                    </CharString>
                    <CharString index="144">
                        -116 -17 115 354 97 hstem
101 124 vstem
return
                    </CharString>
                    <CharString index="145">
                        -10 21 -21 575 113 hstem
105 529 vstem
return
                    </CharString>
                    <CharString index="146">
                        -43 callgsubr
hstem
return
                    </CharString>
                    <CharString index="147">
                        -14 56 callgsubr
return
                    </CharString>
                    <CharString index="148">
                        rmoveto
-51 24 -66 -48 -60 -93 -15 -92 rlinecurve
160 3 -6 60 11 85 27 61 rlinecurve
return
                    </CharString>
                    <CharString index="149">
                        360 0 113 81 97 5 98 181 113 hstemhm
-27 994 hintmask 10111000
return
                    </CharString>
                    <CharString index="150">
                        87 90 -49 callsubr
hstem
return
                    </CharString>
                    <CharString index="151">
                        0 -12 3 -4 5 5 3 4 0 hflex1
return
                    </CharString>
                    <CharString index="152">
                        0 12 9 8 12 12 9 -8 0 hflex1
return
                    </CharString>
                    <CharString index="153">
                        -52 callgsubr
endchar
                    </CharString>
                    <CharString index="154">
                        93 7 -20 273 91 hstemhm
return
                    </CharString>
                    <CharString index="155">
                        90 281 90 hstem
return
                    </CharString>
                    <CharString index="156">
                        787 rmoveto
-192 -987 rlineto
114 hlineto
192 987 rlineto
endchar
                    </CharString>
                    <CharString index="157">
                        -239 93 178 -21 103 91 return
                    </CharString>
                    <CharString index="158">
                        hstem
52 123 200 95 vstem
return
                    </CharString>
                    <CharString index="159">
                        -146 -11 103 560 12 callsubr
return
                    </CharString>
                    <CharString index="160">
                        -172 228 -101 -82 168 -211 -269 -199 rlineto
endchar
                    </CharString>
                    <CharString index="161">
                        72 128 81 hstem
return
                    </CharString>
                    <CharString index="162">
                        97 139 99 vstem
return
                    </CharString>
                    <CharString index="163">
                        230 138 202 199 125 -58 60 -69 -56 -67 -42 return
                    </CharString>
                    <CharString index="164">
                        222 rmoveto
27 160 rlineto
-159 hlineto
-27 -160 rlineto
endchar
                    </CharString>
                    <CharString index="165">
                        -8 -2 -5 -6 -11 hhcurveto
-13 -8 8 12 12 9 9 11 hvcurveto
return
                    </CharString>
                    <CharString index="166">
                        16 callsubr
endchar
                    </CharString>
                    <CharString index="167">
                        -79 -71 -170 -89 vvcurveto
-83 80 -19 174 96 vhcurveto
endchar
                    </CharString>
                    <CharString index="168">
                        hstem
69 127 297 122 vstem
return
                    </CharString>
                    <CharString index="169">
                        91 -9 -20 289 95 hstemhm
return
                    </CharString>
                    <CharString index="170">
                        91 260 95 hstem
return
                    </CharString>
                    <CharString index="171">
                        rmoveto
hintmask 11011100
-30 -39 94 -64 hhcurveto
-54 -66 -65 -83 -48 hvcurveto
return
                    </CharString>
                    <CharString index="172">
                        -34 42 -37 vhcurveto
70 86 rlineto
-32 28 -22 17 17 vvcurveto
52 return
                    </CharString>
                    <CharString index="173">
                        37 39 hhcurveto
36 28 -30 -69 -116 -69 -150 -81 hvcurveto
return
                    </CharString>
                    <CharString index="174">
                        124 -14 117 -102 120 -72 115 hintmask 11001000
return
                    </CharString>
                    <CharString index="175">
                        644 45 callgsubr
return
                    </CharString>
                    <CharString index="176">
                        73 callgsubr
48 249 rlineto
225 hlineto
endchar
                    </CharString>
                    <CharString index="177">
                        rmoveto
-456 hlineto
-23 -112 rlineto
457 hlineto
endchar
                    </CharString>
                    <CharString index="178">
                        56 callgsubr
-36 16 34 vvcurveto
return
                    </CharString>
                    <CharString index="179">
                        hstemhm
43 124 return
                    </CharString>
                    <CharString index="180">
                        422 35 callgsubr
return
                    </CharString>
                    <CharString index="181">
                        -9 3 -3 7 5 3 2 5 1 vhcurveto
7 hlineto
return
                    </CharString>
                    <CharString index="182">
                        hstemhm
81 625 return
                    </CharString>
                    <CharString index="183">
                        -20 22 -20 hstemhm
return
                    </CharString>
                    <CharString index="184">
                        -260 -96 rmoveto
257 214 37 153 return
                    </CharString>
                    <CharString index="185">
                        276 rlineto
7 hlineto
34 -246 rlineto
82 hlineto
return
                    </CharString>
                    <CharString index="186">
                        113 120 113 hstem
64 524 vstem
return
                    </CharString>
                    <CharString index="187">
                        hintmask 100000000000000000000000000000000000000000000000
return
                    </CharString>
                    <CharString index="188">
                        91 16 -20 hstemhm
320 103 return
                    </CharString>
                    <CharString index="189">
                        -132 -685 rlineto
return
                    </CharString>
                    <CharString index="190">
                        102 -8 102 hstemhm
return
                    </CharString>
                    <CharString index="191">
                        81 129 71 return
                    </CharString>
                    <CharString index="192">
                        688 rmoveto
-28 -149 rlineto
159 hlineto
return
                    </CharString>
                    <CharString index="193">
                        163 95 8 -20 hstemhm
338 111 return
                    </CharString>
                    <CharString index="194">
                        619 rmoveto
90 73 -158 163 rlineto
return
                    </CharString>
                    <CharString index="195">
                        38 193 rlineto
return
                    </CharString>
                <CharString name=".notdef">
                    -113 -200 50 900 50 hstem
0 50 400 50 vstem
-200 vmoveto
500 1000 -500 hlineto
71 -50 rmoveto
358 hlineto
-179 -390 rlineto
200 316 rmoveto
-752 vlineto
-172 376 rlineto
-228 -376 rmoveto
752 vlineto
172 -376 rlineto
28 -60 rmoveto
179 -390 rlineto
-358 hlineto
endchar
                </CharString>
                <CharString name="A">
                    -57 callsubr
hstemhm
-8 596 hintmask 10011100
460 -6 -90 callgsubr
                </CharString>
                <CharString name="A.sc">
                    -79 callgsubr
hstemhm
-10 548 hintmask 10011100
410 -4 -101 callgsubr
                </CharString>
                <CharString name="AE">
                    42 callsubr
540 575 -44 callsubr
                </CharString>
                <CharString name="AE.sc">
                    -4 callgsubr
469 485 -85 callgsubr
                </CharString>
                <CharString name="AEacute">
                    42 callsubr
564 815 -107 callgsubr
-24 -240 -44 callsubr
                </CharString>
                <CharString name="AEacute.sc">
                    -4 callgsubr
437 715 -107 callgsubr
32 -230 -85 callgsubr
                </CharString>
                <CharString name="Aacute">
                    -57 callsubr
hstemhm
-8 651 hintmask 00111100
320 815 -107 callgsubr
hintmask 10011100
140 -821 -90 callgsubr
                </CharString>
                <CharString name="Aacute.sc">
                    -79 callgsubr
hstemhm
-10 605 hintmask 00111100
272 715 -107 callgsubr
hintmask 10011100
138 -719 -101 callgsubr
                </CharString>
                <CharString name="Abreve">
                    -57 callsubr
71 105 hstemhm
-8 684 hintmask 00111110
603 968 -105 callgsubr
hintmask 10011110
-216 -928 -82 callsubr
                </CharString>
                <CharString name="Abreve.sc">
                    -79 callgsubr
71 105 hstemhm
-10 638 hintmask 00111110
555 868 -105 callgsubr
hintmask 10011110
-218 -826 -106 callsubr
                </CharString>
                <CharString name="Acircumflex">
                    -57 callsubr
hstemhm
-8 648 hintmask 00111100
550 752 -88 callgsubr
hintmask 10011100
4 -866 -90 callgsubr
                </CharString>
                <CharString name="Acircumflex.sc">
                    -79 callgsubr
hstemhm
-10 602 hintmask 00111100
502 652 -88 callgsubr
hintmask 10011100
2 -764 -101 callgsubr
                </CharString>
                <CharString name="Adieresis">
                    -57 callsubr
-32 callgsubr
hstemhm
-8 667 hintmask 00111110
611 779 -104 callgsubr
hintmask 10011110
211 -781 -82 callsubr
                </CharString>
                <CharString name="Adieresis.sc">
                    -79 callgsubr
-32 callgsubr
hstemhm
-10 621 hintmask 00111110
563 679 -104 callgsubr
hintmask 10011110
209 -679 -106 callsubr
                </CharString>
                <CharString name="Agrave">
                    -57 callsubr
hstemhm
-8 596 hintmask 00111100
548 808 -100 callsubr
hintmask 10011100
-59 -758 -90 callgsubr
                </CharString>
                <CharString name="Agrave.sc">
                    -79 callgsubr
120 -20 hstemhm
-10 548 hintmask 00111110
501 708 -100 callsubr
hintmask 10011110
-62 -656 -106 callsubr
                </CharString>
                <CharString name="Amacron">
                    -57 callsubr
104 112 hstemhm
-8 651 hintmask 00111110
643 904 -76 callgsubr
hintmask 10011110
-161 -798 -82 callsubr
                </CharString>
                <CharString name="Amacron.sc">
                    -79 callgsubr
104 112 hstemhm
-10 605 hintmask 00111110
595 804 -76 callgsubr
hintmask 10011110
-163 -696 -106 callsubr
                </CharString>
                <CharString name="Aogonek">
                    66 -225 89 142 20 -5 -21 194 97 281 116 hstemhm
290 115 hintmask 11011100
555 -173 rmoveto
21 callsubr
52 42 129 30 vhcurveto
2 hlineto
-23 228 -25 226 -31 228 rrcurveto
-174 hlineto
hintmask 10111100
-120 -228 -115 -231 -108 -229 rrcurveto
128 hlineto
30 64 31 65 31 65 rrcurveto
231 hlineto
hintmask 11011100
6 -56 4 -56 5 -56 rrcurveto
-120 -52 -48 -61 -54 1 callgsubr
-157 745 rmoveto
6 hlineto
11 -93 10 -94 9 -94 rrcurveto
-175 hlineto
46 94 46 94 47 93 rrcurveto
endchar
                </CharString>
                <CharString name="Aogonek.sc">
                    -67 callsubr
                </CharString>
                <CharString name="Aring">
                    -57 callsubr
59 228 hstemhm
-8 596 hintmask 00111110
470 975 -79 callsubr
hintmask 10011110
-10 -981 -82 callsubr
                </CharString>
                <CharString name="Aring.sc">
                    -79 callgsubr
59 228 hstemhm
-10 550 hintmask 00111110
422 875 -79 callsubr
hintmask 10011110
-12 -879 -106 callsubr
                </CharString>
                <CharString name="Aringacute">
                    -57 callsubr
hstemhm
-8 701 hintmask 00111100
370 1073 -107 callgsubr
100 -98 -79 callsubr
hintmask 10011100
-10 -981 -90 callgsubr
                </CharString>
                <CharString name="Aringacute.sc">
                    -79 callgsubr
hstemhm
-10 655 hintmask 00111100
322 973 -107 callgsubr
100 -98 -79 callsubr
hintmask 10011100
-12 -879 -101 callgsubr
                </CharString>
                <CharString name="Atilde">
                    -57 callsubr
77 83 callsubr
-8 683 hintmask 00111101
539 867 rmoveto
hintmask 00111011
-78 callsubr
hintmask 00111101
-81 callsubr
hintmask 10011101
-79 -873 rmoveto
hintmask 00111101
128 12 -23 228 -25 226 -31 228 rlinecurve
-174 hlineto
hintmask 01011101
-120 -228 -115 -231 -108 -229 rrcurveto
128 hlineto
30 64 31 65 31 65 rrcurveto
231 hlineto
hintmask 10011101
7 -67 5 -67 5 -66 rrcurveto
hintmask 00111101
-62 578 rmoveto
6 hlineto
11 -93 10 -94 9 -94 rrcurveto
-175 hlineto
46 94 46 94 47 93 rrcurveto
endchar
                </CharString>
                <CharString name="Atilde.sc">
                    -79 callgsubr
77 83 callsubr
-10 638 hintmask 00111101
492 767 rmoveto
hintmask 00111011
-78 callsubr
hintmask 00111101
-81 callsubr
hintmask 10011101
-82 -771 rmoveto
hintmask 00111101
128 8 -21 197 -25 193 -28 194 rlinecurve
-174 hlineto
hintmask 01011101
-105 -195 -100 -198 -95 -195 rrcurveto
129 hlineto
24 52 25 53 26 52 rrcurveto
202 hlineto
hintmask 10011101
5 -54 5 -54 4 -53 rrcurveto
hintmask 00111101
-55 486 rmoveto
6 hlineto
9 -78 9 -79 8 -79 rrcurveto
-150 hlineto
39 79 40 79 39 78 rrcurveto
endchar
                </CharString>
                <CharString name="B">
                    31 -10 107 -76 -21 586 110 hstemhm
441 127 -94 125 hintmask 10110000
568 218 rmoveto
66 -42 52 -69 22 vhcurveto
hintmask 01101000
89 40 53 64 74 vvcurveto
112 -119 81 -296 -46 vhcurveto
-132 -683 rlineto
hintmask 10110000
366 -47 150 130 135 vvcurveto
hintmask 10101000
-94 287 rmoveto
-60 -70 -56 -153 -14 vhcurveto
41 211 rlineto
117 11 65 -34 -58 vvcurveto
hintmask 10110000
-33 -300 rmoveto
-71 -83 -53 -159 21 vhcurveto
38 198 rlineto
139 13 65 -42 -66 vvcurveto
endchar
                </CharString>
                <CharString name="B.sc">
                    -59 callsubr
                </CharString>
                <CharString name="C">
                    21 callgsubr
440 703 -75 callgsubr
                </CharString>
                <CharString name="C.sc">
                    -36 callsubr
387 602 -95 callsubr
                </CharString>
                <CharString name="Cacute">
                    21 callgsubr
328 830 -107 callgsubr
112 -127 -75 callgsubr
                </CharString>
                <CharString name="Cacute.sc">
                    -36 callsubr
284 729 -107 callgsubr
103 -127 -95 callsubr
                </CharString>
                <CharString name="Ccaron">
                    21 callgsubr
442 762 -94 callgsubr
156 -222 -75 callgsubr
                </CharString>
                <CharString name="Ccaron.sc">
                    -36 callsubr
399 661 -94 callgsubr
146 -222 -95 callsubr
                </CharString>
                <CharString name="Ccedilla">
                    37 -175 -21 120 179 -114 114 -83 -21 589 115 hstemhm
69 127 119 111 67 122 hintmask 10101111
426 -196 rmoveto
6 91 -20 61 -34 33 50 5 55 12 59 21 11 113 rcurveline
-250 -82 -107 55 169 vvcurveto
140 73 166 135 72 14 -45 -112 3 vhcurveto
122 2 rlineto
180 2 -40 90 -137 hhcurveto
-198 -173 -213 -235 hvcurveto
hintmask 10011111
-137 61 -88 108 -31 vhcurveto
hintmask 11001111
-36 -25 -32 -49 -30 -75 -51 callsubr
                </CharString>
                <CharString name="Ccedilla.sc">
                    -64 callgsubr
                </CharString>
                <CharString name="Cdotaccent">
                    37 -13 116 485 115 88.5 145 61 callsubr
507 792 -76 callsubr
73 -88 -75 callgsubr
                </CharString>
                <CharString name="Cdotaccent.sc">
                    -18 -12 108 398 108 88.5 145 17 callsubr
464 691 -76 callsubr
63 -88 -95 callsubr
                </CharString>
                <CharString name="D">
                    52 callgsubr
644 422 -14 callgsubr
                </CharString>
                <CharString name="D.sc">
                    -34 callsubr
                </CharString>
                <CharString name="Dcaron">
                    52 callgsubr
424 756 -94 callgsubr
378 -497 -14 callgsubr
                </CharString>
                <CharString name="Dcaron.sc">
                    16 -6 103 -76 -21 494 101 187 -20 hstemhm
456 126 hintmask 10111000
370 654 -94 callgsubr
370 -460 rmoveto
188 -161 80 -267 -40 vhcurveto
hintmask 01111000
-114 -585 rlineto
hintmask 10111000
-53 callsubr
                </CharString>
                <CharString name="Dcroat">
                    -51 callgsubr
                </CharString>
                <CharString name="Dcroat.sc">
                    -87 callgsubr
                </CharString>
                <CharString name="E">
                    -33 callsubr
hstem
52 538 vstem
484 113 -89 callgsubr
                </CharString>
                <CharString name="E.sc">
                    -63 callgsubr
hstem
40 489 vstem
441 103 -103 callgsubr
                </CharString>
                <CharString name="Eacute">
                    -33 callsubr
hstem
52 551 vstem
280 815 -107 callgsubr
204 -702 -89 callgsubr
                </CharString>
                <CharString name="Eacute.sc">
                    -63 callgsubr
hstem
40 520 vstem
237 715 -107 callgsubr
204 -612 -103 callgsubr
                </CharString>
                <CharString name="Ebreve">
                    -33 callsubr
71 105 hstem
52 585 vstem
564 968 -105 callgsubr
-153 -809 -89 callgsubr
                </CharString>
                <CharString name="Ebreve.sc">
                    -63 callgsubr
71 105 hstem
40 554 vstem
521 868 -105 callgsubr
-153 -719 -103 callgsubr
                </CharString>
                <CharString name="Ecaron">
                    -33 callsubr
hstem
52 571 vstem
395 747 -94 callgsubr
247 -797 -89 callgsubr
                </CharString>
                <CharString name="Ecaron.sc">
                    -63 callgsubr
187 -20 hstem
40 540 vstem
352 647 -94 callgsubr
247 -707 -103 callgsubr
                </CharString>
                <CharString name="Ecircumflex">
                    -33 callsubr
hstem
52 548 vstem
510 752 -88 callgsubr
68 -747 -89 callgsubr
                </CharString>
                <CharString name="Ecircumflex.sc">
                    -63 callgsubr
hstem
40 517 vstem
467 652 -88 callgsubr
68 -657 -103 callgsubr
                </CharString>
                <CharString name="Edieresis">
                    -33 callsubr
-9 callgsubr
52 567 vstem
571 779 -104 callgsubr
275 -662 -89 callgsubr
                </CharString>
                <CharString name="Edieresis.sc">
                    -63 callgsubr
-9 callgsubr
40 536 vstem
528 679 -104 callgsubr
275 -572 -103 callgsubr
                </CharString>
                <CharString name="Edotaccent">
                    -33 callsubr
-31 callgsubr
52 538 vstem
460 777 -76 callsubr
164 -663 -89 callgsubr
                </CharString>
                <CharString name="Edotaccent.sc">
                    -63 callgsubr
-31 callgsubr
40 489 vstem
417 677 -76 callsubr
164 -573 -103 callgsubr
                </CharString>
                <CharString name="Egrave">
                    -33 callsubr
hstem
52 538 vstem
509 808 -100 callsubr
4 -639 -89 callgsubr
                </CharString>
                <CharString name="Egrave.sc">
                    -63 callgsubr
120 -20 hstem
40 489 vstem
466 708 -100 callsubr
4 -549 -103 callgsubr
                </CharString>
                <CharString name="Emacron">
                    -33 callsubr
88 callgsubr
52 551 vstem
603 904 -76 callgsubr
-97 -679 -89 callgsubr
                </CharString>
                <CharString name="Emacron.sc">
                    -63 callgsubr
88 callgsubr
40 520 vstem
560 804 -76 callgsubr
-97 -589 -103 callgsubr
                </CharString>
                <CharString name="Eogonek">
                    -17 -231 89 142 113 183 98 181 113 hstem
154 115 vstem
419 -179 rmoveto
-39 callsubr
33 113 rlineto
-283 hlineto
35 183 rlineto
238 hlineto
20 98 rlineto
-239 hlineto
35 181 rlineto
278 hlineto
22 113 rlineto
-405 12 callgsubr
227 hlineto
-88 -48 -37 -52 -47 1 callgsubr
endchar
                </CharString>
                <CharString name="Eogonek.sc">
                    -48 callgsubr
                </CharString>
                <CharString name="Eth">
                    -51 callgsubr
                </CharString>
                <CharString name="Eth.sc">
                    -87 callgsubr
                </CharString>
                <CharString name="Euro">
                    11 -13 109 86 111 -97 100 66 100 131 111 hstemhm
45 594 -508 116 hintmask 10111100
554 47 rmoveto
-14 72 -189 -47 -76 27 -22 97 rlinecurve
212 hlineto
25 100 rlineto
hintmask 10111010
-243 hlineto
1 22 3 22 5 22 rrcurveto
249 hlineto
26 100 rlineto
-241 hlineto
74 35 53 57 65 hhcurveto
46 19 -25 -54 12 hvcurveto
119 20 rlineto
118 -14 -51 52 -93 hhcurveto
-123 -116 -95 -136 -63 hvcurveto
-80 hlineto
-22 -111 rlineto
65 hlineto
hintmask 11011010
-5 -22 -4 -24 -2 -23 rrcurveto
-64 hlineto
-22 -111 rlineto
88 hlineto
hintmask 10111100
25 -167 129 -99 267 131 rrcurveto
endchar
                </CharString>
                <CharString name="F">
                    -39 21 -21 286 98 191 113 hstem
52 537 vstem
472 286 rmoveto
19 98 rlineto
-238 hlineto
37 191 rlineto
278 hlineto
21 113 rlineto
-404 12 callgsubr
126 hlineto
56 286 rlineto
endchar
                </CharString>
                <CharString name="F.sc">
                    -12 callsubr
                </CharString>
                <CharString name="G">
                    34 callsubr
51 callgsubr
hintmask 10111000
506 -123 -72 callgsubr
hintmask 01111000
59 callsubr
                </CharString>
                <CharString name="G.sc">
                    -3 callsubr
9 callsubr
hintmask 10111000
459 -103 -93 callgsubr
hintmask 01111000
15 callgsubr
                </CharString>
                <CharString name="Gbreve">
                    34 callsubr
71 105 51 callgsubr
hintmask 10111100
621 983 -105 callgsubr
-188 -1060 -72 callgsubr
hintmask 01111100
59 callsubr
                </CharString>
                <CharString name="Gbreve.sc">
                    -3 callsubr
71 105 9 callsubr
hintmask 10111100
568 882 -105 callgsubr
-182 -939 -93 callgsubr
hintmask 01111100
15 callgsubr
                </CharString>
                <CharString name="Gcommaaccent">
                    34 callsubr
51 callgsubr
hintmask 10111000
506 -123 -72 callgsubr
hintmask 01111000
16 callsubr
-224 -240 -102 callsubr
                </CharString>
                <CharString name="Gcommaaccent.sc">
                    -3 callsubr
9 callsubr
hintmask 10111000
459 -103 -93 callgsubr
hintmask 01111000
-30 callsubr
-209 -244 -102 callsubr
                </CharString>
                <CharString name="Gdotaccent">
                    34 callsubr
-35 callgsubr
51 callgsubr
hintmask 10111100
518 792 -76 callsubr
128 -914 -72 callgsubr
hintmask 01111100
59 callsubr
                </CharString>
                <CharString name="Gdotaccent.sc">
                    -3 callsubr
-35 callgsubr
9 callsubr
hintmask 10111100
464 691 -76 callsubr
135 -793 -93 callgsubr
hintmask 01111100
15 callgsubr
                </CharString>
                <CharString name="H">
                    113 21 -21 296 99 293 -20 hstem
52 649 vstem
440 hmoveto
128 hlineto
133 688 rlineto
-128 hlineto
-57 -293 rlineto
-261 hlineto
57 293 18 callgsubr
127 hlineto
57 296 rlineto
261 hlineto
endchar
                </CharString>
                <CharString name="H.sc">
                    -17 callgsubr
                </CharString>
                <CharString name="Hbar">
                    157 21 -21 275 99 101 101 -95 90 -90 207 hstemhm
76 697 hintmask 11010100
537 374 rmoveto
-261 hlineto
21 107 rlineto
261 hlineto
-94 -481 rmoveto
128 hlineto
hintmask 11100100
92 475 rlineto
69 hlineto
20 101 rlineto
-70 hlineto
hintmask 11001100
22 112 rlineto
-127 hlineto
hintmask 11010100
-23 -117 rlineto
-261 hlineto
hintmask 11001100
23 117 rlineto
-128 hlineto
hintmask 11100100
-22 -112 rlineto
-68 hlineto
-20 -101 rlineto
69 hlineto
-92 -475 rlineto
128 hlineto
53 275 rlineto
261 hlineto
endchar
                </CharString>
                <CharString name="Hbar.sc">
                    -54 callgsubr
                </CharString>
                <CharString name="I">
                    35 callsubr
hstem
27 538 vstem
315 107 -82 callgsubr
                </CharString>
                <CharString name="I.sc">
                    -25 callsubr
hstem
17 491 vstem
288 98 -102 callgsubr
                </CharString>
                <CharString name="Iacute">
                    35 callsubr
hstem
27 560 vstem
264 815 -107 callgsubr
51 -708 -82 callgsubr
                </CharString>
                <CharString name="Iacute.sc">
                    -25 callsubr
hstem
17 527 vstem
221 715 -107 callgsubr
67 -617 -102 callgsubr
                </CharString>
                <CharString name="Ibreve">
                    35 callsubr
71 105 hstem
27 593 vstem
547 968 -105 callgsubr
-305 -815 -82 callgsubr
                </CharString>
                <CharString name="Ibreve.sc">
                    -25 callsubr
71 105 hstem
17 560 vstem
504 868 -105 callgsubr
-289 -724 -102 callgsubr
                </CharString>
                <CharString name="Icircumflex">
                    35 callsubr
hstem
27 557 vstem
494 752 -88 callgsubr
-85 -753 -82 callgsubr
                </CharString>
                <CharString name="Icircumflex.sc">
                    -25 callsubr
hstem
17 524 vstem
451 652 -88 callgsubr
-69 -662 -102 callgsubr
                </CharString>
                <CharString name="Idieresis">
                    35 callsubr
-9 callgsubr
27 576 vstem
555 779 -104 callgsubr
122 -668 -82 callgsubr
                </CharString>
                <CharString name="Idieresis.sc">
                    -25 callsubr
-9 callgsubr
17 543 vstem
512 679 -104 callgsubr
138 -577 -102 callgsubr
                </CharString>
                <CharString name="Idotaccent">
                    35 callsubr
-31 callgsubr
27 538 vstem
444 777 -76 callsubr
11 -669 -82 callgsubr
                </CharString>
                <CharString name="Idotaccent.sc">
                    -25 callsubr
-31 callgsubr
17 491 vstem
401 677 -76 callsubr
27 -578 -102 callgsubr
                </CharString>
                <CharString name="Igrave">
                    35 callsubr
hstem
27 538 vstem
493 808 -100 callsubr
-149 -645 -82 callgsubr
                </CharString>
                <CharString name="Igrave.sc">
                    -25 callsubr
120 -20 hstem
17 491 vstem
450 708 -100 callsubr
-133 -554 -102 callgsubr
                </CharString>
                <CharString name="Imacron">
                    35 callsubr
88 callgsubr
27 560 vstem
587 904 -76 callgsubr
-250 -685 -82 callgsubr
                </CharString>
                <CharString name="Imacron.sc">
                    -25 callsubr
88 callgsubr
17 527 vstem
544 804 -76 callgsubr
-234 -594 -102 callgsubr
                </CharString>
                <CharString name="Iogonek">
                    -42 -231 89 142 107 475 106 hstem
64 115 vstem
329 -179 rmoveto
21 callsubr
39 40 91 32 vhcurveto
123 hlineto
27 107 rlineto
-144 hlineto
92 475 rlineto
137 hlineto
21 106 84 callgsubr
-21 -106 rlineto
140 hlineto
-92 -475 rlineto
-139 hlineto
-21 -107 rlineto
141 hlineto
-73 -48 -31 -51 -48 1 callgsubr
endchar
                </CharString>
                <CharString name="Iogonek.sc">
                    -41 callgsubr
                </CharString>
                <CharString name="J">
                    -65 -13 125 470 106 hstem
16 513 vstem
16 -13 rmoveto
205 106 24 43 43 hvcurveto
32 33 12 18 46 234 69 349 rcurveline
-318 hlineto
-22 -106 rlineto
192 hlineto
-53 -265 -30 -153 -7 -19 -15 -15 rlinecurve
-19 -19 -45 -2 -177 3 rrcurveto
endchar
                </CharString>
                <CharString name="J.sc">
                    -27 callsubr
                </CharString>
                <CharString name="K">
                    -20 callsubr
endchar
                </CharString>
                <CharString name="K.sc">
                    -74 callgsubr
endchar
                </CharString>
                <CharString name="Kcommaaccent">
                    -20 callsubr
-142 -986 -102 callsubr
                </CharString>
                <CharString name="Kcommaaccent.sc">
                    -74 callgsubr
-139 -884 -102 callsubr
                </CharString>
                <CharString name="L">
                    48 callgsubr
hstem
52 421 32 callsubr
endchar
                </CharString>
                <CharString name="L.sc">
                    -105 0 104 484 -20 hstem
40 390 vstem
410 hmoveto
-11 callgsubr
                </CharString>
                <CharString name="Lacute">
                    48 callgsubr
hstem
52 551 vstem
280 815 -107 callgsubr
171 -815 rmoveto
-33 callgsubr
endchar
                </CharString>
                <CharString name="Lacute.sc">
                    -19 callgsubr
                </CharString>
                <CharString name="Lcaron">
                    48 callgsubr
109 -20 27 -20 hstemhm
52 533 hintmask 11101000
445 777 rmoveto
-2 -89 -10 -80 -25 -86 52 -23 rcurveline
hintmask 11011000
65 84 45 83 15 118 rrcurveto
-134 -784 rmoveto
-33 callgsubr
endchar
                </CharString>
                <CharString name="Lcaron.sc">
                    -15 callgsubr
                </CharString>
                <CharString name="Lcommaaccent">
                    48 callgsubr
hstem
52 421 32 callsubr
71 -287 -102 callsubr
                </CharString>
                <CharString name="Lcommaaccent.sc">
                    -105 0 104 484 -20 hstem
40 390 vstem
410 hmoveto
-70 callsubr
53 -287 -102 callsubr
                </CharString>
                <CharString name="Ldot">
                    -58 0 113 153 150 272 -20 hstem
52 482 32 callsubr
452 266 rmoveto
30 150 rlineto
-132 hlineto
-30 -150 rlineto
endchar
                </CharString>
                <CharString name="Ldot.sc">
                    -13 callsubr
                </CharString>
                <CharString name="Lslash">
                    48 callgsubr
hstem
38 435 vstem
451 hmoveto
36 callgsubr
-272 hlineto
45 232 160 77 -5 101 -133 -64 44 229 rlineto
-127 hlineto
-57 -296 -90 -43 5 -101 63 30 -54 -278 rlineto
endchar
                </CharString>
                <CharString name="Lslash.sc">
                    -18 callsubr
                </CharString>
                <CharString name="M">
                    243 21 -21 527 161 -160 165 0 -20 hstemhm
52 779 hintmask 10011000
363 693 rmoveto
-179 -9 -132 -684 rlineto
117 hlineto
hintmask 10101000
92 528 rlineto
9 hlineto
60 -477 97 1 rlineto
hintmask 11001000
245 475 rlineto
9 hlineto
-111 -527 rlineto
128 hlineto
133 688 rlineto
-185 hlineto
-227 -443 rlineto
-3 hlineto
endchar
                </CharString>
                <CharString name="M.sc">
                    -35 callsubr
                </CharString>
                <CharString name="N">
                    -7 callgsubr
441 hmoveto
-66 callgsubr
endchar
                </CharString>
                <CharString name="N.sc">
                    -62 callgsubr
hstemhm
40 599 hintmask 01001100
393 hmoveto
-6 callsubr
                </CharString>
                <CharString name="NUL">
                    -613 endchar
                </CharString>
                <CharString name="Nacute">
                    -7 callgsubr
353 819 -107 callgsubr
88 -819 rmoveto
-66 callgsubr
endchar
                </CharString>
                <CharString name="Nacute.sc">
                    -48 callsubr
                </CharString>
                <CharString name="Ncaron">
                    -7 callgsubr
467 751 -94 callgsubr
132 -914 rmoveto
-66 callgsubr
endchar
                </CharString>
                <CharString name="Ncaron.sc">
                    -45 callgsubr
                </CharString>
                <CharString name="Ncommaaccent">
                    -7 callgsubr
441 hmoveto
-66 callgsubr
-81 -803 -102 callsubr
                </CharString>
                <CharString name="Ncommaaccent.sc">
                    -62 callgsubr
hstemhm
40 599 hintmask 01001100
393 hmoveto
-80 callsubr
-90 -710 -102 callsubr
                </CharString>
                <CharString name="Ntilde">
                    122 21 -21 516 176 -4 -20 24 -20 97 83 callsubr
52 658 hintmask 10011010
572 871 rmoveto
hintmask 10010110
-78 callsubr
hintmask 10011010
-81 callsubr
-131 -871 rmoveto
136 hlineto
hintmask 10101010
133 688 rlineto
-117 hlineto
-89 -475 rlineto
-8 hlineto
hintmask 10011010
-155 479 -157 -8 -132 -684 rlineto
116 hlineto
hintmask 11001010
97 516 rlineto
10 hlineto
endchar
                </CharString>
                <CharString name="Ntilde.sc">
                    -65 callsubr
                </CharString>
                <CharString name="O">
                    -22 callsubr
439 704 -100 callgsubr
                </CharString>
                <CharString name="O.sc">
                    -61 callgsubr
381 602 -107 callsubr
                </CharString>
                <CharString name="OE">
                    323 0 113 183 98 181 113 hstem
67 127 vstem
194 300 rmoveto
164 115 109 199 2 vhcurveto
-88 -462 rlineto
-163 3 -63 69 115 vvcurveto
630 -187 rmoveto
-277 hlineto
36 183 rlineto
231 hlineto
20 98 rlineto
-232 hlineto
35 181 rlineto
270 hlineto
23 113 rlineto
-317 hlineto
-371 -175 -176 -225 -193 135 -94 241 hvcurveto
348 hlineto
endchar
                </CharString>
                <CharString name="OE.sc">
                    -45 callsubr
                </CharString>
                <CharString name="Oacute">
                    -22 callsubr
339 831 -107 callgsubr
100 -127 -100 callgsubr
                </CharString>
                <CharString name="Oacute.sc">
                    -61 callgsubr
289 729 -107 callgsubr
92 -127 -107 callsubr
                </CharString>
                <CharString name="Obreve">
                    106 -16 114 493 113 71 105 hstem
69 127 355 127 vstem
622 984 -105 callgsubr
-256 -234 -100 callgsubr
                </CharString>
                <CharString name="Obreve.sc">
                    38 -13 105 404 106 71 105 hstem
53 126 299 126 vstem
572 882 -105 callgsubr
-264 -234 -107 callsubr
                </CharString>
                <CharString name="Ocircumflex">
                    -22 callsubr
569 768 -88 callgsubr
-36 -172 -100 callgsubr
                </CharString>
                <CharString name="Ocircumflex.sc">
                    -61 callgsubr
519 666 -88 callgsubr
-44 -172 -107 callsubr
                </CharString>
                <CharString name="Odieresis">
                    106 -16 114 493 113 -9 callgsubr
69 127 355 127 vstem
630 795 -104 callgsubr
171 -87 -100 callgsubr
                </CharString>
                <CharString name="Odieresis.sc">
                    38 -13 105 404 106 -9 callgsubr
53 126 299 126 vstem
580 693 -104 callgsubr
163 -87 -107 callsubr
                </CharString>
                <CharString name="Ograve">
                    -22 callsubr
568 824 -100 callsubr
-100 -64 -100 callgsubr
                </CharString>
                <CharString name="Ograve.sc">
                    -61 callgsubr
518 722 -100 callsubr
-108 -64 -107 callsubr
                </CharString>
                <CharString name="Ohungarumlaut">
                    -22 callsubr
325 777 -86 callgsubr
7 callgsubr
-40 -120 -100 callgsubr
                </CharString>
                <CharString name="Ohungarumlaut.sc">
                    -61 callgsubr
275 675 -86 callgsubr
7 callgsubr
-48 -120 -107 callsubr
                </CharString>
                <CharString name="Omacron">
                    106 -16 114 493 113 88 callgsubr
69 127 355 127 vstem
662 920 -76 callgsubr
-201 -104 -100 callgsubr
                </CharString>
                <CharString name="Omacron.sc">
                    38 -13 105 404 106 88 callgsubr
53 126 299 126 vstem
612 818 -76 callgsubr
-209 -104 -107 callsubr
                </CharString>
                <CharString name="Omega">
                    96 0 113 -85 -21 577 120 hstemhm
125 112 286 123 hintmask 10111000
271 7 rmoveto
-24 114 -10 119 79 vvcurveto
185 66 80 96 73 51 -48 -92 vhcurveto
hintmask 01111000
-95 -59 -154 -113 -188 vhcurveto
4 -7 rlineto
hintmask 10111000
239 hlineto
23 113 rlineto
-111 hlineto
85 126 55 132 106 vvcurveto
140 -93 87 -137 -158 -133 -116 -224 -81 17 -90 24 -80 vhcurveto
-127 41 callgsubr
251 hlineto
endchar
                </CharString>
                <CharString name="Oslash">
                    38 callgsubr
194 285 -63 callsubr
                </CharString>
                <CharString name="Oslash.sc">
                    38 -13 105 404 106 -37 -20 76 callgsubr
299 126 hintmask 11011000
179 245 -94 callsubr
                </CharString>
                <CharString name="Oslashacute">
                    38 callgsubr
339 831 -107 callgsubr
-145 -546 -63 callsubr
                </CharString>
                <CharString name="Oslashacute.sc">
                    38 -13 105 404 106 -37 -20 76 callgsubr
299 126 hintmask 11011000
278 729 -107 callgsubr
-99 -484 -94 callsubr
                </CharString>
                <CharString name="Otilde">
                    106 -16 114 493 113 77 83 callsubr
69 127 355 127 hintmask 11101100
558 883 rmoveto
hintmask 11011100
-78 callsubr
hintmask 11101100
-81 callsubr
-119 -179 -100 callgsubr
                </CharString>
                <CharString name="Otilde.sc">
                    38 -13 105 404 106 77 102 -8 102 76 callgsubr
299 126 hintmask 11101100
508 781 64 callsubr
hintmask 11101100
60 -37 rlineto
54 35 25 29 16 -81 callsubr
-127 -179 -107 callsubr
                </CharString>
                <CharString name="P">
                    13 21 -21 590 106 hstem
488 125 vstem
179 hmoveto
38 200 rlineto
248 32 148 111 157 vvcurveto
135 -124 94 -305 -44 vhcurveto
82 callsubr
436 476 rmoveto
-94 -84 -76 -163 17 vhcurveto
51 264 rlineto
125 15 71 -49 -77 vvcurveto
endchar
                </CharString>
                <CharString name="P.sc">
                    -26 callsubr
                </CharString>
                <CharString name="Q">
                    85 10 -21 604 111 hstem
81 128 323 131 vstem
517 -175 rmoveto
54 115 -226 102 rlineto
190 92 128 155 166 vvcurveto
137 -80 112 -160 -246 -178 -286 -278 120 vhcurveto
109 43 rlineto
280 -59 86 130 134 hhcurveto
89 54 -60 -95 -151 -137 -140 -193 -64 hvcurveto
-36 -94 rlineto
endchar
                </CharString>
                <CharString name="Q.sc">
                    -38 callsubr
                </CharString>
                <CharString name="R">
                    3 callgsubr
hintmask 10011000
441 -11 -74 callsubr
endchar
                </CharString>
                <CharString name="R.sc">
                    -7 11 -21 31 -21 31 -21 483 102 hstemhm
422 129 hintmask 10011000
392 -10 -14 callsubr
                </CharString>
                <CharString name="R_p">
                    460 -173 -21 178 103 -78 -21 22 -21 32 -21 455 117 -13 -20 33 -20 36 107 hstemhm
434 130 360 120 hintmask 1010000011100000
29 callgsubr
hintmask 1000100011100000
24 callgsubr
hintmask 1100010011100000
536 -220 rmoveto
-18 -33 6 12 -35 hvcurveto
54 275 rlineto
42 41 47 33 31 hhcurveto
33 24 -32 -69 -118 -68 -149 -76 hvcurveto
-142 -270 rmoveto
hintmask 1001000011100000
33 172 rlineto
hintmask 1100000111100000
-3 17 17 -2 15 hhcurveto
198 126 204 199 125 -65 60 -62 -49 -58 -43 -54 -52 hvcurveto
hintmask 1100001011100000
13 84 -120 -8 -20 -164 -46 -224 -67 -357 rlinecurve
endchar
                </CharString>
                <CharString name="Racute">
                    3 callgsubr
hintmask 00111000
296 823 -107 callgsubr
hintmask 10011000
145 -834 -74 callsubr
endchar
                </CharString>
                <CharString name="Racute.sc">
                    -54 callsubr
                </CharString>
                <CharString name="Rcaron">
                    3 callgsubr
hintmask 00111000
411 755 -94 callgsubr
hintmask 10011000
188 -929 -74 callsubr
endchar
                </CharString>
                <CharString name="Rcaron.sc">
                    -50 callgsubr
                </CharString>
                <CharString name="Rcommaaccent">
                    3 callgsubr
hintmask 10011000
441 -11 -74 callsubr
-116 -605 -102 callsubr
                </CharString>
                <CharString name="Rcommaaccent.sc">
                    -7 11 -21 31 -21 31 -21 483 102 hstemhm
422 129 hintmask 10011000
392 -10 -85 callsubr
-105 -562 -102 callsubr
                </CharString>
                <CharString name="S">
                    -16 callgsubr
552 511 -77 callgsubr
endchar
                </CharString>
                <CharString name="S.sc">
                    -37 callsubr
endchar
                </CharString>
                <CharString name="Sacute">
                    -16 callgsubr
277 829 -107 callgsubr
275 -318 -77 callgsubr
endchar
                </CharString>
                <CharString name="Sacute.sc">
                    -55 callgsubr
223 726 -107 callgsubr
280 -294 -97 callsubr
endchar
                </CharString>
                <CharString name="Scaron">
                    -16 callgsubr
392 761 -94 callgsubr
318 -413 -77 callgsubr
endchar
                </CharString>
                <CharString name="Scaron.sc">
                    -55 callgsubr
337 658 -94 callgsubr
324 -389 -97 callsubr
endchar
                </CharString>
                <CharString name="Scedilla">
                    -37 -175 -21 120 175 -108 108 -103 103 -69 -21 584 109 hstemhm
115 129 3 111 12 130 hintmask 1100010110000000
247 -197 rmoveto
111 1 rlineto
hintmask 1001010110000000
7 98 -25 63 -39 31 rrcurveto
hintmask 1001011010000000
137 24 62 78 77 150 -256 71 113 vvcurveto
45 35 39 52 55 33 -34 -75 19 vhcurveto
114 27 rlineto
122 -21 -49 69 -115 hhcurveto
-141 -111 -108 -111 hvcurveto
hintmask 1010011010000000
-161 255 -66 -98 vvcurveto
-53 -71 -36 -233 66 vhcurveto
hintmask 1000111010000000
-31 -126 rlineto
hintmask 1010011010000000
45 -9 41 -6 38 -3 rrcurveto
hintmask 1100010110000000
-31 -27 -29 -46 -27 -68 -51 callsubr
                </CharString>
                <CharString name="Scedilla.sc">
                    -71 callgsubr
                </CharString>
                <CharString name="Scommaaccent">
                    -16 callgsubr
552 511 -77 callgsubr
-341 -782 -102 callsubr
                </CharString>
                <CharString name="Scommaaccent.sc">
                    -56 callsubr
                </CharString>
                <CharString name="T">
                    38 callsubr
422 575 -8 callgsubr
endchar
                </CharString>
                <CharString name="T.sc">
                    -57 callgsubr
endchar
                </CharString>
                <CharString name="Tcaron">
                    38 callsubr
393 747 -94 callgsubr
187 -335 -8 callgsubr
endchar
                </CharString>
                <CharString name="Tcaron.sc">
                    -22 callgsubr
                </CharString>
                <CharString name="Tcommaaccent">
                    38 callsubr
422 575 -8 callgsubr
-191 -287 -102 callsubr
                </CharString>
                <CharString name="Tcommaaccent.sc">
                    -57 callgsubr
-190 -287 -102 callsubr
                </CharString>
                <CharString name="Thorn">
                    18 21 -21 596 -20 112 -20 hstem
471 126 vstem
181 hmoveto
19 100 rlineto
247 32 150 111 157 vvcurveto
114 -89 85 -211 -3 vhcurveto
18 92 rlineto
-128 12 callgsubr
417 376 rmoveto
-94 -85 -77 -162 17 vhcurveto
53 270 rlineto
124 13 70 -52 -77 vvcurveto
endchar
                </CharString>
                <CharString name="Thorn.sc">
                    -30 callgsubr
                </CharString>
                <CharString name="U">
                    13 callgsubr
hstem
95 127 vstem
230 295 -98 callsubr
                </CharString>
                <CharString name="U.sc">
                    -27 callgsubr
19 callsubr
210 250 -106 callgsubr
                </CharString>
                <CharString name="Uacute">
                    13 callgsubr
hstem
95 127 vstem
331 815 -107 callgsubr
-101 -520 -98 callsubr
                </CharString>
                <CharString name="Uacute.sc">
                    -27 callgsubr
19 callsubr
284 715 -107 callgsubr
-74 -465 -106 callgsubr
                </CharString>
                <CharString name="Ubreve">
                    13 callgsubr
91 105 hstem
95 127 vstem
614 968 -105 callgsubr
-457 -627 -98 callsubr
                </CharString>
                <CharString name="Ubreve.sc">
                    -27 callgsubr
91 105 19 callsubr
567 868 -105 callgsubr
-430 -572 -106 callgsubr
                </CharString>
                <CharString name="Ucircumflex">
                    13 callgsubr
hstem
95 127 vstem
561 752 -88 callgsubr
-237 -565 -98 callsubr
                </CharString>
                <CharString name="Ucircumflex.sc">
                    -27 callgsubr
19 callsubr
514 652 -88 callgsubr
-210 -510 -106 callgsubr
                </CharString>
                <CharString name="Udieresis">
                    13 callgsubr
108.5 -42 callsubr
hstem
95 127 vstem
621 779 -104 callgsubr
-29 -480 -98 callsubr
                </CharString>
                <CharString name="Udieresis.sc">
                    -27 callgsubr
108.5 -42 callsubr
19 callsubr
575 679 -104 callgsubr
-3 -425 -106 callgsubr
                </CharString>
                <CharString name="Ugrave">
                    13 callgsubr
hstem
95 127 vstem
559 808 -100 callsubr
-300 -457 -98 callsubr
                </CharString>
                <CharString name="Ugrave.sc">
                    -27 callgsubr
140 -20 19 callsubr
513 708 -100 callsubr
-274 -402 -106 callgsubr
                </CharString>
                <CharString name="Uhungarumlaut">
                    13 callgsubr
hstem
95 127 vstem
317 761 -86 callgsubr
7 callgsubr
-241 -513 -98 callsubr
                </CharString>
                <CharString name="Uhungarumlaut.sc">
                    -27 callgsubr
140 -20 21 -20 hstemhm
78 127 hintmask 11011000
270 661 -86 callgsubr
hintmask 11101000
7 callgsubr
-214 -458 -106 callgsubr
                </CharString>
                <CharString name="Umacron">
                    13 callgsubr
124 112 hstem
95 127 vstem
653 904 -76 callgsubr
-401 -497 -98 callsubr
                </CharString>
                <CharString name="Umacron.sc">
                    -27 callgsubr
124 112 19 callsubr
607 804 -76 callgsubr
-375 -442 -106 callgsubr
                </CharString>
                <CharString name="Uogonek">
                    101 -231 89 151 -21 700 -20 hstemhm
96 125 -53 116 hintmask 11101000
433 -179 rmoveto
40 callsubr
-36 16 32 vvcurveto
47 59 24 64 35 vhcurveto
37 20 40 21 31 31 48 48 31 59 17 85 83 427 rcurveline
-127 hlineto
-85 -435 rlineto
hintmask 11110000
-106 -20 -53 -48 -81 hhcurveto
-73 -56 46 150 30 hvcurveto
77 393 rlineto
-128 hlineto
-72 -376 -41 -216 83 -95 130 -13 rlinecurve
hintmask 11101000
-81 -50 -29 -43 -43 vvcurveto
-76 93 -50 172 95 vhcurveto
endchar
                </CharString>
                <CharString name="Uogonek.sc">
                    -58 callsubr
                </CharString>
                <CharString name="Uring">
                    13 callgsubr
79 228 hstem
95 127 vstem
481 975 -79 callsubr
-251 -680 -98 callsubr
                </CharString>
                <CharString name="Uring.sc">
                    -27 callgsubr
79 228 19 callsubr
434 875 -79 callsubr
-224 -625 -106 callgsubr
                </CharString>
                <CharString name="V">
                    19 0 119 569 -20 26 -20 hstemhm
106 129 hintmask 10110000
351 hmoveto
hintmask 11010000
118 229 110 231 100 228 rrcurveto
-128 hlineto
-81 -191 -87 -187 -93 -191 rrcurveto
-15 hlineto
hintmask 10110000
-19 192 -14 192 -7 191 -129 -11 rcurveline
11 -229 21 -225 29 -229 rrcurveto
endchar
                </CharString>
                <CharString name="V.sc">
                    -31 callsubr
                </CharString>
                <CharString name="W">
                    17 callgsubr
444 hmoveto
-81 callgsubr
                </CharString>
                <CharString name="W.sc">
                    -32 callsubr
75 callsubr
hintmask 01110000
403 hmoveto
-66 callsubr
hintmask 10110000
-96 callsubr
                </CharString>
                <CharString name="Wacute">
                    17 callgsubr
367 815 -107 callgsubr
77 -815 rmoveto
-81 callgsubr
                </CharString>
                <CharString name="Wacute.sc">
                    -32 callsubr
75 callsubr
hintmask 01110000
315 715 -107 callgsubr
88 -715 -4 callsubr
hintmask 10110000
-96 callsubr
                </CharString>
                <CharString name="Wcircumflex">
                    17 callgsubr
597 752 -88 callgsubr
-59 -860 rmoveto
-81 callgsubr
                </CharString>
                <CharString name="Wcircumflex.sc">
                    -32 callsubr
75 callsubr
hintmask 01110000
545 652 -88 callgsubr
-48 -760 -4 callsubr
hintmask 10110000
-96 callsubr
                </CharString>
                <CharString name="Wdieresis">
                    158 0 169 519 -20 108.5 -42 callsubr
hstem
89 687 vstem
658 779 -104 callgsubr
148 -775 rmoveto
-81 callgsubr
                </CharString>
                <CharString name="Wdieresis.sc">
                    -32 callsubr
108.5 -42 callsubr
75 callsubr
hintmask 01111000
606 679 -104 callgsubr
159 -675 -4 callsubr
hintmask 10111000
-96 callsubr
                </CharString>
                <CharString name="Wgrave">
                    17 callgsubr
596 808 -100 callsubr
-123 -752 rmoveto
-81 callgsubr
                </CharString>
                <CharString name="Wgrave.sc">
                    -32 callsubr
140 -20 75 callsubr
hintmask 01111000
544 708 -100 callsubr
-112 -652 -4 callsubr
hintmask 10111000
-96 callsubr
                </CharString>
                <CharString name="X">
                    34 18 -21 24 -21 24 -21 685 77 callgsubr
-16 714 hintmask 10001100
426 -3 rmoveto
hintmask 00110100
137 6 -153 336 288 349 rlineto
-145 hlineto
-191 -250 rlineto
hintmask 01001100
-111 254 -136 -7 154 -339 -285 -346 rlineto
143 hlineto
190 248 rlineto
endchar
                </CharString>
                <CharString name="X.sc">
                    -29 callsubr
                </CharString>
                <CharString name="Y">
                    5 callsubr
335 hmoveto
-58 callgsubr
                </CharString>
                <CharString name="Y.sc">
                    -38 callgsubr
310 hmoveto
-84 callgsubr
                </CharString>
                <CharString name="Yacute">
                    5 callsubr
308 819 -107 callgsubr
27 -819 rmoveto
-58 callgsubr
                </CharString>
                <CharString name="Yacute.sc">
                    -38 callgsubr
262 719 -107 callgsubr
48 -719 rmoveto
-84 callgsubr
                </CharString>
                <CharString name="Ycircumflex">
                    5 callsubr
538 756 -88 callgsubr
-109 -864 rmoveto
-58 callgsubr
                </CharString>
                <CharString name="Ycircumflex.sc">
                    -38 callgsubr
492 656 -88 callgsubr
-88 -764 rmoveto
-84 callgsubr
                </CharString>
                <CharString name="Ydieresis">
                    33 21 -21 688 -20 24 -20 108.5 -42 callsubr
hstemhm
109 589 hintmask 10111000
599 783 -104 callgsubr
98 -779 rmoveto
43 227 rlineto
hintmask 11011000
320 461 rlineto
-135 hlineto
-211 -327 rlineto
-10 hlineto
hintmask 10111000
-101 331 -132 -7 145 -442 -47 -243 rlineto
endchar
                </CharString>
                <CharString name="Ydieresis.sc">
                    -47 callgsubr
                </CharString>
                <CharString name="Ygrave">
                    5 callsubr
537 812 -100 callsubr
-173 -756 rmoveto
-58 callgsubr
                </CharString>
                <CharString name="Ygrave.sc">
                    -38 callgsubr
491 712 -100 callsubr
-152 -656 rmoveto
-84 callgsubr
                </CharString>
                <CharString name="Z">
                    11 callgsubr
hstem
19 583 vstem
479 hmoveto
-44 callgsubr
                </CharString>
                <CharString name="Z.sc">
                    -36 callgsubr
hstem
10 529 vstem
433 hmoveto
-77 callsubr
                </CharString>
                <CharString name="Zacute">
                    11 callgsubr
hstem
19 583 vstem
274 815 -107 callgsubr
205 -815 rmoveto
-44 callgsubr
                </CharString>
                <CharString name="Zacute.sc">
                    -36 callgsubr
hstem
10 534 vstem
221 715 -107 callgsubr
212 -715 rmoveto
-77 callsubr
                </CharString>
                <CharString name="Zcaron">
                    11 callgsubr
hstem
19 598 vstem
389 747 -94 callgsubr
248 -910 rmoveto
-44 callgsubr
                </CharString>
                <CharString name="Zcaron.sc">
                    -36 callgsubr
187 -20 hstem
10 553 vstem
335 647 -94 callgsubr
256 -810 rmoveto
-77 callsubr
                </CharString>
                <CharString name="Zdotaccent">
                    11 callgsubr
-31 callgsubr
19 583 vstem
454 777 -76 callsubr
165 -776 rmoveto
-44 callgsubr
                </CharString>
                <CharString name="Zdotaccent.sc">
                    -36 callgsubr
-31 callgsubr
10 529 vstem
401 677 -76 callsubr
172 -676 rmoveto
-77 callsubr
                </CharString>
                <CharString name="a">
                    -62 callsubr
0 callgsubr
hintmask 10010110
220 107 -84 callsubr
hintmask 01001110
-70 callgsubr
hintmask 00110110
-78 callgsubr
hintmask 01001110
-8 -109 62 -35 191 109 rrcurveto
endchar
                </CharString>
                <CharString name="a.sc">
                    -79 callgsubr
hstemhm
-10 548 hintmask 10011100
410 -4 -101 callgsubr
                </CharString>
                <CharString name="aacute">
                    -62 callsubr
225 -20 0 callgsubr
hintmask 01010111
265 693 -107 callgsubr
hintmask 10010111
-45 -586 -93 callsubr
                </CharString>
                <CharString name="aacute.sc">
                    -79 callgsubr
hstemhm
-10 605 hintmask 00111100
272 715 -107 callgsubr
hintmask 10011100
138 -719 -101 callgsubr
                </CharString>
                <CharString name="abreve">
                    -62 callsubr
91 105 0 callgsubr
hintmask 01010111
548 846 -105 callgsubr
hintmask 10010111
-401 -693 -93 callsubr
                </CharString>
                <CharString name="abreve.sc">
                    -79 callgsubr
71 105 hstemhm
-10 638 hintmask 00111110
555 868 -105 callgsubr
hintmask 10011110
-218 -826 -106 callsubr
                </CharString>
                <CharString name="acircumflex">
                    -62 callsubr
155 -20 22 -20 0 callgsubr
hintmask 0101001110000000
495 630 rmoveto
90 73 -158 163 rlineto
hintmask 0101010110000000
-228 -165 rlineto
hintmask 1001001110000000
56 -66 146 103 rlineto
-181 -631 -84 callsubr
hintmask 0100101110000000
-70 callgsubr
hintmask 0011001110000000
-78 callgsubr
hintmask 0100101110000000
-8 -109 62 -35 191 109 rrcurveto
endchar
                </CharString>
                <CharString name="acircumflex.sc">
                    -79 callgsubr
hstemhm
-10 602 hintmask 00111100
502 652 -88 callgsubr
hintmask 10011100
2 -764 -101 callgsubr
                </CharString>
                <CharString name="acute">
                    -46 624 241 hstem
147 323 vstem
147 682 -107 callgsubr
endchar
                </CharString>
                <CharString name="acute.cap">
                    -46 624 241 hstem
147 323 vstem
147 682 -107 callgsubr
endchar
                </CharString>
                <CharString name="adieresis">
                    -62 callsubr
108.5 -42 callsubr
0 callgsubr
hintmask 01010111
556 657 -104 callgsubr
hintmask 10010111
26 -546 -93 callsubr
                </CharString>
                <CharString name="adieresis.sc">
                    -79 callgsubr
-32 callgsubr
hstemhm
-10 621 hintmask 00111110
563 679 -104 callgsubr
hintmask 10011110
209 -679 -106 callsubr
                </CharString>
                <CharString name="ae">
                    42 callgsubr
72 callsubr
549 120 hintmask 10010111
648 462 23 callsubr
hintmask 10011011
43 callgsubr
hintmask 10010111
-57 -52 -54 -42 -38 hhcurveto
hintmask 01010111
15 callsubr
hintmask 00111011
30 callsubr
hintmask 01010111
70 callgsubr
                </CharString>
                <CharString name="ae.sc">
                    -4 callgsubr
469 485 -85 callgsubr
                </CharString>
                <CharString name="aeacute">
                    42 callgsubr
205 -20 72 callsubr
549 120 hintmask 0101101110000000
448 699 -107 callgsubr
hintmask 1001011110000000
200 -237 23 callsubr
hintmask 1001101110000000
43 callgsubr
hintmask 1001011110000000
-57 -52 -54 -42 -38 hhcurveto
hintmask 0101011110000000
15 callsubr
hintmask 0011101110000000
30 callsubr
hintmask 0101011110000000
70 callgsubr
                </CharString>
                <CharString name="aeacute.sc">
                    -4 callgsubr
437 715 -107 callgsubr
32 -230 -85 callgsubr
                </CharString>
                <CharString name="agrave">
                    -62 callsubr
140 -20 106 -20 0 callgsubr
hintmask 0101011110000000
494 686 -100 callsubr
hintmask 1001011110000000
-245 -523 -84 callsubr
hintmask 0100111110000000
-70 callgsubr
hintmask 0011011110000000
-78 callgsubr
hintmask 0100111110000000
-8 -109 62 -35 191 109 rrcurveto
endchar
                </CharString>
                <CharString name="agrave.sc">
                    -79 callgsubr
120 -20 hstemhm
-10 548 hintmask 00111110
501 708 -100 callsubr
hintmask 10011110
-62 -656 -106 callsubr
                </CharString>
                <CharString name="amacron">
                    -62 callsubr
124 112 0 callgsubr
hintmask 01010111
588 782 -76 callgsubr
hintmask 10010111
-346 -563 -93 callsubr
                </CharString>
                <CharString name="amacron.sc">
                    -79 callgsubr
104 112 hstemhm
-10 605 hintmask 00111110
595 804 -76 callgsubr
hintmask 10011110
-163 -696 -106 callsubr
                </CharString>
                <CharString name="ampersand">
                    82 -9 117 598 -20 hstem
23 124 vstem
574 -24 rmoveto
91 89 -50 50 -44 48 -38 46 rlinecurve
43 51 44 60 46 71 -115 39 rcurveline
-28 -53 -27 -45 -27 -38 -38 55 -28 52 -19 50 rrcurveto
72 64 37 66 48 vvcurveto
49 -35 28 -49 -68 -85 -57 -127 -14 1 -15 3 -15 vhcurveto
-176 -127 -61 -106 -95 vvcurveto
-97 61 -62 101 86 85 40 86 92 vhcurveto
38 -47 42 -47 46 -47 rrcurveto
-352 132 rmoveto
-43 -32 21 50 50 40 70 101 80 hvcurveto
23 -57 34 -62 44 -63 rrcurveto
-66 -65 -58 -23 -44 hhcurveto
endchar
                </CharString>
                <CharString name="ampersand.sc">
                    29 -8 106 hstem
16 121 vstem
513 -20 rmoveto
92 77 -45 42 -40 40 -35 39 rlinecurve
39 44 39 51 42 61 -109 36 rcurveline
-25 -45 -25 -39 -24 -32 -33 45 -25 42 -17 40 rrcurveto
66 54 34 56 43 vvcurveto
44 -35 26 -49 -63 -79 -48 -106 -14 2 -15 3 -16 vhcurveto
-156 -103 -54 -91 -80 vvcurveto
-83 55 -56 96 78 76 32 71 82 vhcurveto
33 -38 37 -39 40 -38 rrcurveto
-311 118 rmoveto
-38 -27 19 41 41 35 55 83 63 hvcurveto
21 -47 31 -51 38 -52 rrcurveto
-51 -56 -49 -18 -38 hhcurveto
endchar
                </CharString>
                <CharString name="aogonek">
                    13 -231 89 126 123 -102 -21 47 -21 44 47 360 105 0 -20 72 callsubr
103 116 -32 123 hintmask 1001110110000000
535 -179 rmoveto
-14 71 callsubr
35 47 56 144 61 vhcurveto
7 3 7 3 8 3 -16 61 rcurveline
hintmask 1001101101000000
-110 -22 -2 0 10 49 79 403 rcurveline
hintmask 1010110101000000
14 -56 -51 7 -44 hhcurveto
-228 -138 -209 -204 -114 52 -55 64 57 73 46 60 65 hvcurveto
hintmask 1001110101000000
-2 -42 11 -27 28 -11 rrcurveto
hintmask 1001110110000000
-89 -58 -32 -54 -48 vvcurveto
-75 93 -49 172 95 vhcurveto
hintmask 1100010110000000
-315 286 -84 callsubr
endchar
                </CharString>
                <CharString name="aogonek.sc">
                    -67 callsubr
                </CharString>
                <CharString name="approxequal">
                    11 118 111 -19 111 30 111 -19 111 5 -20 hstemhm
48 548 hintmask 01101100
442 351 rmoveto
72 37 54 122 45 hvcurveto
-83 32 rlineto
-57 -25 -19 -40 -22 hhcurveto
hintmask 01010100
-40 -46 92 -91 hhcurveto
-77 -48 -57 -108 -45 hvcurveto
83 -33 rlineto
51 27 21 36 24 hhcurveto
hintmask 01101100
43 51 -92 93 hhcurveto
hintmask 10010100
-49 -233 rmoveto
70 36 47 107 44 hvcurveto
-83 32 rlineto
-44 -23 -18 -31 -21 hhcurveto
hintmask 01010100
-40 -46 92 -91 hhcurveto
-77 -50 -63 -125 -46 hvcurveto
83 -32 rlineto
64 28 22 45 25 hhcurveto
hintmask 10010100
43 51 -92 93 hhcurveto
endchar
                </CharString>
                <CharString name="aring">
                    -62 callsubr
79 228 0 callgsubr
hintmask 01010111
415 853 -79 callsubr
hintmask 10010111
-195 -746 -93 callsubr
                </CharString>
                <CharString name="aring.sc">
                    -79 callgsubr
59 228 hstemhm
-10 550 hintmask 00111110
422 875 -79 callsubr
hintmask 10011110
-12 -879 -106 callsubr
                </CharString>
                <CharString name="aringacute">
                    -62 callsubr
0 callgsubr
hintmask 01010110
315 951 -107 callgsubr
100 -98 -79 callsubr
hintmask 10010110
-195 -746 -84 callsubr
hintmask 01001110
-70 callgsubr
hintmask 00110110
-78 callgsubr
hintmask 01001110
-8 -109 62 -35 191 109 rrcurveto
endchar
                </CharString>
                <CharString name="aringacute.sc">
                    -79 callgsubr
hstemhm
-10 655 hintmask 00111100
322 973 -107 callgsubr
100 -98 -79 callsubr
hintmask 10011100
-12 -879 -101 callgsubr
                </CharString>
                <CharString name="arrow.1_E">
                    87 279 107 hstem
62 622 vstem
313 33 rmoveto
371 302 -371 301 -73 -94 218 -157 -50 1 rlineto
-346 -107 346 hlineto
48 1 -216 -152 rlineto
endchar
                </CharString>
                <CharString name="arrow.1_N">
                    87 21 -21 700 -20 hstem
306 112 vstem
418 391 rmoveto
-3 74 147 -215 92 71 -289 379 -297 -379 92 -71 149 218 -3 -77 rlineto
-391 112 vlineto
endchar
                </CharString>
                <CharString name="arrow.1_S">
                    87 9 -21 700 -20 hstem
305 112 vstem
358 -12 rmoveto
296 379 -92 71 -148 -217 3 76 rlineto
391 -112 -391 vlineto
3 -75 -148 216 -92 -71 rlineto
endchar
                </CharString>
                <CharString name="arrow.1_W">
                    87 279 107 hstem
38 623 vstem
482 121 rmoveto
-219 159 52 -1 rlineto
346 107 -346 hlineto
-49 -1 216 152 -73 95 -371 -302 371 -303 rlineto
endchar
                </CharString>
                <CharString name="asciicircum">
                    11 557 -20 hstem
60 522 vstem
475 151 rmoveto
107 71 -225 335 -25 -3 -272 -333 86 -70 181 226 rlineto
endchar
                </CharString>
                <CharString name="asciitilde">
                    11 210 125 7 125 hstemhm
35 586 hintmask 10100000
431 210 rmoveto
72 57 79 142 61 hvcurveto
-88 34 rlineto
-78 -36 -30 -52 -24 hhcurveto
hintmask 01100000
-40 -81 132 -89 hhcurveto
-74 -67 -85 -136 -57 hvcurveto
87 -34 rlineto
78 35 30 52 24 hhcurveto
hintmask 10100000
41 87 -132 92 hhcurveto
endchar
                </CharString>
                <CharString name="asterisk">
                    21 226 537 hstem
110 515 vstem
409 226 rmoveto
74 30 -27 168 169 39 -4 80 -169 24 16 173 -79 23 -78 -156 -155 70 -46 -68 124 -122 -114 -126 50 -64 152 78 rlineto
endchar
                </CharString>
                <CharString name="asterisk.alt">
                    35 588 -20 27 -20 hstemhm
98 542 hintmask 01100000
427 581 rmoveto
53 163 -118 24 -10 -173 rlineto
hintmask 10100000
-29 -7 rmoveto
-114 127 -80 -90 145 -96 rlineto
198 -43 rmoveto
168 38 -38 113 -155 -78 rlineto
-181 -56 rmoveto
-168 -38 38 -113 155 78 rlineto
123 -29 rmoveto
116 -127 80 90 -144 96 rlineto
-155 -52 rmoveto
-53 -163 119 -24 9 173 rlineto
endchar
                </CharString>
                <CharString name="at">
                    206 -171 105 118 118 256 107 126 102 hstemhm
75 114 119 121 159 110 -38 114 hintmask 11111101
593 -148 rmoveto
12 106 rlineto
-307 -73 -109 98 206 vvcurveto
249 158 221 193 93 35 -43 -88 -8 vhcurveto
3 -22 -22 2 -19 hhcurveto
-184 -105 -161 -164 -105 51 -51 63 hvcurveto
hintmask 11111110
52 64 43 53 55 hvcurveto
-10 -76 115 -3 6 75 10 66 11 56 rlinecurve
39 205 rlineto
hintmask 11111101
184 36 -57 106 -166 hhcurveto
-282 -220 -286 -302 -248 147 -158 371 85 hvcurveto
-119 318 rmoveto
-27 -18 22 50 84 45 100 57 23 43 -7 -12 42 hvcurveto
-31 -161 rlineto
-42 -43 -59 -34 -32 hhcurveto
endchar
                </CharString>
                <CharString name="atilde">
                    -62 callsubr
97 102 -54 -20 66 102 0 callgsubr
hintmask 0101010011000000
484 745 rmoveto
hintmask 0101001111000000
-78 callsubr
hintmask 0101010011000000
-81 callsubr
hintmask 1001001111000000
-264 -638 -84 callsubr
hintmask 0100101111000000
-70 callgsubr
hintmask 0011001111000000
-78 callgsubr
hintmask 0100101111000000
-8 -109 62 -35 191 109 rrcurveto
endchar
                </CharString>
                <CharString name="atilde.sc">
                    -79 callgsubr
77 83 callsubr
-10 638 hintmask 00111101
492 767 rmoveto
hintmask 00111011
-78 callsubr
hintmask 00111101
-81 callsubr
hintmask 10011101
-82 -771 rmoveto
hintmask 00111101
128 8 -21 197 -25 193 -28 194 rlinecurve
-174 hlineto
hintmask 01011101
-105 -195 -100 -198 -95 -195 rrcurveto
129 hlineto
24 52 25 53 26 52 rrcurveto
202 hlineto
hintmask 10011101
5 -54 5 -54 4 -53 rrcurveto
hintmask 00111101
-55 486 rmoveto
6 hlineto
9 -78 9 -79 8 -79 rrcurveto
-150 hlineto
39 79 40 79 39 78 rrcurveto
endchar
                </CharString>
                <CharString name="b">
                    3 -14 103 365 118 211 -20 hstem
449 121 vstem
202 -14 rmoveto
56 callsubr
-55 -60 hvcurveto
60 308 -123 -12 -148 -754 rlineto
-17 42 66 -14 45 hhcurveto
97 103 rmoveto
-24 -41 7 14 -45 hvcurveto
51 261 rlineto
46 50 56 66 callsubr
endchar
                </CharString>
                <CharString name="b.sc">
                    -59 callsubr
                </CharString>
                <CharString name="backslash">
                    -80 -162 -21 hstem
79 379 vstem
182 807 rmoveto
-103 -30 274 -991 105 31 rlineto
endchar
                </CharString>
                <CharString name="backslash.tab">
                    11 -210 1016 hstem
158 352 vstem
158 778 rmoveto
241 -988 111 28 -241 988 rlineto
endchar
                </CharString>
                <CharString name="bar">
                    -260 -179 -21 hstem
27 306 vstem
219 49 callsubr
                </CharString>
                <CharString name="bar.tab">
                    -167 -179 -21 hstem
75 306 vstem
267 49 callsubr
                </CharString>
                <CharString name="braceleft">
                    -137 -240 1046 hstemhm
45 67 callsubr
302 -240 -52 callsubr
                </CharString>
                <CharString name="braceleft.cap">
                    -137 -180 1046 hstemhm
56 67 callsubr
313 -180 -52 callsubr
                </CharString>
                <CharString name="braceright">
                    -137 709 -20 hstemhm
146 67 callgsubr
-30 -239 -50 callsubr
                </CharString>
                <CharString name="braceright.cap">
                    -137 -180 1046 hstemhm
157 67 callgsubr
-19 -180 -50 callsubr
                </CharString>
                <CharString name="bracketleft">
                    -141 -198 106 752 106 hstem
7 512 vstem
7 -198 30 callgsubr
                </CharString>
                <CharString name="bracketleft.cap">
                    -141 -142 106 752 106 hstem
18 512 vstem
18 -142 30 callgsubr
                </CharString>
                <CharString name="bracketright">
                    -141 -196 105 753 105 hstem
-44 512 vstem
468 767 29 callsubr
                </CharString>
                <CharString name="bracketright.cap">
                    -141 -142 105 753 105 hstem
-34 512 vstem
478 821 29 callsubr
                </CharString>
                <CharString name="breve">
                    -46 626 105 hstem
105 414 vstem
446 835 -105 callgsubr
endchar
                </CharString>
                <CharString name="breve.cap">
                    -46 626 105 hstem
105 414 vstem
446 835 -105 callgsubr
endchar
                </CharString>
                <CharString name="bullet">
                    -52 169 324 hstem
138 310 vstem
448 352 rmoveto
82 -58 59 -85 -86 -81 -71 -110 -82 62 -61 79 87 82 72 111 vhcurveto
endchar
                </CharString>
                <CharString name="bullet.alt">
                    -52 193 280 hstem
120 339 vstem
402 193 rmoveto
57 280 rlineto
-282 hlineto
-57 -280 rlineto
endchar
                </CharString>
                <CharString name="c">
                    50 callgsubr
40 callgsubr
512 369 -71 callsubr
                </CharString>
                <CharString name="c.sc">
                    -36 callsubr
387 602 -95 callsubr
                </CharString>
                <CharString name="cacute">
                    50 callgsubr
205 -20 40 callgsubr
265 698 -107 callgsubr
247 -329 -71 callsubr
                </CharString>
                <CharString name="cacute.sc">
                    -36 callsubr
284 729 -107 callgsubr
103 -127 -95 callsubr
                </CharString>
                <CharString name="caron">
                    10 callgsubr
                </CharString>
                <CharString name="caron.alt">
                    -47 609 285 hstem
274 177 vstem
311 887 -59 callgsubr
endchar
                </CharString>
                <CharString name="caron.alt.cap">
                    -47 609 285 hstem
274 177 vstem
311 887 -59 callgsubr
endchar
                </CharString>
                <CharString name="caron.cap">
                    10 callgsubr
                </CharString>
                <CharString name="ccaron">
                    50 callgsubr
40 callgsubr
380 630 -94 callgsubr
290 -424 -71 callsubr
                </CharString>
                <CharString name="ccaron.sc">
                    -36 callsubr
399 661 -94 callgsubr
146 -222 -95 callsubr
                </CharString>
                <CharString name="ccedilla">
                    -65 -198 296 -274 -21 209 -21 30 -21 54 44 363 110 hstemhm
50 123 66 111 47 115 hintmask 0101111110000000
350 -197 rmoveto
hintmask 0110111110000000
6 94 -21 62 -36 32 50 9 59 20 68 34 -14 60 rcurveline
hintmask 1000011110000000
-236 -41 -53 35 118 vvcurveto
123 73 112 89 48 15 -30 -65 -1 vhcurveto
115 3 rlineto
147 11 -42 55 -104 hhcurveto
-172 -155 -176 -196 hvcurveto
hintmask 0101111110000000
-91 36 -78 78 -30 vhcurveto
-37 -25 -32 -49 -31 -77 -51 callsubr
                </CharString>
                <CharString name="ccedilla.sc">
                    -64 callgsubr
                </CharString>
                <CharString name="cdotaccent">
                    50 callgsubr
88.5 145 40 callgsubr
445 660 -76 callsubr
207 -290 -71 callsubr
                </CharString>
                <CharString name="cdotaccent.sc">
                    -18 -12 108 398 108 88.5 145 17 callsubr
464 691 -76 callsubr
63 -88 -95 callsubr
                </CharString>
                <CharString name="cedilla">
                    -15 callsubr
                </CharString>
                <CharString name="cedilla.cap">
                    -15 callsubr
                </CharString>
                <CharString name="cent">
                    11 24 115 273 126 150 -20 hstem
75 117 vstem
192 294 rmoveto
54 23 47 109 16 vhcurveto
-51 -227 rlineto
-58 27 -23 38 45 vvcurveto
286 -270 rmoveto
20 115 -52 3 -45 6 -37 8 rlinecurve
57 261 35 1 39 -2 45 -4 rlinecurve
23 126 -38 3 -34 1 -33 -1 rlinecurve
34 147 rlineto
-121 hlineto
-30 -160 rlineto
-194 -40 -72 -125 -101 vvcurveto
-88 59 -65 101 -40 vhcurveto
-40 -162 rlineto
121 hlineto
27 132 41 -8 45 -5 49 -2 rlinecurve
endchar
                </CharString>
                <CharString name="check.1">
                    10 3 -21 716 -20 hstem
60 596 vstem
656 698 rmoveto
-119 60 -117 -174 -93 -203 -76 -219 rlinecurve
-6 1 -65 260 -120 -43 116 -393 101 -5 104 272 131 233 144 211 rlinecurve
endchar
                </CharString>
                <CharString name="check.2">
                    10 8 -21 24 -21 609 -20 119 -20 hstemhm
13 629 hintmask 01111000
305 -10 rmoveto
126 22 -91 282 302 404 -118 63 -227 -346 -52 184 -126 -40 86 -259 rlineto
hintmask 10111000
-192 -271 80 -42 153 202 rlineto
endchar
                </CharString>
                <CharString name="circumflex">
                    3 callsubr
                </CharString>
                <CharString name="circumflex.cap">
                    3 callsubr
                </CharString>
                <CharString name="colon">
                    -246 0 160 235 160 hstem
55 265 vstem
290 395 -20 callgsubr
83 -395 -20 callgsubr
endchar
                </CharString>
                <CharString name="colon.alt">
                    -246 56 159 236 160 hstem
60 266 vstem
296 451 -20 callgsubr
82 -395 rmoveto
30 159 rlineto
-159 hlineto
-30 -159 rlineto
endchar
                </CharString>
                <CharString name="colon.tab">
                    -167 0 160 235 160 hstem
83 265 vstem
318 395 -20 callgsubr
83 -395 -20 callgsubr
endchar
                </CharString>
                <CharString name="colonmonetary">
                    11 552 115 hstem
63 111 vstem
353 159 rmoveto
-21 5 -19 5 -18 5 95 354 rcurveline
19 5 22 4 23 3 rrcurveto
-280 -226 rmoveto
70 24 67 94 45 vhcurveto
-76 -283 rlineto
-28 24 -14 31 46 vvcurveto
108 -396 rmoveto
102 hlineto
30 113 17 -3 19 -2 19 -3 rlinecurve
51 108 -29 4 -28 5 -25 4 rlinecurve
107 405 rlineto
2 26 27 1 29 hhcurveto
13 115 -20 -1 -19 -1 -18 -1 rlinecurve
29 105 rlineto
-102 hlineto
-31 -116 -20 -4 -20 -3 -19 -4 rlinecurve
34 127 rlineto
-102 hlineto
-41 -159 rlineto
-196 -73 -52 -131 -119 vvcurveto
-88 38 -58 74 -41 vhcurveto
-51 -182 rlineto
103 hlineto
39 145 17 -5 17 -5 19 -4 rlinecurve
endchar
                </CharString>
                <CharString name="comma">
                    -224 -169 330 hstem
99 155 vstem
17 -26 callgsubr
endchar
                </CharString>
                <CharString name="comma.tab">
                    -167 -169 330 hstem
126 155 vstem
44 -26 callgsubr
endchar
                </CharString>
                <CharString name="commaaccent">
                    -46 -311 233 hstem
175 192 vstem
175 -287 -102 callsubr
                </CharString>
                <CharString name="commaaccent.cap">
                    -46 -311 233 hstem
175 192 vstem
175 -287 -102 callsubr
                </CharString>
                <CharString name="commaaccent.rot">
                    -46 632 233 hstem
196 192 vstem
388 841 41 callsubr
endchar
                </CharString>
                <CharString name="copyright">
                    307 -34 87 97 89 212 85 100 88 hstem
89 96 126 101 116 95 134 96 vstem
511 724 rmoveto
-227 -195 -163 -258 -218 152 -119 200 227 185 155 254 221 -148 128 -194 hvcurveto
-5 -88 rmoveto
143 108 -97 -172 -195 -137 -119 -172 -153 -110 87 172 195 146 129 175 hvcurveto
-2 -100 rmoveto
-106 -87 -109 -118 -138 105 -56 168 58 hvcurveto
8 89 rlineto
-128 -47 -52 25 84 vvcurveto
57 27 70 50 31 4 -39 -31 4 vhcurveto
95 hlineto
84 2 -32 71 -89 hhcurveto
endchar
                </CharString>
                <CharString name="d">
                    33 callsubr
hintmask 10101100
230 104 -53 callgsubr
                </CharString>
                <CharString name="d.sc">
                    -34 callsubr
                </CharString>
                <CharString name="dagger">
                    -90 596 -20 202 -20 hstem
109 430 vstem
270 158 rmoveto
100 346 138 -14 31 86 callgsubr
-36 -155 -141 15 -30 -107 147 -15 -88 -381 18 -12 rlineto
endchar
                </CharString>
                <CharString name="daggerdbl">
                    -88 596 -20 202 -20 hstem
52 487 vstem
258 103 rmoveto
51 184 141 -15 31 107 -143 15 31 111 138 -15 32 86 callgsubr
-35 -154 -142 15 -31 -107 148 -16 -25 -110 -150 16 -29 -108 154 -16 -50 -217 18 -13 rlineto
endchar
                </CharString>
                <CharString name="dcaron">
                    33 callsubr
hintmask 01101100
691 887 -59 callgsubr
hintmask 10101100
-601 -790 -53 callgsubr
                </CharString>
                <CharString name="dcaron.sc">
                    16 -6 103 -76 -21 494 101 187 -20 hstemhm
456 126 hintmask 10111000
370 654 -94 callgsubr
370 -460 rmoveto
188 -161 80 -267 -40 vhcurveto
hintmask 01111000
-114 -585 rlineto
hintmask 10111000
-53 callsubr
                </CharString>
                <CharString name="dcroat">
                    19 -16 120 -116 114 365 104 0 -20 75 90 67 -20 hstemhm
46 121 194 124 hintmask 10101110
230 104 rmoveto
-38 -25 35 64 117 69 147 81 24 41 -7 -14 45 hvcurveto
-50 -257 rlineto
-47 -51 -59 -38 -37 hhcurveto
hintmask 01011111
381 -50 rmoveto
-16 61 -116 -21 0 0 9 48 rlinecurve
79 404 2 3 rlineto
-2 hlineto
15 77 rlineto
68 hlineto
18 90 rlineto
-68 hlineto
13 67 -123 -12 -11 -55 rlineto
-134 hlineto
-18 -90 rlineto
135 hlineto
hintmask 10101111
-11 -56 rlineto
1 -13 -13 0 -12 hhcurveto
-229 -138 -204 -199 -122 55 -62 69 58 71 46 59 62 hvcurveto
hintmask 01011111
-5 -109 66 -35 189 109 rrcurveto
endchar
                </CharString>
                <CharString name="dcroat.sc">
                    -87 callgsubr
                </CharString>
                <CharString name="degree">
                    11 334 98 230 96 hstem
150 105 204 104 vstem
376 758 rmoveto
-118 -108 -92 -139 -119 80 -74 108 117 108 92 139 119 -80 74 -107 hvcurveto
-25 -326 rmoveto
-57 -39 44 62 74 46 50 61 57 40 -46 -61 -74 -47 -49 -61 hvcurveto
endchar
                </CharString>
                <CharString name="dieresis">
                    -46 643.5 -42 callsubr
hstem
101 410 vstem
463 646 -104 callgsubr
endchar
                </CharString>
                <CharString name="dieresis.cap">
                    -46 643.5 -42 callsubr
hstem
101 410 vstem
463 646 -104 callgsubr
endchar
                </CharString>
                <CharString name="divide">
                    11 79 132 65 113 65 132 hstem
74 500 cntrmask 11100000
414 454 74 callgsubr
294 -65 rmoveto
-478 41 callgsubr
478 hlineto
-211 -197 74 callgsubr
endchar
                </CharString>
                <CharString name="dollar">
                    10 38 101 408 213 hstem
117 121 168 121 vstem
238 516 rmoveto
25 31 12 71 -6 vhcurveto
-35 -113 rlineto
-39 32 -28 28 22 vvcurveto
168 -344 rmoveto
-26 -30 -12 -69 5 vhcurveto
35 115 rlineto
37 -31 27 -28 -23 vvcurveto
-269 -247 rmoveto
120 1 28 112 rlineto
182 3 60 65 68 vvcurveto
72 -73 68 -72 59 vhcurveto
49 159 36 -7 41 -10 47 -13 rlinecurve
22 121 -35 7 -33 6 -31 4 rlinecurve
41 120 rlineto
-121 hlineto
-32 -111 rlineto
-184 2 -65 -71 -71 vvcurveto
-70 74 -66 73 -58 vhcurveto
-50 -164 -40 8 -46 10 -54 13 rlinecurve
-30 -121 47 -8 43 -6 39 -4 rlinecurve
endchar
                </CharString>
                <CharString name="dotaccent">
                    20 callsubr
                </CharString>
                <CharString name="dotaccent.cap">
                    20 callsubr
                </CharString>
                <CharString name="dotlessi">
                    1 callsubr
55 callgsubr
416 63 -88 callsubr
                </CharString>
                <CharString name="dotlessi.sc">
                    -25 callsubr
hstem
17 491 vstem
288 98 -102 callgsubr
                </CharString>
                <CharString name="e">
                    -25 callgsubr
6 callsubr
499 69 -101 callsubr
                </CharString>
                <CharString name="e.sc">
                    -63 callgsubr
hstem
40 489 vstem
441 103 -103 callgsubr
                </CharString>
                <CharString name="eacute">
                    -25 callgsubr
205 -20 6 callsubr
271 699 -107 callgsubr
228 -630 -101 callsubr
                </CharString>
                <CharString name="eacute.sc">
                    -63 callgsubr
hstem
40 520 vstem
237 715 -107 callgsubr
204 -612 -103 callgsubr
                </CharString>
                <CharString name="ebreve">
                    -25 callgsubr
71 105 6 callsubr
554 852 -105 callgsubr
-128 -737 -101 callsubr
                </CharString>
                <CharString name="ebreve.sc">
                    -63 callgsubr
71 105 hstem
40 554 vstem
521 868 -105 callgsubr
-153 -719 -103 callgsubr
                </CharString>
                <CharString name="ecaron">
                    -25 callgsubr
6 callsubr
385 631 -94 callgsubr
272 -725 -101 callsubr
                </CharString>
                <CharString name="ecaron.sc">
                    -63 callgsubr
187 -20 hstem
40 540 vstem
352 647 -94 callgsubr
247 -707 -103 callgsubr
                </CharString>
                <CharString name="ecircumflex">
                    -25 callgsubr
135 76 callsubr
49 120 234 120 hintmask 11101110
500 636 rmoveto
90 73 -158 163 rlineto
hintmask 11110110
-228 -165 rlineto
hintmask 11101110
56 -66 146 103 rlineto
93 -675 -101 callsubr
                </CharString>
                <CharString name="ecircumflex.sc">
                    -63 callgsubr
hstem
40 517 vstem
467 652 -88 callgsubr
68 -657 -103 callgsubr
                </CharString>
                <CharString name="edieresis">
                    -25 callgsubr
-9 callgsubr
49 120 234 120 vstem
561 663 -104 callgsubr
300 -590 -101 callsubr
                </CharString>
                <CharString name="edieresis.sc">
                    -63 callgsubr
-9 callgsubr
40 536 vstem
528 679 -104 callgsubr
275 -572 -103 callgsubr
                </CharString>
                <CharString name="edotaccent">
                    -25 callgsubr
88.5 145 6 callsubr
450 661 -76 callsubr
189 -591 -101 callsubr
                </CharString>
                <CharString name="edotaccent.sc">
                    -63 callgsubr
-31 callgsubr
40 489 vstem
417 677 -76 callsubr
164 -573 -103 callgsubr
                </CharString>
                <CharString name="egrave">
                    -25 callgsubr
120 -20 106 -20 6 callsubr
499 692 -100 callsubr
29 -567 -101 callsubr
                </CharString>
                <CharString name="egrave.sc">
                    -63 callgsubr
120 -20 hstem
40 489 vstem
466 708 -100 callsubr
4 -549 -103 callgsubr
                </CharString>
                <CharString name="eight">
                    11 -14 103 472 -20 50 113 hstemhm
49 123 -32 121 138 116 hintmask 10101100
515 180 rmoveto
67 -55 62 -59 56 vhcurveto
hintmask 11101100
55 32 67 37 83 44 -53 83 rcurveline
-88 -50 -73 -43 -61 -38 rrcurveto
hintmask 10101100
-39 38 -31 35 32 vvcurveto
43 42 30 182 -27 vhcurveto
25 123 rlineto
-230 5 -140 -83 -115 vvcurveto
-55 38 -50 47 -46 vhcurveto
hintmask 10110100
-143 -99 -33 -58 -66 vvcurveto
-88 81 -63 127 vhcurveto
hintmask 10101100
146 112 87 107 hvcurveto
-224 -91 rmoveto
hintmask 10110100
-62 -57 28 51 29 15 32 106 70 hvcurveto
56 -49 50 -44 -43 vvcurveto
hintmask 10101100
-42 -45 -32 -63 vhcurveto
endchar
                </CharString>
                <CharString name="eight.den">
                    -11 82 292 90 hstemhm
-12 14 callgsubr
hintmask 11011000
318 117 -105 callsubr
-24 callgsubr
hintmask 11101000
-69 callgsubr
hintmask 11011000
13 callsubr
hintmask 11101000
-92 callgsubr
                </CharString>
                <CharString name="eight.den_afrc">
                    -72 -1 callsubr
hstemhm
34 62 callgsubr
364 -116 -96 callgsubr
                </CharString>
                <CharString name="eight.den_afrc2">
                    348 -1 callsubr
hstemhm
244 62 callgsubr
574 -116 -96 callgsubr
                </CharString>
                <CharString name="eight.inf">
                    -127 -178 82 292 90 hstemhm
19 14 callgsubr
hintmask 11011000
349 -50 -105 callsubr
-24 callgsubr
hintmask 11101000
-69 callgsubr
hintmask 11011000
13 callsubr
hintmask 11101000
-92 callgsubr
                </CharString>
                <CharString name="eight.num">
                    239 82 279 -20 33 90 -3 -20 hstemhm
92 14 callgsubr
hintmask 10100110
422 367 rmoveto
44 -34 38 -38 33 vhcurveto
hintmask 11100110
34 17 41 19 49 22 -33 60 rcurveline
hintmask 10100110
-58 -26 -48 -24 -41 -21 rrcurveto
-25 21 -18 19 17 vvcurveto
25 29 14 116 -26 vhcurveto
hintmask 10010110
32 101 rlineto
hintmask 10100110
-175 18 -99 -66 -77 vvcurveto
-24 callgsubr
hintmask 10101010
-69 callgsubr
hintmask 10100110
13 callsubr
hintmask 10101010
-92 callgsubr
                </CharString>
                <CharString name="eight.num_afrc">
                    -72 461 54 callgsubr
156 62 callgsubr
486 589 -96 callgsubr
                </CharString>
                <CharString name="eight.num_afrc2">
                    348 461 54 callgsubr
365 62 callgsubr
695 589 -96 callgsubr
                </CharString>
                <CharString name="eight.small">
                    -11 82 292 90 hstemhm
16 14 callgsubr
hintmask 11011000
346 117 -105 callsubr
-24 callgsubr
hintmask 11101000
-69 callgsubr
hintmask 11011000
13 callsubr
hintmask 11101000
-92 callgsubr
                </CharString>
                <CharString name="eight.sup">
                    -127 350 54 callgsubr
106 62 callgsubr
436 478 -96 callgsubr
                </CharString>
                <CharString name="ellipsis">
                    465 0 160 hstem
55 895 vstem
924 hmoveto
26 160 rlineto
-159 hlineto
-26 -160 rlineto
-196 hmoveto
25 160 rlineto
-158 hlineto
-26 -160 rlineto
-196 34 callgsubr
                </CharString>
                <CharString name="emacron">
                    -25 callgsubr
104 112 6 callsubr
593 788 -76 callgsubr
-72 -607 -101 callsubr
                </CharString>
                <CharString name="emacron.sc">
                    -63 callgsubr
88 callgsubr
40 520 vstem
560 804 -76 callgsubr
-97 -589 -103 callgsubr
                </CharString>
                <CharString name="emdash">
                    195 283 99 hstem
64 690 vstem
754 382 rmoveto
-673 hlineto
-17 -99 rlineto
672 hlineto
endchar
                </CharString>
                <CharString name="emspace">
                    387 endchar
                </CharString>
                <CharString name="endash">
                    -60 283 99 hstem
64 435 vstem
499 382 rmoveto
-418 hlineto
-17 -99 rlineto
417 hlineto
endchar
                </CharString>
                <CharString name="endash.tab">
                    11 283 99 hstem
76 494 vstem
570 382 rmoveto
-476 hlineto
-18 -99 rlineto
476 hlineto
endchar
                </CharString>
                <CharString name="enspace">
                    -113 endchar
                </CharString>
                <CharString name="eogonek">
                    -56 -231 89 129 113 103 79 180 110 hstemhm
49 120 1 116 117 120 hintmask 11110110
436 -179 rmoveto
-15 71 callsubr
42 52 44 161 90 vhcurveto
-13 59 rlineto
hintmask 11111010
-248 22 callsubr
rrcurveto
219 15 135 77 137 vvcurveto
85 -54 55 -93 -177 -150 -197 -186 -110 61 -92 124 vhcurveto
hintmask 11010110
11 12 1 2 13 hvcurveto
-69 -49 -31 -46 -45 vvcurveto
hintmask 11110110
-75 94 -49 172 95 vhcurveto
hintmask 11111010
-101 641 rmoveto
44 24 -27 -39 -72 -90 -34 -137 -8 hvcurveto
95 20 59 85 80 hhcurveto
endchar
                </CharString>
                <CharString name="eogonek.sc">
                    -48 callgsubr
                </CharString>
                <CharString name="equal">
                    11 165 79 callsubr
588 511 rmoveto
-457 41 callgsubr
456 hlineto
-23 -120 rmoveto
-456 41 callgsubr
456 hlineto
endchar
                </CharString>
                <CharString name="eth">
                    -8 -16 105 318 104 176 -20 hstem
52 123 257 120 vstem
250 -16 rmoveto
171 131 156 211 95 -28 87 -55 82 hvcurveto
94 28 -21 82 -128 -38 -32 37 -38 36 -43 35 rlinecurve
-85 -79 27 -22 25 -21 21 -22 rlinecurve
-113 -33 23 -82 152 45 17 -24 14 -23 12 -24 rlinecurve
1 -9 -9 0 -9 hhcurveto
-166 -149 -147 -171 -124 75 -85 123 hvcurveto
31 105 rmoveto
-66 -40 51 83 96 56 88 87 24 42 -7 -14 45 hvcurveto
2 -18 1 -18 -18 vvcurveto
-137 -56 -106 -95 vhcurveto
endchar
                </CharString>
                <CharString name="eth.sc">
                    -87 callgsubr
                </CharString>
                <CharString name="exclam">
                    -228 0 149 hstem
57 308 vstem
235 275 rmoveto
130 474 rlineto
-163 hlineto
-52 -474 rlineto
66 -275 rmoveto
28 149 rlineto
-159 hlineto
-28 -149 rlineto
endchar
                </CharString>
                <CharString name="exclamdown">
                    -228 539 149 hstem
45 307 vstem
194 85 callsubr
27 149 rlineto
-177 -275 rmoveto
-130 -474 rlineto
162 hlineto
52 474 rlineto
endchar
                </CharString>
                <CharString name="f">
                    -43 -199 107 346 100 53 callgsubr
32 rmoveto
73 -26 74 -70 77 vhcurveto
177 -4 20 102 rlineto
-283 -18 callgsubr
131 vhcurveto
-149 -124 rmoveto
-49 -27 38 112 56 5 57 10 55 hvcurveto
89 -72 37 -72 -80 vvcurveto
-52 -20 -42 -45 vhcurveto
endchar
                </CharString>
                <CharString name="f.lig">
                    -76 -199 107 344.5 101.5 53 callgsubr
28 rmoveto
74 -30 76 -67 76 vhcurveto
145 -3 20 103 rlineto
-250 -18 callgsubr
127 vhcurveto
-149 -120 rmoveto
-49 -27 38 112 55 5 56 9 55 hvcurveto
85 -71 42 -74 -77 vvcurveto
-52 -20 -42 -45 vhcurveto
endchar
                </CharString>
                <CharString name="f.sc">
                    -12 callsubr
                </CharString>
                <CharString name="figurespace">
                    -63 endchar
                </CharString>
                <CharString name="five">
                    11 -3 119 -95 -21 576 112 hstemhm
419 117 hintmask 10110000
536 234 rmoveto
79 -60 79 -197 45 vhcurveto
31 139 rlineto
252 hlineto
36 112 rlineto
-380 hlineto
-73 -335 rlineto
205 -37 69 -47 -58 vvcurveto
-59 -68 -57 -270 29 vhcurveto
hintmask 01110000
-16 -124 rlineto
hintmask 10110000
334 -29 137 141 122 vvcurveto
endchar
                </CharString>
                <CharString name="five.den">
                    -2 39 callsubr
224 101 vstem
325 149 -104 callsubr
endchar
                </CharString>
                <CharString name="five.den_afrc">
                    -72 -235 39 callsubr
270 101 vstem
371 -84 -104 callsubr
endchar
                </CharString>
                <CharString name="five.den_afrc2">
                    348 -235 39 callsubr
480 101 vstem
581 -84 -104 callsubr
endchar
                </CharString>
                <CharString name="five.inf">
                    -127 -169 39 callsubr
255 101 vstem
356 -18 -104 callsubr
endchar
                </CharString>
                <CharString name="five.num">
                    248 39 callsubr
328 101 vstem
429 399 -104 callsubr
endchar
                </CharString>
                <CharString name="five.num_afrc">
                    -72 470 -3 callgsubr
392 101 hintmask 10111000
24 callsubr
hintmask 01111000
136 -19 50 -24 -30 vvcurveto
-31 -48 -28 -176 15 vhcurveto
hintmask 10111000
75 callgsubr
                </CharString>
                <CharString name="five.num_afrc2">
                    348 470 -3 callgsubr
601 101 hintmask 10111000
702 -28 callgsubr
hintmask 01111000
136 -19 50 -24 -30 vvcurveto
-31 -48 -28 -176 15 vhcurveto
hintmask 10111000
75 callgsubr
                </CharString>
                <CharString name="five.small">
                    -2 39 callsubr
252 101 vstem
353 149 -104 callsubr
endchar
                </CharString>
                <CharString name="five.sup">
                    -127 359 92 121 -20 156.5 90.5 hstem
342 101 vstem
443 510 -104 callsubr
endchar
                </CharString>
                <CharString name="fiveeighths">
                    509 -11 82 177 92 23 90 -42 callsubr
90.5 16 -20 hstemhm
328 101 251 14 callgsubr
hintmask 1011010110000000
332 -23 rmoveto
hintmask 1010110110000000
-69 callsubr
746 87 -105 callsubr
-24 callgsubr
hintmask 1011011010000000
-69 callgsubr
hintmask 1010110110000000
13 callsubr
hintmask 1111011010000000
-581 282 -104 callsubr
421 -328 rmoveto
-39 -32 16 27 17 11 19 61 36 hvcurveto
35 -27 29 -24 -23 vvcurveto
-23 -27 -18 -38 vhcurveto
endchar
                </CharString>
                <CharString name="fiveeighths.afrc">
                    -72 -1 callsubr
75 87 88 -3 callgsubr
34 14 callgsubr
28 101 hintmask 1011110110101000
24 callsubr
hintmask 1011101110101000
136 -19 50 -24 -30 vvcurveto
-31 -48 -28 -176 15 vhcurveto
hintmask 1011110110101000
-12 -96 rlineto
-52 callgsubr
hintmask 1011101110111000
-439 -326 -60 callgsubr
hintmask 1101101110101000
-24 callgsubr
hintmask 1011101111001000
-69 callgsubr
hintmask 1011101110111000
13 callsubr
hintmask 1011101111011000
-92 callgsubr
                </CharString>
                <CharString name="fivesixths">
                    509 -11 84 callsubr
-22 -43 callgsubr
16 -20 hstemhm
328 101 262 64 callgsubr
hintmask 11010111
338 -23 rmoveto
hintmask 11001111
-69 callsubr
576 -41 rmoveto
100 80 64 101 109 -111 43 -109 -71 hvcurveto
26 52 59 52 130 27 -22 89 rcurveline
-221 -57 -87 -128 -128 vvcurveto
-101 63 -52 92 vhcurveto
hintmask 10110111
-417 410 -104 callsubr
434 -329 28 callgsubr
hvcurveto
hintmask 11010111
27 callsubr
vhcurveto
7 callsubr
hintmask 10110111
4 callsubr
                </CharString>
                <CharString name="fivesixths.afrc">
                    -72 -244 84 callsubr
258 87 88 -3 callgsubr
45 64 callgsubr
12 101 hintmask 1111011111000000
24 callsubr
hintmask 1110111111000000
136 -19 50 -24 -30 vvcurveto
-31 -48 -28 -176 15 vhcurveto
hintmask 1111011110000000
-12 -96 rlineto
hintmask 1111011111000000
-52 callgsubr
hintmask 1110111110000000
-439 -326 -64 callsubr
130 -626 -98 callgsubr
                </CharString>
                <CharString name="four">
                    11 21 -21 127 112.5 448.5 -20 29 -20 hstemhm
47 525 hintmask 11011000
536 127 rmoveto
36 112 rlineto
-76 hlineto
44 227 -118 -11 -42 -216 -211 1 rlineto
hintmask 11101000
87 121 61 120 71 207 rrcurveto
hintmask 11011000
-136 9 -64 -209 -54 -129 -85 -148 rlinecurve
-2 -84 rlineto
311 hlineto
-25 -127 rlineto
116 hlineto
25 127 rlineto
endchar
                </CharString>
                <CharString name="four.den">
                    2 callsubr
hstemhm
-13 368 hintmask 01100000
330 -23 callsubr
                </CharString>
                <CharString name="four.den_afrc">
                    -72 -156 22 callgsubr
hstem
33 368 vstem
376 -156 -83 callsubr
                </CharString>
                <CharString name="four.den_afrc2">
                    348 -156 22 callgsubr
hstem
243 368 vstem
586 -156 -83 callsubr
                </CharString>
                <CharString name="four.inf">
                    -127 -90 22 callgsubr
21.5 -21 hstemhm
18 368 hintmask 10100000
361 -90 66 callgsubr
rlineto
hintmask 01100000
-10 callsubr
hintmask 10100000
-1 callgsubr
-15 -77 rlineto
95 hlineto
15 77 rlineto
endchar
                </CharString>
                <CharString name="four.num">
                    327 26 callgsubr
159 -20 26 -20 hstemhm
91 368 hintmask 11011000
434 327 66 callgsubr
-112 1 rlineto
hintmask 11101000
50 73 36 75 42 123 rrcurveto
hintmask 11011000
-109 6 -38 -125 -34 -78 -49 -92 rlinecurve
-7 -72 rlineto
-37 callgsubr
endchar
                </CharString>
                <CharString name="four.num_afrc">
                    -72 549 26 callgsubr
hstem
155 368 -13 callgsubr
endchar
                </CharString>
                <CharString name="four.num_afrc2">
                    348 549 26 callgsubr
hstem
364 368 vstem
707 549 -83 callsubr
                </CharString>
                <CharString name="four.small">
                    2 callsubr
hstemhm
15 368 hintmask 01100000
358 -23 callsubr
                </CharString>
                <CharString name="four.sup">
                    -127 438 22 callgsubr
hstem
105 368 vstem
448 438 -83 callsubr
                </CharString>
                <CharString name="fourfifths">
                    509 -2 92 237 22 callgsubr
-69 90.5 111 -20 159 -20 26 -20 30 -20 hstemhm
916 101 hintmask 10110011
341 -23 rmoveto
-69 callsubr
hintmask 11011001
161 297 rmoveto
25 88 rlineto
-52 hlineto
26 134 -97 -8 -49 callgsubr
hintmask 11010101
-109 6 -38 -125 -34 -78 -49 -92 rlinecurve
-7 -72 rlineto
-37 callgsubr
627 -178 rmoveto
hintmask 10110011
53 -43 49 -135 26 vhcurveto
17 71 175 -1 26 91 rlineto
-277 hlineto
-50 -227 rlineto
136 -19 50 -24 -30 vvcurveto
-31 -48 -28 -176 15 vhcurveto
-12 -96 rlineto
hintmask 11010101
46 callsubr
                </CharString>
                <CharString name="fourfifths.afrc">
                    -72 -235 -43 callgsubr
90 87 167 26 callgsubr
hstem
270 101 -13 callgsubr
-400 -254 -23 callgsubr
                </CharString>
                <CharString name="fourperemspace">
                    -363 endchar
                </CharString>
                <CharString name="fraction">
                    -328 704 -20 hstem
-154 612 vstem
-86 -23 rmoveto
-69 callsubr
endchar
                </CharString>
                <CharString name="fraction.afrc">
                    -72 295 87 hstem
54 457 vstem
54 295 -64 callsubr
endchar
                </CharString>
                <CharString name="fraction.afrc2">
                    348 295 87 hstem
55 877 vstem
55 295 rmoveto
860 hlineto
17 87 rlineto
-861 hlineto
endchar
                </CharString>
                <CharString name="fraction.tab">
                    -328 704 -20 hstem
-154 612 vstem
-86 -23 rmoveto
-69 callsubr
endchar
                </CharString>
                <CharString name="g">
                    26 callsubr
51 callsubr
246 150 -91 callsubr
                </CharString>
                <CharString name="g.sc">
                    -3 callsubr
9 callsubr
hintmask 10111000
459 -103 -93 callgsubr
hintmask 01111000
15 callgsubr
                </CharString>
                <CharString name="gbreve">
                    26 callsubr
76 105 51 callsubr
565 854 -105 callgsubr
-392 -658 -91 callsubr
                </CharString>
                <CharString name="gbreve.sc">
                    -3 callsubr
71 105 9 callsubr
hintmask 10111100
568 882 -105 callgsubr
-182 -939 -93 callgsubr
hintmask 01111100
15 callgsubr
                </CharString>
                <CharString name="gcommaaccent">
                    26 callsubr
51 callsubr
513 860 41 callsubr
-267 -710 -91 callsubr
                </CharString>
                <CharString name="gcommaaccent.sc">
                    -3 callsubr
9 callsubr
hintmask 10111000
459 -103 -93 callgsubr
hintmask 01111000
-30 callsubr
-209 -244 -102 callsubr
                </CharString>
                <CharString name="gdotaccent">
                    26 callsubr
93.5 145 51 callsubr
462 663 -76 callsubr
-76 -512 -91 callsubr
                </CharString>
                <CharString name="gdotaccent.sc">
                    -3 callsubr
-35 callgsubr
9 callsubr
hintmask 10111100
464 691 -76 callsubr
135 -793 -93 callgsubr
hintmask 01111100
15 callgsubr
                </CharString>
                <CharString name="germandbls">
                    33 -11 116 -105 105 573 108 hstemhm
467 126 -121 117 hintmask 10110000
254 -11 rmoveto
hintmask 10101000
247 -3 88 92 90 vvcurveto
72 -60 75 -93 72 vhcurveto
hintmask 01110000
102 91 55 79 89 vvcurveto
73 -53 67 -107 -136 -115 -96 -279 -54 vhcurveto
-81 -411 rlineto
121 hlineto
80 417 rlineto
219 42 47 42 61 hhcurveto
45 24 -29 -36 -67 -41 -56 -141 -136 hvcurveto
hintmask 10101000
137 -100 50 -65 -44 vvcurveto
-45 -53 1 -148 10 vhcurveto
endchar
                </CharString>
                <CharString name="germandbls.sc">
                    438 -12 103 -87 87 407 101 hstemhm
99 128 100 130 156 128 100 130 hintmask 10111110
1017 432 -19 callsubr
-403 24 -19 callsubr
endchar
                </CharString>
                <CharString name="grave">
                    -46 619 249 hstem
137 300 vstem
437 675 -100 callsubr
endchar
                </CharString>
                <CharString name="grave.cap">
                    -46 619 249 hstem
137 300 vstem
437 675 -100 callsubr
endchar
                </CharString>
                <CharString name="greater">
                    11 62 547 hstem
85 476 vstem
122 62 rmoveto
412 200 27 135 -352 212 -63 -109 282 -161 -1 -10 -342 -156 rlineto
endchar
                </CharString>
                <CharString name="greaterequal">
                    11 0 112 hstem
31 527 vstem
212 635 rmoveto
-64 -106 271 -145 -1 -7 -327 -121 28 -103 416 158 23 122 rlineto
-48 -321 70 callsubr
                </CharString>
                <CharString name="guillemotleft">
                    159 3 -21 hstem
53 704 vstem
232 -18 -8 callsubr
                </CharString>
                <CharString name="guillemotleft.cap">
                    159 41 599 hstem
65 704 vstem
244 41 -8 callsubr
                </CharString>
                <CharString name="guillemotright">
                    170 5 -21 25 -21 hstemhm
28 705 hintmask 10100000
451 -16 rmoveto
250 224 32 154 59 callgsubr
hintmask 01100000
77 callsubr
53 callsubr
                </CharString>
                <CharString name="guillemotright.cap">
                    170 554 77 callgsubr
39 705 hintmask 01100000
462 41 rmoveto
250 224 32 154 rlineto
hintmask 10100000
59 callgsubr
77 callsubr
rlineto
hintmask 01100000
53 callsubr
                </CharString>
                <CharString name="guilsinglleft">
                    -171 3 -21 hstem
53 374 vstem
225 -18 25 callsubr
-80 103 -257 -214 -37 -153 rlineto
endchar
                </CharString>
                <CharString name="guilsinglleft.cap">
                    -171 44 595 hstem
65 374 vstem
237 44 25 callsubr
-80 103 -257 -214 -37 -153 rlineto
endchar
                </CharString>
                <CharString name="guilsinglright">
                    -167 4 -21 hstem
22 374 vstem
101 -17 31 callgsubr
                </CharString>
                <CharString name="guilsinglright.cap">
                    -167 557 -20 hstem
33 374 vstem
112 44 31 callgsubr
                </CharString>
                <CharString name="h">
                    64 6 callgsubr
212 61 callgsubr
hintmask 10111000
68 callsubr
hintmask 01110100
55 74 183 110 vvcurveto
59 -25 50 -84 -72 -81 -39 -78 -79 vhcurveto
64 329 -123 -12 -150 -771 rlineto
121 hlineto
66 340 rlineto
76 67 56 36 49 hhcurveto
42 13 -21 -33 hvcurveto
hintmask 10111000
60 callsubr
                </CharString>
                <CharString name="h.sc">
                    -17 callgsubr
                </CharString>
                <CharString name="hairspace">
                    -538 endchar
                </CharString>
                <CharString name="hbar">
                    64 6 callgsubr
55 90 67 61 callgsubr
hintmask 10111100
68 callsubr
hintmask 01111010
55 74 183 110 vvcurveto
59 -25 50 -84 -72 -81 -39 -78 -79 vhcurveto
34 172 rlineto
133 hlineto
18 90 rlineto
-134 hlineto
13 67 -123 -12 -11 -55 rlineto
-68 hlineto
-18 -90 rlineto
69 hlineto
-122 -626 rlineto
121 hlineto
66 340 rlineto
76 67 56 36 49 hhcurveto
42 13 -21 -33 hvcurveto
hintmask 10111100
60 callsubr
                </CharString>
                <CharString name="hbar.sc">
                    -54 callgsubr
                </CharString>
                <CharString name="hcoslug">
                    81 -100 100 6 12 -11 11 -11 18 -18 25 -25 41 -37 15 -13 10 -3 14 -11 9 0 16 -9 15 -15 20 -19 34 -19 19 -15 15 7 8 -1 13 -7 12 6 10 -9 43 -42 11 hstemhm
50 82 13 10 -10 22 -5 12 6 9 -2 16 -1 16 -2 9 12 13 -3 14 -14 56 -41 12 -1 9 4 16 -8 14 5 13 -6 7 8 17 -12 14 8 7 -5 15 -13 8 hintmask 001000000000001000001010001000100000100000010000
644 700 rmoveto
-594 hlineto
hintmask 100000000000000000001010000000001000000001000000
-800 594 vlineto
-397 528 rmoveto
-23 15 -14 23 -22 vhcurveto
11 17 7 16 17 vvcurveto
23 -12 15 -17 -16 -11 -12 -17 vhcurveto
65 -86 rmoveto
16 -16 12 -15 13 -15 19 33 5 24 -23 23 -9 -10 -14 -11 -19 -13 rrcurveto
-51 -123 rmoveto
15 12 3 9 11 hvcurveto
-28 35 -28 30 -18 17 rrcurveto
-11 -11 -5 -14 -15 vvcurveto
-31 22 -23 30 vhcurveto
121 45 rmoveto
-29 25 17 -12 20 hhcurveto
21 12 12 17 10 hvcurveto
7 -2 rlineto
-58 -2 -35 -36 -43 hhcurveto
-30 -22 11 34 -33 hvcurveto
-31 -28 -34 -14 -42 hhcurveto
-60 -49 40 53 42 29 31 53 18 hvcurveto
-21 22 -10 18 29 vvcurveto
43 42 42 67 62 33 -39 -35 -13 -3 -11 -6 -10 vhcurveto
27 1 20 -11 2 -27 rrcurveto
24 16 19 14 25 hhcurveto
28 22 -21 -31 -31 -22 -23 -28 -18 -16 10 15 -9 hvcurveto
-15 -9 -16 -13 -15 -20 rrcurveto
hintmask 000000000000000000001000000000000001000000000000
-96 -140 rmoveto
-11 13 -7 vlineto
hintmask 000000000000000000100000000000000001000000000000
-13 -20 hlineto
-3 1 -2 3 2 2 2 5 1 vhcurveto
5 -2 rlineto
hintmask 100000000000000000100000000000000100000000000000
-2 -9 -4 -4 -8 -8 -4 5 0 hflex1
20 -7 7 7 9 vlineto
hintmask 000000000000001000000000010000000000000000000000
-100 -28 rmoveto
hintmask 000000000000000000100000010001000000000000000000
45 callsubr
hintmask 000000000000001000000000000001000000000000000000
-12 -9 -9 -12 vhcurveto
hintmask 000000000000001000000000010000000000000000000000
-12 -9 8 13 hvcurveto
hintmask 000000000000000000100010000100000000000000100000
29 hmoveto
44 callgsubr
44 callsubr
176 -1 rmoveto
0 8 -2 5 -5 -6 -2 -6 0 hflex1
0 -8 2 -5 6 5 2 5 0 hflex1
-160 -12 rmoveto
6 hlineto
hintmask 000000000000000000100000000001000000000000000000
25 -6 7 vlineto
hintmask 000000000000000000001000000000100000000000000000
17 -10 hlineto
hintmask 000000000000000000001000000000000100000000000000
7 3 4 4 7 hhcurveto
9 3 -6 -8 hvcurveto
hintmask 000000000000000000100000000000000100000000000000
-19 6 -7 vlineto
hintmask 100000000000000000100000000000100000000000000000
-22 7 4 18 hlineto
4 -2 3 -4 -4 -3 -4 -6 vhcurveto
-15 4 -7 vlineto
hintmask 000000000000001000000010000000000000000000000000
-22 hlineto
hintmask 000000000000000010000010000000000000000000000000
-94 7 rmoveto
7 hlineto
hintmask 000000000000000000010010000000000000000000000000
41 -7 7 vlineto
hintmask 000000000000000000001000000100000000000000000000
51 hlineto
hintmask 000000000000000000100000000100000000000000000000
-20 -8 vlineto
hintmask 000000000000000000010001000000000000000000000000
11 -2 -2 2 -7 hhcurveto
-12 -18 4 hlineto
5 0 1 7 1 hvcurveto
7 hlineto
hintmask 000000000000000010000000010000000000000000000000
-23 -7 vlineto
7 -1 0 1 -5 hhcurveto
-4 hlineto
hintmask 000000000000000010000001000000000000000000000000
-16 10 -7 vlineto
hintmask 000000000000001000000010000000000000000000000000
-30 hlineto
hintmask 000000000000000000100000000000000001000000000000
177 14 rmoveto
7 hlineto
hintmask 000000000000000000000100000000000000010000000000
-6 4 3 -3 5 hhcurveto
3 2 2 2 hvcurveto
hintmask 000000000000000000000100000000000001000000000000
8 -24 -5 16 vvcurveto
6 5 6 9 5 4 -2 -3 2 vhcurveto
2 5 rlineto
6 hlineto
hintmask 100000000000000001000000000000000000000100000000
-13 -7 vlineto
4 -3 -3 3 -4 hhcurveto
-3 -2 -2 -2 hvcurveto
-8 24 6 -16 vvcurveto
-7 -5 -6 -9 vhcurveto
hintmask 100000000000000000000000000000000000010000000000
-7 -3 3 2 -3 hvcurveto
-1 -4 rlineto
-7 hlineto
hintmask 000000000000000000000100000000000000000100000000
50 51 rmoveto
-6 7 hlineto
hintmask 000000000000000000001000000000000000000000100000
18 hlineto
hintmask 100000000000000000000100000000000000000000100000
-27 vlineto
6 2 5 3 6 hhcurveto
9 6 -8 -12 -9 -4 -12 -12 -7 -4 3 5 -3 hvcurveto
-4 -8 rlineto
-6 hlineto
53 -8 rmoveto
4 3 3 5 1 hvcurveto
-4 10 -12 23 0 vvcurveto
-5 7 hlineto
hintmask 000000000000000000001000000000000000000000000000
25 -7 -6 hlineto
hintmask 100000000000100000001000000000000000000000100000
9 -20 8 20 rlineto
-5 7 17 -7 -5 hlineto
-13 -31 rlineto
-10 -4 -5 -6 -9 hhcurveto
-7 -4 4 5 4 3 3 4 hvcurveto
hintmask 100000000000000000000100000000000000000000100000
7 1 -7 -3 -3 hvcurveto
hintmask 000000000010000000000000000000000000000000000000
59 -32 rmoveto
-7 -5 vlineto
hintmask 000000100000000000000000000000000000000000000000
-3 -6 -3 -4 -3 -4 rrcurveto
2 -3 2 -2 2 2 1 1 1 hflex1
5 -1 rlineto
80 callsubr
-7 -2 -3 -5 -8 hhcurveto
-5 0 -3 1 -4 5 -4 -4 -5 -2 -6 flex1
-12 -6 6 8 hvcurveto
hintmask 000010000000000000000000000000000000000000000000
8 6 5 7 2 vhcurveto
-4 4 -2 3 5 vvcurveto
7 7 7 10 9 5 -6 -6 vhcurveto
-6 -4 -3 -7 -3 vhcurveto
hintmask 000000100000000000000000000000000000000000000000
5 -5 3 -4 4 -4 2 2 3 4 1 3 rrcurveto
-6 7 hlineto
hintmask 100000000001000000000000000000000000100000000000
-152 6 rmoveto
14 5 hlineto
-3 -3 2 4 2 1 1 0 hvcurveto
0 -1 1 -2 -3 -3 -2 -10 vhcurveto
175 -15 rmoveto
81 callgsubr
18 13 12 14 vhcurveto
7 5 -3 -4 4 hvcurveto
1 6 rlineto
8 hlineto
-22 -8 vlineto
hintmask 000000000010000000000000000000000000000000000000
12 -4 -3 4 -8 hhcurveto
-8 -6 -6 -16 hvcurveto
hintmask 010000000000000000000000000000000000000000000000
-15 6 -7 10 8 5 7 9 1 vhcurveto
8 hlineto
80 callsubr
-14 -1 -8 -9 -15 hhcurveto
hintmask 100000000001000000000000000000000000100000000000
-18 -11 11 17 hvcurveto
hintmask 000001000000000000000000000000000000000000000000
-38 6 rmoveto
3 2 2 3 4 vvcurveto
3 -2 3 -4 -3 -2 -2 -3 -3 2 -3 4 -4 vhcurveto
hintmask 001000000000000000000000000000010000000000000000
-184 -15 rmoveto
hintmask 010000000000000000000000000000010000000000000000
74 callsubr
hintmask 100000000000010000000000000010000010000000000000
58 callsubr
hintmask 001000000000000000000000000000000010000000000000
14 6 -9 -13 -1 hvcurveto
hintmask 100000000010000000000000001000010000000000000000
-84 2 rmoveto
45 callsubr
-12 -9 -9 -12 -12 -9 8 13 vhcurveto
336 hmoveto
81 callgsubr
45 callsubr
80 callsubr
-12 -9 -9 -12 vhcurveto
hintmask 100000000010000000000000001000010000000000000000
-12 -9 8 13 hvcurveto
hintmask 001000000000000000000000000000000000000010000000
-185 -2 rmoveto
hintmask 010000000000000000000000000000000000000010000000
74 callsubr
hintmask 100000000000010000000000000000000000001000010000
58 callsubr
hintmask 001000000000000000000000000000000000000000010000
14 6 -9 -13 -1 hvcurveto
hintmask 000000010000000000000000000000010000000000000000
-119 5 rmoveto
hintmask 000000000100000000000000000000010000000000000000
14 hlineto
hintmask 000000010000000000000000000000010000000000000000
79 callgsubr
hintmask 001000000000000000000000000010000000000000000000
-29 -3 rmoveto
hintmask 000000000010000000000000000010000000000000000000
44 callgsubr
hintmask 001000000000000000000000000010000000000000000000
44 callsubr
46 callgsubr
336 hmoveto
81 callgsubr
44 callgsubr
46 callgsubr
44 callsubr
hintmask 000000010000000000000000000000000000000010000000
-214 3 rmoveto
hintmask 000000000100000000000000000000000000000010000000
14 hlineto
hintmask 000000010000000000000000000000000000000010000000
79 callgsubr
hintmask 001000000000000000000000000000000010000000000000
-64 -16 rmoveto
6 hlineto
hintmask 000010000000000000000000000000000010000000000000
25 -7 7 7 1 vlineto
hintmask 001000000000000100000000000000000010001000000000
13 9 6 10 3 4 -1 -1 2 vhcurveto
10 2 rlineto
-52 6 -7 vlineto
hintmask 100000000000000000000000000000000000100000000000
-23 7 5 hlineto
hintmask 000010000000000000000000000000000000100000000000
25 -14 vlineto
hintmask 001000000000000000000000000000000000100000000000
-25 5 -7 vlineto
hintmask 100000000000000000000000000000000010000000000000
-23 hlineto
hintmask 001000000000000000000000000000000000001000000000
92 7 rmoveto
6 hlineto
hintmask 000000100000000000000000000000000000000000010000
25 -6 7 vlineto
hintmask 000000000000010000000000000000000000000000000000
18 -10 hlineto
8 3 4 3 5 hhcurveto
5 3 -3 -5 -4 -3 -3 -4 -3 -3 2 4 hvcurveto
1 vlineto
-2 -3 -4 -5 -2 hvcurveto
46 callgsubr
-16 8 -7 vlineto
hintmask 100000000000000000000000000000000000001000000000
-26 hlineto
46 callgsubr
69 9 rmoveto
hintmask 000100000000000000000000000000000000000000000000
-5 6 -4 5 -5 5 rrcurveto
-2 -2 -2 -3 -4 vvcurveto
-6 4 -4 6 vhcurveto
46 callgsubr
2 3 1 2 3 hvcurveto
hintmask 001000000000000000000010000000000000000000000000
-313 -2 rmoveto
8 hlineto
hintmask 000000000010000000000010000000000000000000000000
41 -8 7 vlineto
hintmask 000000000000001000000000100000000000000000000000
29 -7 -8 hlineto
hintmask 000000000010000000000000100000000000000000000000
-16 22 16 -8 7 vlineto
hintmask 001000000000001000000000001000000000000000000000
29 -7 -8 -41 8 -7 hlineto
hintmask 100000000000000000000000100000000000000000000000
-29 7 8 hlineto
hintmask 000100000000000000000000100000000000000000000000
18 -22 vlineto
hintmask 001000000000000000000000100000000000000000000000
-18 8 -7 vlineto
hintmask 100000000000000000000010000000000000000000000000
-29 hlineto
459 6 rmoveto
0 -4 -3 -3 -4 -4 -3 3 0 hflex1
0 4 3 3 4 4 3 -3 0 hflex1
endchar
                </CharString>
                <CharString name="hungarumlaut">
                    -46 627 265 hstem
146 463 vstem
204 628 -86 callgsubr
7 callgsubr
endchar
                </CharString>
                <CharString name="hungarumlaut.cap">
                    -46 627 265 hstem
146 463 vstem
204 628 -86 callgsubr
7 callgsubr
endchar
                </CharString>
                <CharString name="hyphen">
                    -171 278 109 hstem
63 326 vstem
389 387 rmoveto
-306 hlineto
-20 -109 rlineto
306 hlineto
endchar
                </CharString>
                <CharString name="hyphen.tab">
                    11 278 109 hstem
119 407 vstem
526 387 rmoveto
-387 hlineto
-20 -109 rlineto
388 hlineto
endchar
                </CharString>
                <CharString name="i">
                    1 callsubr
105 145.5 55 callgsubr
353 650 rmoveto
48 146 -151 -9 -36 -145 rlineto
202 -579 -88 callsubr
                </CharString>
                <CharString name="i.dot">
                    1 callsubr
105 145.5 55 callgsubr
353 650 rmoveto
48 146 -151 -9 -36 -145 rlineto
202 -579 -88 callsubr
                </CharString>
                <CharString name="i.sc">
                    -25 callsubr
hstem
17 491 vstem
288 98 -102 callgsubr
                </CharString>
                <CharString name="iacute">
                    1 callsubr
55 callgsubr
161 688 -107 callgsubr
255 -625 -88 callsubr
                </CharString>
                <CharString name="iacute.sc">
                    -25 callsubr
hstem
17 527 vstem
221 715 -107 callgsubr
67 -617 -102 callgsubr
                </CharString>
                <CharString name="ibreve">
                    1 callsubr
91 105 55 callgsubr
444 841 -105 callgsubr
-101 -732 -88 callsubr
                </CharString>
                <CharString name="ibreve.sc">
                    -25 callsubr
71 105 hstem
17 560 vstem
504 868 -105 callgsubr
-289 -724 -102 callgsubr
                </CharString>
                <CharString name="icircumflex">
                    1 callsubr
155 76 callsubr
103 126 hintmask 11011000
391 625 36 callsubr
119 -670 -88 callsubr
                </CharString>
                <CharString name="icircumflex.sc">
                    -25 callsubr
hstem
17 524 vstem
451 652 -88 callgsubr
-69 -662 -102 callgsubr
                </CharString>
                <CharString name="idieresis">
                    1 callsubr
108.5 -42 callsubr
55 callgsubr
451 652 -104 callgsubr
327 -585 -88 callsubr
                </CharString>
                <CharString name="idieresis.sc">
                    -25 callsubr
-9 callgsubr
17 543 vstem
512 679 -104 callgsubr
138 -577 -102 callgsubr
                </CharString>
                <CharString name="idotaccent.sc">
                    -25 callsubr
-31 callgsubr
17 491 vstem
401 677 -76 callsubr
27 -578 -102 callgsubr
                </CharString>
                <CharString name="igrave">
                    1 callsubr
55 callgsubr
389 681 -100 callsubr
56 -562 -88 callsubr
                </CharString>
                <CharString name="igrave.sc">
                    -25 callsubr
120 -20 hstem
17 491 vstem
450 708 -100 callsubr
-133 -554 -102 callgsubr
                </CharString>
                <CharString name="imacron">
                    1 callsubr
124 112 55 callgsubr
483 777 -76 callgsubr
-45 -602 -88 callsubr
                </CharString>
                <CharString name="imacron.sc">
                    -25 callsubr
88 callgsubr
17 527 vstem
544 804 -76 callgsubr
-234 -594 -102 callgsubr
                </CharString>
                <CharString name="iogonek">
                    -190 -231 89 153 -21 571 -20 119.5 145 hstemhm
84 115 -96 126 hintmask 11110100
356 665 rmoveto
47 145 -151 -9 -36 -145 rlineto
hintmask 11111000
133 -835 rmoveto
40 callsubr
-37 16 34 vvcurveto
42 66 54 151 74 vhcurveto
-14 61 rlineto
hintmask 11110100
-177 -39 -13 4 28 117 82 355 rcurveline
-120 -9 -119 -135 77 -51 -46 -184 -27 -105 21 -72 70 -15 rlinecurve
hintmask 11111000
-62 -46 -32 -50 -44 vvcurveto
-75 93 -49 172 95 vhcurveto
endchar
                </CharString>
                <CharString name="iogonek.sc">
                    -41 callgsubr
                </CharString>
                <CharString name="j">
                    -231 -189 125 626 -20 105.5 149.5 hstem
168 96.32 vstem
371 652 rmoveto
48 149 -151 -8 -37 -150 rlineto
-325 -832 rmoveto
144 4 88 10 50 50 86 85 -69 150 137 452 -122 -9 rcurveline
-135 -127 83 -74 -56 -262 21 -111 -27 -27 rlinecurve
-19 -19 -43 0 -127 8 rrcurveto
endchar
                </CharString>
                <CharString name="j.sc">
                    -27 callsubr
                </CharString>
                <CharString name="k">
                    -39 callgsubr
endchar
                </CharString>
                <CharString name="k.sc">
                    -74 callgsubr
endchar
                </CharString>
                <CharString name="kcommaaccent">
                    -39 callgsubr
-95 -514 -102 callsubr
                </CharString>
                <CharString name="kcommaaccent.sc">
                    -74 callgsubr
-139 -884 -102 callsubr
                </CharString>
                <CharString name="l">
                    69 callgsubr
468 74 -89 callsubr
endchar
                </CharString>
                <CharString name="l.sc">
                    -105 0 104 484 -20 hstem
40 390 vstem
410 hmoveto
-11 callgsubr
                </CharString>
                <CharString name="l.ultra">
                    52 callsubr
429 74 -86 callsubr
endchar
                </CharString>
                <CharString name="lacute">
                    69 callgsubr
340 904 -107 callgsubr
128 -830 -89 callsubr
endchar
                </CharString>
                <CharString name="lacute.sc">
                    -19 callgsubr
                </CharString>
                <CharString name="lacute.ultra">
                    52 callsubr
301 904 -107 callgsubr
128 -830 -86 callsubr
endchar
                </CharString>
                <CharString name="lcaron">
                    69 callgsubr
611 887 -59 callgsubr
-283 -820 -89 callsubr
endchar
                </CharString>
                <CharString name="lcaron.sc">
                    -15 callgsubr
                </CharString>
                <CharString name="lcaron.ultra">
                    52 callsubr
572 887 -59 callgsubr
-283 -820 -86 callsubr
endchar
                </CharString>
                <CharString name="lcommaaccent">
                    69 callgsubr
468 74 -89 callsubr
-274 -950 -102 callsubr
                </CharString>
                <CharString name="lcommaaccent.sc">
                    -105 0 104 484 -20 hstem
40 390 vstem
410 hmoveto
-70 callsubr
53 -287 -102 callsubr
                </CharString>
                <CharString name="lcommaaccent.ultra">
                    52 callsubr
429 74 -86 callsubr
-274 -950 -102 callsubr
                </CharString>
                <CharString name="ldot">
                    -7 78 callgsubr
406 126 vstem
468 74 -89 callsubr
234 -386 rmoveto
28 144 rlineto
-128 hlineto
-27 -144 rlineto
endchar
                </CharString>
                <CharString name="ldot.sc">
                    -13 callsubr
                </CharString>
                <CharString name="ldot.ultra">
                    -28 -11 103 174 144 242 12 callsubr
429 74 -86 callsubr
252 -386 rmoveto
28 144 rlineto
-128 hlineto
-28 -144 rlineto
endchar
                </CharString>
                <CharString name="less">
                    11 599 -20 hstem
85 476 vstem
437 52 rmoveto
63 110 -283 160 3 11 341 155 -38 111 -412 -199 -26 -136 rlineto
endchar
                </CharString>
                <CharString name="lessequal">
                    11 0 112 hstem
31 545 vstem
536 635 rmoveto
-408 -202 -27 -122 372 -158 46 107 -274 114 1 7 330 153 rlineto
-66 -422 70 callsubr
                </CharString>
                <CharString name="lslash">
                    -107 -11 103 560 132 76 93 hstem
90 86 230 126 vstem
90 787 rmoveto
-49 28 65 callsubr
197 18 266 -75 vhcurveto
40 104 rlineto
-342 86 -247 -60 -153 vvcurveto
378 -713 -89 callsubr
endchar
                </CharString>
                <CharString name="lslash.sc">
                    -18 callsubr
                </CharString>
                <CharString name="lslash.ultra">
                    -146 -11 103 560 132 76 93 hstemhm
52 85 -77 125 182 126 hintmask 11110100
52 787 rmoveto
-49 27 65 callsubr
198 18 265 -75 vhcurveto
40 104 rlineto
-342 86 -246 -60 -153 vvcurveto
hintmask 11101100
377 -713 -86 callsubr
endchar
                </CharString>
                <CharString name="m">
                    348 -10 109 -78 -21 453 118 -12 -20 hstemhm
431 122 118 133 -62 135 hintmask 10011100
925 45 callgsubr
hintmask 10101010
55 73 183 110 vvcurveto
59 -21 50 -84 -70 -75 -39 -78 -74 vhcurveto
83 -36 34 -64 -63 -69 -37 -74 -68 vhcurveto
hintmask 01011010
13 99 -122 -8 -20 -164 -26 -124 -51 -263 rlinecurve
121 hlineto
hintmask 01101010
73 361 rlineto
62 49 49 30 46 hhcurveto
46 8 -29 -74 -15 hvcurveto
-72 -350 rlineto
121 hlineto
77 363 rlineto
60 55 45 29 42 hhcurveto
40 10 -22 -34 hvcurveto
hintmask 10011100
60 callgsubr
                </CharString>
                <CharString name="m.sc">
                    -35 callsubr
                </CharString>
                <CharString name="macron">
                    -46 659 112 hstem
105 379 vstem
484 771 -76 callgsubr
endchar
                </CharString>
                <CharString name="macron.cap">
                    -46 659 112 hstem
105 379 vstem
484 771 -76 callgsubr
endchar
                </CharString>
                <CharString name="minus">
                    11 276 113 hstem
85 478 vstem
563 389 rmoveto
-456 41 callgsubr
456 hlineto
endchar
                </CharString>
                <CharString name="mu">
                    62 -173 -21 178 119 -113 109 -94 -21 40 -21 552 -20 27 -20 hstemhm
404 122 hintmask 10100011
134 -183 rmoveto
hintmask 10001011
32 186 rlineto
hintmask 10010011
-13 15 19 -6 22 hhcurveto
58 56 41 78 68 hvcurveto
hintmask 10100101
-12 -118 64 -43 197 114 -15 58 rcurveline
-117 -23 -1 0 10 52 83 412 rcurveline
-120 hlineto
-70 -348 rlineto
hintmask 11000011
-70 -58 -45 -34 -49 hhcurveto
-46 -24 31 69 15 hvcurveto
77 359 -123 -9 -158 -747 rlineto
endchar
                </CharString>
                <CharString name="multiply">
                    11 564 -20 hstem
63 522 vstem
438 92 rmoveto
95 79 -124 155 176 146 -74 92 -176 -146 -124 155 -94 -80 123 -154 -177 -148 74 -92 177 148 rlineto
endchar
                </CharString>
                <CharString name="n">
                    67 6 callgsubr
-12 61 callgsubr
hintmask 10011000
644 54 -73 callgsubr
endchar
                </CharString>
                <CharString name="n.sc">
                    -62 callgsubr
hstemhm
40 599 hintmask 01001100
393 hmoveto
-6 callsubr
                </CharString>
                <CharString name="nacute">
                    67 6 callgsubr
-12 -20 237 61 callgsubr
hintmask 10011010
292 698 -107 callgsubr
hintmask 10011100
352 -644 -11 callsubr
hintmask 10101010
55 74 183 110 vvcurveto
59 -25 50 -84 -73 -83 -40 -81 -80 vhcurveto
hintmask 01011010
14 109 -122 -8 -20 -164 -26 -124 -51 -263 rlinecurve
121 hlineto
70 349 rlineto
hintmask 10101010
70 66 56 33 48 hhcurveto
40 13 -22 -34 hvcurveto
hintmask 10011100
60 callgsubr
                </CharString>
                <CharString name="nacute.sc">
                    -48 callsubr
                </CharString>
                <CharString name="naira">
                    11 21 -21 172.5 107 -99.5 94.5 -93 107 97 107 -98 107 -99 95.5 190 77 callgsubr
7 630 hintmask 1010001011000000
236 485 rmoveto
7 hlineto
48 -210 -95 -1 rlineto
213 -68 rmoveto
-42 196 87 1 -37 -197 rlineto
-63 -206 rmoveto
119 hlineto
hintmask 1001010101000000
35 181 68 1 22 107 -69 -1 20 106 67 1 21 107 -67 -1 36 187 rlineto
-99 hlineto
hintmask 1010001011000000
-35 -189 -126 -2 -42 195 -129 -8 rlineto
hintmask 1100100011000000
-37 -191 -69 -1 -21 -107 70 1 -21 -106 -69 -1 -21 -107 69 1 -33 -173 rlineto
102 hlineto
hintmask 1010001011000000
34 179 134 2 rlineto
endchar
                </CharString>
                <CharString name="ncaron">
                    67 6 callgsubr
-12 61 callgsubr
hintmask 10010100
406 630 -94 callgsubr
hintmask 10011000
396 -739 -73 callgsubr
endchar
                </CharString>
                <CharString name="ncaron.sc">
                    -45 callgsubr
                </CharString>
                <CharString name="ncommaaccent">
                    67 6 callgsubr
-12 61 callgsubr
hintmask 10011000
644 54 -73 callgsubr
-476 -352 -102 callsubr
                </CharString>
                <CharString name="ncommaaccent.sc">
                    -62 callgsubr
hstemhm
40 599 hintmask 01001100
393 hmoveto
-80 callsubr
-90 -710 -102 callsubr
                </CharString>
                <CharString name="nine">
                    11 2 -21 284 98 235 106 hstem
104 115 238 117 vstem
137 -19 rmoveto
311 98 126 195 191 vvcurveto
155 -86 84 -126 -136 -122 -100 -156 -173 171 -71 159 120 vhcurveto
-37 -85 -91 -91 -201 -53 rrcurveto
114 373 rmoveto
69 39 61 78 62 59 -42 -126 -7 0 -8 -1 -8 vhcurveto
-130 -85 -107 46 100 vvcurveto
endchar
                </CharString>
                <CharString name="nine.den">
                    3 -21 185 54 callsubr
18 55 callsubr
46 -18 -97 callgsubr
                </CharString>
                <CharString name="nine.den_afrc">
                    -72 -66 54 callsubr
64 55 callsubr
92 -251 -97 callgsubr
                </CharString>
                <CharString name="nine.den_afrc2">
                    348 -66 54 callsubr
274 55 callsubr
302 -251 -97 callgsubr
                </CharString>
                <CharString name="nine.inf">
                    -127 -164 -21 185 54 callsubr
49 55 callsubr
77 -185 -97 callgsubr
                </CharString>
                <CharString name="nine.num">
                    417 54 callsubr
122 55 callsubr
150 232 -97 callgsubr
                </CharString>
                <CharString name="nine.num_afrc">
                    -72 639 54 callsubr
186 55 callsubr
214 454 -97 callgsubr
                </CharString>
                <CharString name="nine.num_afrc2">
                    348 639 54 callsubr
395 55 callsubr
423 454 -97 callgsubr
                </CharString>
                <CharString name="nine.small">
                    3 -21 185 54 callsubr
46 55 callsubr
74 -18 -97 callgsubr
                </CharString>
                <CharString name="nine.sup">
                    -127 528 72 -37 37 128 81 hstemhm
136 97 139 99 hintmask 10111000
164 343 rmoveto
221 57 86 129 127 vvcurveto
101 -63 52 -92 -100 -80 -64 -101 vhcurveto
hintmask 01111000
-109 111 -43 109 71 vhcurveto
-25 -52 -60 -52 -129 -27 rrcurveto
hintmask 10111000
91 225 rmoveto
37 20 34 46 37 36 -24 -67 vhcurveto
-4 0 -5 -4 vvcurveto
-81 -46 -58 25 54 vvcurveto
endchar
                </CharString>
                <CharString name="notequal">
                    11 18 -21 168 79 callsubr
520 165 rmoveto
36 callgsubr
-193 hlineto
71 120 rlineto
145 hlineto
23 113 rlineto
-101 hlineto
74 126 -92 42 -99 -168 rlineto
-239 41 callgsubr
194 hlineto
-70 -120 rlineto
-147 41 callgsubr
102 hlineto
-75 -127 92 -41 99 168 rlineto
endchar
                </CharString>
                <CharString name="ntilde">
                    67 6 callgsubr
-12 -20 109 102 -54 -20 66 102 18 callsubr
hintmask 1001100010000000
511 750 rmoveto
hintmask 1001011010000000
-78 callsubr
hintmask 1001100010000000
-81 callsubr
hintmask 1001011100000000
133 -696 -11 callsubr
hintmask 1010011010000000
55 74 183 110 vvcurveto
59 -25 50 -84 -73 -83 -40 -81 -80 vhcurveto
hintmask 0101011010000000
14 109 -122 -8 -20 -164 -26 -124 -51 -263 rlinecurve
121 hlineto
70 349 rlineto
hintmask 1010011010000000
70 66 56 33 48 hhcurveto
40 13 -22 -34 hvcurveto
hintmask 1001011100000000
60 callgsubr
                </CharString>
                <CharString name="ntilde.sc">
                    -65 callsubr
                </CharString>
                <CharString name="numbersign">
                    11 12 -21 33 -21 546 -20 39 -20 137 -20 44 -20 hstemhm
41 559 hintmask 01010110
258 279 rmoveto
21 111 102 20 -20 -111 rlineto
hintmask 10010110
-156 -308 rmoveto
31 169 103 20 rlineto
hintmask 01010110
-33 -177 95 11 35 185 96 19 23 119 -97 -19 21 111 97 19 24 120 rlineto
hintmask 01100110
-99 -19 30 160 -97 -11 -31 -168 -102 -20 rlineto
hintmask 10011010
32 175 -95 -11 -34 -183 -94 -18 -23 -120 94 18 -20 -110 -96 -19 -24 -120 97 19 -30 -162 rlineto
endchar
                </CharString>
                <CharString name="numero">
                    557 0 108 80 105 204 195 -104 106 -6 -20 hstemhm
676 123 208 122 hintmask 11010110
1129 498 rmoveto
124 -67 72 -103 -146 -137 -147 -164 -123 68 -72 102 147 136 146 164 vhcurveto
-122 -24 rmoveto
-94 -43 -87 -79 -59 -27 40 74 95 43 86 79 58 28 -40 -74 vhcurveto
-632 -474 rmoveto
137 hlineto
hintmask 11001110
133 688 rlineto
-114 hlineto
-87 -456 rlineto
-8 hlineto
hintmask 11010110
-90 460 -160 -8 -132 -684 rlineto
114 hlineto
hintmask 11100110
94 497 rlineto
10 hlineto
335 -497 rmoveto
424 hlineto
21 108 rlineto
-424 hlineto
endchar
                </CharString>
                <CharString name="o">
                    19 callgsubr
27 callgsubr
52 211 -99 callgsubr
                </CharString>
                <CharString name="o.sc">
                    -61 callgsubr
381 602 -107 callsubr
                </CharString>
                <CharString name="oacute">
                    19 callgsubr
205 -20 27 callgsubr
262 699 -107 callgsubr
-210 -488 -99 callgsubr
                </CharString>
                <CharString name="oacute.sc">
                    -61 callgsubr
289 729 -107 callgsubr
92 -127 -107 callsubr
                </CharString>
                <CharString name="obreve">
                    19 callgsubr
71 105 27 callgsubr
545 852 -105 callgsubr
-566 -595 -99 callgsubr
                </CharString>
                <CharString name="obreve.sc">
                    38 -13 105 404 106 71 105 hstem
53 126 299 126 vstem
572 882 -105 callgsubr
-264 -234 -107 callsubr
                </CharString>
                <CharString name="ocircumflex">
                    19 callgsubr
135 -20 22 -20 72 callgsubr
hintmask 11011100
492 636 rmoveto
90 73 -158 163 rlineto
hintmask 11101100
-228 -165 rlineto
hintmask 11011100
56 -66 146 103 rlineto
-346 -533 -99 callgsubr
                </CharString>
                <CharString name="ocircumflex.sc">
                    -61 callgsubr
519 666 -88 callgsubr
-44 -172 -107 callsubr
                </CharString>
                <CharString name="odieresis">
                    19 callgsubr
-9 callgsubr
2 callgsubr
vstem
552 663 -104 callgsubr
-138 -448 -99 callgsubr
                </CharString>
                <CharString name="odieresis.sc">
                    38 -13 105 404 106 -9 callgsubr
53 126 299 126 vstem
580 693 -104 callgsubr
163 -87 -107 callsubr
                </CharString>
                <CharString name="oe">
                    316 -16 105 -102 113 103 79 180 110 -105 105 hstemhm
52 125 261 103 234 120 hintmask 01001111
438 314 rmoveto
hintmask 10001111
-112 -58 -113 -95 -68 -40 56 97 112 58 113 95 vhcurveto
hintmask 01001111
68 40 -56 -97 hvcurveto
hintmask 01110111
268 148 rmoveto
45 24 -27 -39 -72 -90 -34 -137 -8 hvcurveto
95 20 59 85 79 hhcurveto
165 -393 rmoveto
-14 59 -247 22 callsubr
rlinecurve
219 15 135 77 137 vvcurveto
hintmask 10001111
85 -54 55 -94 -84 -75 -45 -67 -56 vhcurveto
72 -29 -58 40 -83 hhcurveto
-158 -152 -169 -192 -142 79 -85 121 76 71 38 61 54 hvcurveto
hintmask 01110111
47 -104 131 -41 240 131 rrcurveto
endchar
                </CharString>
                <CharString name="oe.sc">
                    -45 callsubr
                </CharString>
                <CharString name="ogonek">
                    -9 callsubr
                </CharString>
                <CharString name="ogonek.cap">
                    -9 callsubr
                </CharString>
                <CharString name="ograve">
                    19 callgsubr
120 -20 106 -20 27 callgsubr
490 692 -100 callsubr
-409 -425 -99 callgsubr
                </CharString>
                <CharString name="ograve.sc">
                    -61 callgsubr
518 722 -100 callsubr
-108 -64 -107 callsubr
                </CharString>
                <CharString name="ohungarumlaut">
                    19 callgsubr
120 -20 21 -20 72 callgsubr
hintmask 11011100
248 645 -86 callgsubr
hintmask 11101100
7 callgsubr
-350 -481 -99 callgsubr
                </CharString>
                <CharString name="ohungarumlaut.sc">
                    -61 callgsubr
275 675 -86 callgsubr
7 callgsubr
-48 -120 -107 callsubr
                </CharString>
                <CharString name="omacron">
                    19 callgsubr
104 112 27 callgsubr
584 788 -76 callgsubr
-510 -465 -99 callgsubr
                </CharString>
                <CharString name="omacron.sc">
                    38 -13 105 404 106 88 callgsubr
53 126 299 126 vstem
612 818 -76 callgsubr
-209 -104 -107 callsubr
                </CharString>
                <CharString name="one">
                    11 0 107 603 -20 hstem
59 472 vstem
499 hmoveto
32 107 rlineto
-160 hlineto
117 603 -124 -11 -17 -87 -167 -19 -15 -93 rlineto
161 hlineto
-76 -393 rlineto
-170 hlineto
-21 -107 rlineto
endchar
                </CharString>
                <CharString name="one.den">
                    0 -49 callsubr
hstem
-18 343 vstem
301 14 callsubr
                </CharString>
                <CharString name="one.den_afrc">
                    -72 -233 -49 callsubr
hstem
28 343 vstem
347 -233 -47 callsubr
                </CharString>
                <CharString name="one.den_afrc2">
                    348 -233 -49 callsubr
hstem
238 343 vstem
557 -233 -47 callsubr
                </CharString>
                <CharString name="one.inf">
                    -127 -167 -49 callsubr
hstem
13 343 vstem
332 -167 -47 callsubr
                </CharString>
                <CharString name="one.num">
                    250 -49 callsubr
82.5 -20 hstem
86 343 vstem
405 250 -47 callsubr
                </CharString>
                <CharString name="one.num_afrc">
                    -72 472 -49 callsubr
hstem
150 343 vstem
469 472 -47 callsubr
                </CharString>
                <CharString name="one.num_afrc2">
                    348 472 -49 callsubr
hstem
359 343 vstem
678 472 -47 callsubr
                </CharString>
                <CharString name="one.small">
                    0 -49 callsubr
hstem
10 343 vstem
329 14 callsubr
                </CharString>
                <CharString name="one.sup">
                    -127 361 -49 callsubr
hstem
100 343 vstem
419 361 -47 callsubr
                </CharString>
                <CharString name="oneeighth">
                    509 -11 82 179 88 25 90 91 10 callsubr
680 14 callgsubr
hintmask 1101010110000000
405 250 rmoveto
-103 callsubr
252 -273 rmoveto
hintmask 1111100110000000
-69 callsubr
740 87 -105 callsubr
-24 callgsubr
hintmask 1101011010000000
-69 callgsubr
hintmask 1111100110000000
13 callsubr
hintmask 1101011010000000
-92 callgsubr
                </CharString>
                <CharString name="oneeighth.afrc">
                    -72 -1 callsubr
75 87 90 -49 callsubr
hstemhm
34 14 callgsubr
hintmask 1011111011000000
469 472 rmoveto
-103 callsubr
-96 -177 -60 callgsubr
hintmask 1101111011000000
-24 callgsubr
hintmask 1011111101000000
-69 callgsubr
hintmask 1011111011000000
13 callsubr
hintmask 1011111101000000
-92 callgsubr
                </CharString>
                <CharString name="onefifth">
                    509 -2 92 160 88 9.5 90.5 106 10 callsubr
916 101 hintmask 11010110
405 250 rmoveto
-103 callsubr
252 -273 rmoveto
hintmask 11111010
-69 callsubr
747 119 -104 callsubr
endchar
                </CharString>
                <CharString name="onefifth.afrc">
                    -72 -235 -43 callgsubr
90 43 callsubr
270 101 vstem
469 472 rmoveto
-103 callsubr
-96 -177 -23 callgsubr
                </CharString>
                <CharString name="onehalf">
                    509 0 91 159 88 13 95 98 10 callsubr
926 111 hintmask 11010110
405 250 rmoveto
-103 callsubr
258 -273 rmoveto
hintmask 11111010
-69 callsubr
714 -30 -40 callgsubr
-29 callgsubr
-82 vlineto
endchar
                </CharString>
                <CharString name="onehalf.afrc">
                    -72 -233 91 260 95 82 43 callsubr
280 111 vstem
469 472 rmoveto
-103 callsubr
-96 -6 callgsubr
274 -615 -40 callgsubr
-29 callgsubr
-82 vlineto
endchar
                </CharString>
                <CharString name="onequarter">
                    509 2 callsubr
83.5 88 206 10 callsubr
86 961 hintmask 10110110
405 250 rmoveto
-103 callsubr
263 -273 rmoveto
hintmask 01111010
-69 callsubr
741 47 -65 callgsubr
rlineto
hintmask 10110110
-24 -125 -10 callsubr
hintmask 01110110
-1 callgsubr
hintmask 10110110
-15 -77 rlineto
95 hlineto
hintmask 01110110
15 77 rlineto
endchar
                </CharString>
                <CharString name="onequarter.afrc">
                    -72 -156 22 callgsubr
361.5 43 callsubr
33 478 vstem
469 472 rmoveto
-103 callsubr
-96 -6 callgsubr
306 -538 -83 callsubr
                </CharString>
                <CharString name="onesixth">
                    509 -11 84 callsubr
-20 88 206 10 callsubr
691 64 callgsubr
hintmask 10110111
405 250 rmoveto
-103 callsubr
258 -273 rmoveto
hintmask 11011011
-69 callsubr
570 -41 -98 callgsubr
                </CharString>
                <CharString name="onesixth.afrc">
                    -72 -244 84 callsubr
258 43 callsubr
45 83 callgsubr
469 472 rmoveto
-103 callsubr
-96 -6 callgsubr
130 -626 -98 callgsubr
                </CharString>
                <CharString name="onethird">
                    509 -6 93 -68 -21 252 88 9 91 106 10 callsubr
908 103 hintmask 10101011
405 250 rmoveto
-103 callsubr
258 -273 rmoveto
hintmask 10111101
-69 callsubr
735 103 rmoveto
46 -38 40 -95 25 vhcurveto
-99 callsubr
hintmask 01101011
-13 -96 rlineto
hintmask 10111101
23 callgsubr
                </CharString>
                <CharString name="onethird.afrc">
                    -72 50 callsubr
90 43 callsubr
262 103 vstem
469 472 rmoveto
-103 callsubr
-96 -6 callgsubr
295 -482 rmoveto
46 -38 40 -95 25 vhcurveto
8 callsubr
23 callgsubr
                </CharString>
                <CharString name="ordfeminine">
                    -82 118 90 66 82 -82 97 241 84 hstemhm
97 103 hintmask 11011000
489 314 rmoveto
-8 42 -51 -4 -4 0 6 34 rlinecurve
57 294 rlineto
12 -46 -42 4 -36 hhcurveto
-166 -102 -151 -149 hvcurveto
hintmask 10111000
-83 39 -39 48 43 52 33 42 47 vhcurveto
hintmask 11011000
-3 -78 43 -26 123 69 rrcurveto
hintmask 10111000
-249 57 rmoveto
-23 -17 19 43 81 47 98 55 16 26 -5 -9 28 hvcurveto
-32 -167 rlineto
-34 -35 -40 -26 -25 hhcurveto
-170 -163 rmoveto
-17 -90 rlineto
388 hlineto
18 90 rlineto
endchar
                </CharString>
                <CharString name="ordmasculine">
                    -70 118 90 66 89 244 89 hstem
117 103 188 103 vstem
511 535 rmoveto
102 -59 59 -91 -127 -117 -123 -138 -102 59 -59 91 128 116 123 138 vhcurveto
-103 -22 rmoveto
-78 -39 -72 -70 -52 -27 33 61 78 39 72 70 52 27 -33 -61 vhcurveto
-323 -305 rmoveto
-18 -90 rlineto
353 hlineto
18 90 rlineto
endchar
                </CharString>
                <CharString name="oslash">
                    19 callgsubr
20 -20 72 callgsubr
hintmask 11011000
177 242 -28 callsubr
hintmask 10111000
63 69 -69 58 rlineto
hintmask 11011000
9 callgsubr
                </CharString>
                <CharString name="oslash.sc">
                    38 -13 105 404 106 -37 -20 76 callgsubr
299 126 hintmask 11011000
179 245 -94 callsubr
                </CharString>
                <CharString name="oslashacute">
                    19 callgsubr
20 -20 205 -20 72 callgsubr
hintmask 11011100
262 699 -107 callgsubr
-85 -457 -28 callsubr
hintmask 10111100
63 69 -69 58 rlineto
hintmask 11011100
9 callgsubr
                </CharString>
                <CharString name="oslashacute.sc">
                    38 -13 105 404 106 -37 -20 76 callgsubr
299 126 hintmask 11011000
278 729 -107 callgsubr
-99 -484 -94 callsubr
                </CharString>
                <CharString name="otilde">
                    19 callgsubr
77 102 -54 -20 66 102 72 callgsubr
hintmask 11100110
481 751 rmoveto
hintmask 11011110
-78 callsubr
hintmask 11100110
-81 callsubr
hintmask 11011110
-429 -540 -99 callgsubr
                </CharString>
                <CharString name="otilde.sc">
                    38 -13 105 404 106 77 102 -8 102 76 callgsubr
299 126 hintmask 11101100
508 781 64 callsubr
hintmask 11101100
60 -37 rlineto
54 35 25 29 16 -81 callsubr
-127 -179 -107 callsubr
                </CharString>
                <CharString name="p">
                    3 -173 -21 178 103 366 119 -13 -20 hstemhm
449 121 hintmask 11011000
298 87 rmoveto
-23 -41 7 13 -44 hvcurveto
hintmask 11101000
52 268 rlineto
44 50 55 34 39 hhcurveto
36 27 -31 -68 hvcurveto
hintmask 11011000
-118 -69 -149 -82 vhcurveto
-165 -270 rmoveto
33 168 rlineto
-1 12 12 0 12 hhcurveto
230 138 204 199 hvcurveto
hintmask 11101000
125 -58 60 -69 -59 -70 -46 -58 -62 vhcurveto
hintmask 11011000
14 91 -122 -8 -20 -164 -46 -224 -68 -357 rlinecurve
endchar
                </CharString>
                <CharString name="p.sc">
                    -26 callsubr
                </CharString>
                <CharString name="paragraph">
                    163 88 108 370 126 0 -20 hstemhm
81 127 hintmask 10110000
535 196 rmoveto
-37 -34 4 5 -32 hvcurveto
hintmask 11010000
71 364 32 1 35 -1 37 -3 rlinecurve
-399 -185 rmoveto
76 47 73 136 28 vhcurveto
-64 -324 rlineto
-78 33 -41 52 62 vvcurveto
161 -499 rmoveto
42 212 rlineto
-4 32 35 -2 36 hhcurveto
-38 -195 117 13 154 786 rlineto
-416 17 -250 -143 -211 vvcurveto
-112 79 -85 139 -42 vhcurveto
-48 -246 rlineto
endchar
                </CharString>
                <CharString name="parenleft">
                    -140 698 -20 hstem
64 118 vstem
440 788 -5 callgsubr
                </CharString>
                <CharString name="parenleft.cap">
                    -140 -162 1019 hstem
77 118 vstem
453 857 -5 callgsubr
                </CharString>
                <CharString name="parenright">
                    -140 -231 1019 hstem
286 118 vstem
28 -231 -5 callsubr
                </CharString>
                <CharString name="parenright.cap">
                    -140 -162 1019 hstem
299 118 vstem
41 -162 -5 callsubr
                </CharString>
                <CharString name="percent">
                    276 5 -21 26 -21 710 -20 23 -20 hstemhm
106 697 hintmask 01011000
295 702 rmoveto
-79 -76 -76 -99 -73 50 -42 61 79 76 75 99 73 -50 43 -61 hvcurveto
-125 -713 rmoveto
hintmask 01101000
633 640 -64 70 -633 -640 rlineto
hintmask 10011000
506 -75 rmoveto
79 75 76 99 73 -50 42 -61 -78 -76 -75 -99 -73 50 -43 61 hvcurveto
endchar
                </CharString>
                <CharString name="period">
                    -246 0 160 hstem
55 184 vstem
214 34 callgsubr
                </CharString>
                <CharString name="period.tab">
                    -167 0 160 hstem
84 184 vstem
243 34 callgsubr
                </CharString>
                <CharString name="periodcentered">
                    -246 222 160 hstem
98 186 vstem
257 57 callsubr
                </CharString>
                <CharString name="periodcentered.tab">
                    -168 222 160 hstem
126 186 vstem
285 57 callsubr
                </CharString>
                <CharString name="peso">
                    11 21 -21 385 107 -97 96 100 103 hstemhm
41 613 hintmask 10111000
476 491 rmoveto
-216 hlineto
20 100 112 11 68 -47 16 -64 rlinecurve
-252 -186 rmoveto
17 90 rlineto
223 hlineto
-32 -65 -81 -41 -127 16 rrcurveto
hintmask 11011000
409 80 rmoveto
21 107 rlineto
-55 hlineto
-9 134 -127 101 -289 -42 -37 -193 rcurveline
-68 hlineto
-21 -107 rlineto
68 hlineto
-75 -385 rlineto
123 hlineto
36 184 197 23 135 72 48 106 rlinecurve
endchar
                </CharString>
                <CharString name="plus">
                    11 276 113 hstem
74 500 vstem
552 276 rmoveto
36 callgsubr
-180 hlineto
37 189 rlineto
-119 hlineto
-37 -189 rlineto
-179 41 callgsubr
180 hlineto
-37 -189 rlineto
119 hlineto
37 189 rlineto
endchar
                </CharString>
                <CharString name="plusminus">
                    11 50 110 164 110 hstem
36 542 vstem
503 50 rmoveto
21 110 rlineto
-174 hlineto
32 164 rlineto
173 hlineto
23 110 rlineto
-175 hlineto
36 183 rlineto
-119 hlineto
-36 -183 rlineto
-174 hlineto
-22 -110 rlineto
175 hlineto
-32 -164 rlineto
-174 hlineto
-21 -110 rlineto
endchar
                </CharString>
                <CharString name="published">
                    303 -34 87 392 85 106 88 hstem
89 96 363 103 106 -34 callgsubr
-93 -476 rmoveto
15 88 rlineto
121 13 102 60 93 vvcurveto
86 -92 47 -176 -22 vhcurveto
-71 -365 rlineto
236 242 rmoveto
-42 -35 -31 -70 8 vhcurveto
19 108 rlineto
57 8 29 -23 -28 vvcurveto
endchar
                </CharString>
                <CharString name="q">
                    -2 -201 118 67 119 365 103 hstem
46 121 153 130 vstem
577 -131 rmoveto
-16 61 -117 -21 0 0 9 48 rlinecurve
114 582 rlineto
17 -43 -65 15 -46 hhcurveto
-229 -138 -202 -200 -125 58 -60 69 56 68 43 55 60 hvcurveto
-32 -166 -25 -130 70 -30 207 113 rlinecurve
-348 234 rmoveto
-35 -27 30 69 117 69 149 81 24 41 -7 -14 45 hvcurveto
-51 -264 rlineto
-44 -51 -57 -36 -39 hhcurveto
endchar
                </CharString>
                <CharString name="q.sc">
                    -38 callsubr
                </CharString>
                <CharString name="question">
                    -53 0 149 hstem
393 145 vstem
154 624 rmoveto
162 -25 77 -25 -69 vvcurveto
-57 -56 -43 -148 -86 vhcurveto
45 -70 rlineto
217 117 87 94 94 vvcurveto
109 -122 62 -236 26 vhcurveto
82 -751 rmoveto
28 149 rlineto
-159 hlineto
-27 -149 rlineto
endchar
                </CharString>
                <CharString name="questiondown">
                    -53 539 149 hstem
54 144 vstem
329 85 callsubr
28 149 rlineto
-50 -624 rmoveto
-162 25 -78 25 69 vvcurveto
57 57 43 147 87 vhcurveto
-44 70 rlineto
-218 -118 -86 -93 -95 vvcurveto
-108 122 -63 235 -26 vhcurveto
endchar
                </CharString>
                <CharString name="quotedbl">
                    26 428 325 hstem
157 440 vstem
478 428 rmoveto
115 291 4 34 rlineto
-153 hlineto
-57 -325 rlineto
-139 hmoveto
115 291 4 80 callgsubr
                </CharString>
                <CharString name="quotedblbase">
                    32 -169 63 callgsubr
101 154 vstem
39 -26 callgsubr
256 hmoveto
51 -30 98 95 77 98 10 137 rlinecurve
-154 -3 -1 -115 -16 -96 -65 -86 rlinecurve
endchar
                </CharString>
                <CharString name="quotedblleft">
                    -9 433 63 callgsubr
101 154 vstem
613 733 rmoveto
-51 30 -99 -95 -76 -99 -10 -136 rlinecurve
154 3 1 115 16 96 65 86 rlinecurve
-255 hmoveto
37 callgsubr
                </CharString>
                <CharString name="quotedblright">
                    -32 420 329 hstem
190 155 101 154 25 callgsubr
255 hmoveto
51 -30 99 94 77 99 10 136 rlinecurve
-154 -3 -2 -114 -15 -97 -66 -85 rlinecurve
endchar
                </CharString>
                <CharString name="quoteleft">
                    -265 433 63 callgsubr
vstem
358 733 rmoveto
37 callgsubr
                </CharString>
                <CharString name="quoteright">
                    -287 420 329 hstem
190 155 25 callgsubr
endchar
                </CharString>
                <CharString name="quotesinglbase">
                    -224 -169 63 callgsubr
vstem
39 -26 callgsubr
endchar
                </CharString>
                <CharString name="quotesingle">
                    -204 428 325 hstem
168 210 vstem
259 428 rmoveto
116 291 3 80 callgsubr
                </CharString>
                <CharString name="r">
                    32 callgsubr
557 37 -80 callgsubr
endchar
                </CharString>
                <CharString name="r.sc">
                    -7 11 -21 31 -21 31 -21 483 102 hstemhm
422 129 hintmask 10011000
392 -10 -14 callsubr
                </CharString>
                <CharString name="racute">
                    -18 -13 97 470 -20 59 -20 204 -20 hstem
293 128 vstem
279 699 -107 callgsubr
278 -662 -80 callgsubr
endchar
                </CharString>
                <CharString name="racute.sc">
                    -54 callsubr
                </CharString>
                <CharString name="rcaron">
                    32 callgsubr
394 631 -94 callgsubr
321 -757 -80 callgsubr
endchar
                </CharString>
                <CharString name="rcaron.sc">
                    -50 callgsubr
                </CharString>
                <CharString name="rcommaaccent">
                    32 callgsubr
557 37 -80 callgsubr
-458 -324 -102 callsubr
                </CharString>
                <CharString name="rcommaaccent.sc">
                    -7 11 -21 31 -21 31 -21 483 102 hstemhm
422 129 hintmask 10011000
392 -10 -85 callsubr
-105 -562 -102 callsubr
                </CharString>
                <CharString name="registered">
                    109 200 68 177.5 164.5 77 68 hstem
101 75 405 74 vstem
655 504 rmoveto
162 -105 89 -143 -160 -146 -121 -186 -159 105 -89 143 161 145 122 182 vhcurveto
-74 -9 rmoveto
-136 -105 -91 -123 -103 -74 63 123 140 105 93 126 101 73 -64 -128 vhcurveto
-178 -141 rmoveto
87 10 -49 100 rlineto
42 20 18 26 28 vvcurveto
51 -57 34 -139 -17 vhcurveto
-48 -247 rlineto
83 hlineto
17 86 10 1 rlineto
endchar
                </CharString>
                <CharString name="registered.alt">
                    303 -34 87 391 88 104 88 hstem
89 96 346 102 124 -34 callgsubr
15 -482 rmoveto
99 11 -72 138 rlineto
55 35 30 43 47 vvcurveto
72 -75 53 -182 -30 vhcurveto
-70 -363 rlineto
100 hlineto
49 284 rlineto
53 7 23 -13 -28 vvcurveto
-33 -22 -26 -62 -32 vhcurveto
endchar
                </CharString>
                <CharString name="ring">
                    -46 614 228 hstem
176 262 vstem
320 842 -79 callsubr
endchar
                </CharString>
                <CharString name="ring.cap">
                    -46 614 228 hstem
176 262 vstem
320 842 -79 callsubr
endchar
                </CharString>
                <CharString name="ruble">
                    11 21 -21 118 101 57 107 207 104 hstem
499 125 vstem
499 497 rmoveto
-65 -55 -47 -157 -2 vhcurveto
40 207 rlineto
114 9 58 -35 -67 vvcurveto
-56 -379 rmoveto
30 101 rlineto
-217 hlineto
13 68 rlineto
256 31 99 96 112 vvcurveto
119 -117 77 -289 -37 vhcurveto
-58 -302 rlineto
-72 hlineto
-20 -107 rlineto
25 24 1 22 hhcurveto
-10 -53 rlineto
-73 hlineto
-20 -106 rlineto
73 hlineto
-23 -118 73 callgsubr
23 118 rlineto
endchar
                </CharString>
                <CharString name="rupee">
                    346 -11 112 -112 116 -84 -21 588 -20 20 107 hstemhm
434 130 64 227 -54 120 hintmask 10001101
29 callgsubr
hintmask 00101101
24 callgsubr
hintmask 10001101
677 -140 rmoveto
89 -92 78 -46 65 vhcurveto
hintmask 10010110
120 112 -33 69 -80 hhcurveto
-64 -90 -45 -93 -27 8 -26 12 -25 hvcurveto
-20 -20 -26 -23 -32 -25 31 -52 rcurveline
32 21 28 21 26 20 rrcurveto
hintmask 01001101
50 -64 64 -55 -47 vvcurveto
-46 -47 -7 -167 10 vhcurveto
hintmask 10001101
-7 -116 rlineto
267 -3 74 86 95 vvcurveto
endchar
                </CharString>
                <CharString name="rupeeindia">
                    11 379 99 98 112 hstem
54 557 vstem
503 48 rmoveto
-129 108 -64 51 -70 26 117 23 80 56 30 67 rrcurveto
73 hlineto
19 99 rlineto
-84 hlineto
-9 38 -25 36 -46 24 rrcurveto
187 hlineto
29 112 rlineto
-451 hlineto
-28 -111 140 -13 57 -38 17 -48 rlinecurve
-229 hlineto
-19 -99 rlineto
238 hlineto
-28 -46 -67 -37 -143 -3 -44 -104 rcurveline
136 -41 37 -28 163 -142 rrcurveto
endchar
                </CharString>
                <CharString name="s">
                    5 callgsubr
476 167 -68 callgsubr
endchar
                </CharString>
                <CharString name="s.sc">
                    -37 callsubr
endchar
                </CharString>
                <CharString name="sacute">
                    -89 -11 112 -112 116 483 -20 209 -20 hstemhm
177 226 -50 123 hintmask 10110100
230 699 -107 callgsubr
246 -532 rmoveto
92 -100 81 -44 68 vhcurveto
hintmask 10111000
117 109 -30 63 -75 hhcurveto
-65 -94 -45 -93 -23 6 -23 9 -21 hvcurveto
-35 -35 -52 -41 -68 -51 34 -50 rcurveline
65 40 53 38 44 35 rrcurveto
hintmask 01110100
51 -67 69 -55 -49 vvcurveto
-46 -64 -7 -181 10 vhcurveto
hintmask 10110100
-7 -116 rlineto
281 -3 94 86 95 vvcurveto
endchar
                </CharString>
                <CharString name="sacute.sc">
                    -55 callgsubr
223 726 -107 callgsubr
280 -294 -97 callsubr
endchar
                </CharString>
                <CharString name="scaron">
                    5 callgsubr
344 631 -94 callgsubr
290 -627 -68 callgsubr
endchar
                </CharString>
                <CharString name="scaron.sc">
                    -55 callgsubr
337 658 -94 callgsubr
324 -389 -97 callsubr
endchar
                </CharString>
                <CharString name="scedilla">
                    -89 -169 -21 120 171 -112 112 -112 116 -94 -21 598 -20 hstemhm
177 226 -134 111 -27 123 hintmask 1100010100000000
269 -191 rmoveto
111 1 rlineto
hintmask 1000110100000000
7 107 -29 65 -45 28 rrcurveto
hintmask 1010010010000000
119 31 44 61 65 vvcurveto
92 -100 81 -44 68 vhcurveto
hintmask 1010011000000000
117 109 -30 63 -75 hhcurveto
-65 -94 -45 -93 -23 6 -23 9 -21 hvcurveto
-35 -35 -52 -41 -68 -51 34 -50 rcurveline
65 40 53 38 44 35 rrcurveto
hintmask 1001010010000000
51 -67 69 -55 -49 vvcurveto
-46 -64 -7 -181 10 vhcurveto
hintmask 1010010100000000
-7 -116 rlineto
26 24 0 1 23 hvcurveto
hintmask 1100010100000000
-29 -27 -26 -44 -25 -63 -51 callsubr
                </CharString>
                <CharString name="scedilla.sc">
                    -71 callgsubr
                </CharString>
                <CharString name="schwa">
                    -56 -16 110 180 79 103 113 hstem
42 119 235 119 vstem
189 -16 rmoveto
177 149 197 186 170 -137 120 -312 -170 hvcurveto
13 -59 247 52 66 -18 4 -109 rlinecurve
-219 -15 -135 -77 -137 vvcurveto
-85 54 -55 93 vhcurveto
41 110 rmoveto
-44 -25 27 39 72 90 34 138 8 hvcurveto
-95 -20 -59 -85 -80 hhcurveto
endchar
                </CharString>
                <CharString name="scommaaccent">
                    5 callgsubr
476 167 -68 callgsubr
-393 -465 -102 callsubr
                </CharString>
                <CharString name="scommaaccent.sc">
                    -56 callsubr
                </CharString>
                <CharString name="section">
                    10 -120 107 607 106 hstemhm
69 120 -22 129 60 130 -49 121 hintmask 11100100
189 282 rmoveto
36 56 31 55 11 vhcurveto
68 -37 69 -28 -37 vvcurveto
-27 -35 -24 -94 -15 vhcurveto
-63 29 -56 26 35 vvcurveto
hintmask 11011000
297 -250 rmoveto
49 -36 35 -48 28 vhcurveto
hintmask 11010100
106 31 50 39 60 130 -262 38 93 vvcurveto
31 29 28 50 49 28 -27 -71 19 vhcurveto
111 25 rlineto
117 -21 -42 62 -111 hhcurveto
-141 -100 -96 -92 -42 24 -34 34 -27 hvcurveto
hintmask 11101000
-90 -24 -66 -53 -70 -141 287 -27 -73 vvcurveto
-39 -60 -14 -233 55 vhcurveto
-31 -126 rlineto
hintmask 11011000
323 -57 131 96 96 vvcurveto
endchar
                </CharString>
                <CharString name="semicolon">
                    -246 395 160 hstemhm
12 305 -223 154 hintmask 11000000
287 -2 callgsubr
                </CharString>
                <CharString name="semicolon.tab">
                    -167 395 160 hstemhm
40 305 -223 154 hintmask 11000000
315 -2 callgsubr
                </CharString>
                <CharString name="servicemark">
                    390 276 84 -45 142 102 129 -127 129 -74 81 hstemhm
131 100 65 100 hintmask 01010110
679 690 rmoveto
-141 -4 -78 -401 rlineto
93 hlineto
48 78 callsubr
hintmask 01100110
68 callgsubr
77 403 rlineto
-145 hlineto
-122 -231 rlineto
-2 hlineto
-281 115 rmoveto
hintmask 10001110
81 -12 -38 44 -78 hhcurveto
-93 -76 -68 -63 hvcurveto
-94 165 -52 -41 vvcurveto
-26 -46 -1 -145 35 vhcurveto
-21 -96 rlineto
226 -48 86 78 68 92 -165 55 47 vvcurveto
20 24 13 26 30 22 -22 -42 10 vhcurveto
endchar
                </CharString>
                <CharString name="seven">
                    11 11 -21 38 -21 568 113 hstemhm
99 528 hintmask 10110000
220 -10 rmoveto
106 196 127 211 151 189 23 102 rcurveline
-457 hlineto
-23 -113 rlineto
318 hlineto
2 -7 rlineto
hintmask 01110000
-147 -183 -119 -189 -102 -189 rrcurveto
endchar
                </CharString>
                <CharString name="seven.den">
                    13 -21 35 -21 343 92 hstemhm
14 369 hintmask 10110000
122 4 callgsubr
                </CharString>
                <CharString name="seven.den_afrc">
                    -72 116 92 hstem
60 369 vstem
168 -241 -75 callsubr
                </CharString>
                <CharString name="seven.den_afrc2">
                    348 116 92 hstem
270 369 vstem
378 -241 -75 callsubr
                </CharString>
                <CharString name="seven.inf">
                    -127 182 92 hstem
45 369 vstem
153 -175 -75 callsubr
                </CharString>
                <CharString name="seven.num">
                    599 92 hstem
118 369 vstem
226 242 -75 callsubr
                </CharString>
                <CharString name="seven.num_afrc">
                    -72 821 92 hstem
182 369 vstem
8 callgsubr
endchar
                </CharString>
                <CharString name="seven.num_afrc2">
                    348 821 92 hstem
391 369 vstem
499 464 -75 callsubr
                </CharString>
                <CharString name="seven.small">
                    13 -21 35 -21 343 92 hstemhm
42 369 hintmask 10110000
150 4 callgsubr
                </CharString>
                <CharString name="seven.sup">
                    -127 710 92 hstem
132 369 vstem
240 353 -75 callsubr
                </CharString>
                <CharString name="seveneighths">
                    509 -11 82 292 90 146 92 13 -20 hstemhm
680 14 callgsubr
hintmask 11100110
321 -23 rmoveto
hintmask 11010110
-69 callsubr
-27 212 rmoveto
hintmask 11100110
-83 callgsubr
892 -139 -105 callsubr
-24 callgsubr
hintmask 11101010
-69 callgsubr
hintmask 11100110
13 callsubr
hintmask 11101010
-92 callgsubr
                </CharString>
                <CharString name="seveneighths.afrc">
                    -72 -1 callsubr
75 87 439 92 hstemhm
34 14 callgsubr
hintmask 1011110110000000
8 callgsubr
-128 -183 -60 callgsubr
hintmask 1101110110000000
-24 callgsubr
hintmask 1011111010000000
-69 callgsubr
hintmask 1011110110000000
13 callsubr
hintmask 1011111010000000
-92 callgsubr
                </CharString>
                <CharString name="six">
                    11 -16 106 236 98 283 -20 hstem
76 117 238 115 vstem
288 -16 rmoveto
136 122 100 156 175 -172 70 -159 -122 hvcurveto
37 85 92 92 201 53 -32 114 rcurveline
-311 -98 -126 -195 -191 vvcurveto
-155 86 -84 126 vhcurveto
26 106 rmoveto
-62 -59 42 127 7 0 8 1 7 hvcurveto
130 86 107 -47 -100 vvcurveto
-69 -39 -61 -78 vhcurveto
endchar
                </CharString>
                <CharString name="six.den">
                    -11 84 callsubr
hstem
-1 83 callgsubr
154 -11 -98 callgsubr
                </CharString>
                <CharString name="six.den_afrc">
                    -72 -244 84 callsubr
hstem
45 83 callgsubr
200 -244 -98 callgsubr
                </CharString>
                <CharString name="six.den_afrc2">
                    348 -244 84 callsubr
hstem
255 83 callgsubr
410 -244 -98 callgsubr
                </CharString>
                <CharString name="six.inf">
                    -127 -178 81 126 -21 24 71 hstemhm
30 64 callgsubr
hintmask 11011000
185 -178 rmoveto
100 80 64 101 hvcurveto
hintmask 10111000
109 -111 43 -109 -71 vhcurveto
26 52 59 52 130 27 -22 89 rcurveline
-221 -57 -87 -128 -128 vvcurveto
hintmask 11011000
-7 callsubr
hintmask 10111000
7 callsubr
hintmask 11011000
4 callsubr
                </CharString>
                <CharString name="six.num">
                    239 84 callsubr
185 -20 hstem
103 83 callgsubr
258 239 -98 callgsubr
                </CharString>
                <CharString name="six.num_afrc">
                    -72 461 82 callgsubr
167 64 callgsubr
hintmask 10111000
322 461 -68 callsubr
                </CharString>
                <CharString name="six.num_afrc2">
                    348 461 82 callgsubr
376 64 callgsubr
hintmask 10111000
531 461 -68 callsubr
                </CharString>
                <CharString name="six.small">
                    -11 84 callsubr
hstem
27 83 callgsubr
182 -11 -98 callgsubr
                </CharString>
                <CharString name="six.sup">
                    -127 350 82 callgsubr
117 64 callgsubr
hintmask 10111000
272 350 -68 callsubr
                </CharString>
                <CharString name="slash">
                    -80 -203 1002 hstem
-102 744 vstem
535 799 rmoveto
-637 -979 115 -23 629 968 rlineto
endchar
                </CharString>
                <CharString name="slash.tab">
                    11 -180 -21 hstem
-83 754 vstem
671 765 rmoveto
-108 34 -646 -977 117 -23 rlineto
endchar
                </CharString>
                <CharString name="space">
                    -301 endchar
                </CharString>
                <CharString name="sterling">
                    11 -7 120 -108 -21 279 107 109.5 224.5 -118 118 hstemhm
158 119 203 125 hintmask 10101110
570 138 rmoveto
-54 32 -58 -63 -48 -7 -159 30 rlinecurve
14 42 7 46 5 45 rrcurveto
181 hlineto
17 107 rlineto
-186 hlineto
6 54 8 50 20 40 rrcurveto
42 21 35 30 41 hhcurveto
37 23 -27 -82 hvcurveto
hintmask 10110110
125 5 rlineto
hintmask 01101110
142 4 -41 80 -111 hhcurveto
-106 -93 -81 -85 -42 hvcurveto
-26 -53 -11 -54 -8 -61 rrcurveto
-73 hlineto
-22 -107 rlineto
82 hlineto
-5 -35 -6 -38 -9 -41 rrcurveto
13 -160 -37 -178 139 hhcurveto
42 42 17 30 31 hvcurveto
hintmask 10101110
262 -72 43 27 70 152 rrcurveto
endchar
                </CharString>
                <CharString name="t">
                    37 callsubr
451 61 -56 callgsubr
endchar
                </CharString>
</ttFont>
